%TF.GenerationSoftware,KiCad,Pcbnew,10.0.7*%
%TF.CreationDate,2026-10-09T18:04:40+02:00*%
%TF.ProjectId,corner-interface,636f726e-6572-42d6-996e-746572666163,C prototype*%
%TF.SameCoordinates,Original*%
%TF.FileFunction,Copper,L2,Bot*%
%TF.FilePolarity,Positive*%
%FSLAX46Y46*%
G04 Gerber Fmt 4.6, Leading zero omitted, Abs format (unit mm)*
G04 Created by KiCad (PCBNEW 10.0.7) date 2026-10-09 18:04:40*
%MOMM*%
%LPD*%
G01*
G04 APERTURE LIST*
G04 Aperture macros list*
%AMRoundRect*
0 Rectangle with rounded corners*
0 $1 Rounding radius*
0 $2 $3 $4 $5 $6 $7 $8 $9 X,Y pos of 4 corners*
0 Add a 4 corners polygon primitive as box body*
4,1,4,$2,$3,$4,$5,$6,$7,$8,$9,$2,$3,0*
0 Add four circle primitives for the rounded corners*
1,1,$1+$1,$2,$3*
1,1,$1+$1,$4,$5*
1,1,$1+$1,$6,$7*
1,1,$1+$1,$8,$9*
0 Add four rect primitives between the rounded corners*
20,1,$1+$1,$2,$3,$4,$5,0*
20,1,$1+$1,$4,$5,$6,$7,0*
20,1,$1+$1,$6,$7,$8,$9,0*
20,1,$1+$1,$8,$9,$2,$3,0*%
G04 Aperture macros list end*
%TA.AperFunction,ComponentPad*%
%ADD10C,1.600000*%
%TD*%
%TA.AperFunction,ComponentPad*%
%ADD11RoundRect,0.250001X1.099999X-1.099999X1.099999X1.099999X-1.099999X1.099999X-1.099999X-1.099999X0*%
%TD*%
%TA.AperFunction,ComponentPad*%
%ADD12C,2.700000*%
%TD*%
%TA.AperFunction,ViaPad*%
%ADD13C,1.200000*%
%TD*%
%TA.AperFunction,Conductor*%
%ADD14C,0.350000*%
%TD*%
G04 APERTURE END LIST*
D10*
%TO.P,C1,1*%
%TO.N,+5V_A*%
X125000000Y-115095000D03*
%TO.P,C1,2*%
%TO.N,GND_A*%
X125000000Y-120095000D03*
%TD*%
%TO.P,R3,1*%
%TO.N,DATA_RAW*%
X141000000Y-117000000D03*
%TO.P,R3,2*%
%TO.N,DATA_B*%
X148620000Y-117000000D03*
%TD*%
%TO.P,R4,1*%
%TO.N,CLOCK_RAW*%
X139000000Y-126000000D03*
%TO.P,R4,2*%
%TO.N,CLOCK_B*%
X146620000Y-126000000D03*
%TD*%
D11*
%TO.P,J1,1*%
%TO.N,+5V_A*%
X108000000Y-123000000D03*
D12*
%TO.P,J1,2*%
%TO.N,DATA_A*%
X108000000Y-119040000D03*
%TO.P,J1,3*%
%TO.N,CLOCK_A*%
X108000000Y-115080000D03*
%TO.P,J1,4*%
%TO.N,GND_A*%
X108000000Y-111120000D03*
%TD*%
D10*
%TO.P,R2,1*%
%TO.N,CLOCK_A*%
X116000000Y-126000000D03*
%TO.P,R2,2*%
%TO.N,GND_A*%
X123620000Y-126000000D03*
%TD*%
%TO.P,C2,1*%
%TO.N,+5V_B*%
X137000000Y-115095000D03*
%TO.P,C2,2*%
%TO.N,GND_B*%
X137000000Y-120095000D03*
%TD*%
D11*
%TO.P,J2,1*%
%TO.N,+5V_B*%
X155000000Y-123000000D03*
D12*
%TO.P,J2,2*%
%TO.N,DATA_B*%
X155000000Y-119040000D03*
%TO.P,J2,3*%
%TO.N,CLOCK_B*%
X155000000Y-115080000D03*
%TO.P,J2,4*%
%TO.N,GND_B*%
X155000000Y-111120000D03*
%TD*%
D10*
%TO.P,R1,1*%
%TO.N,DATA_A*%
X116000000Y-111000000D03*
%TO.P,R1,2*%
%TO.N,GND_A*%
X123620000Y-111000000D03*
%TD*%
D13*
%TO.N,+5V_A*%
X126500000Y-115095000D03*
%TO.N,+5V_B*%
X135500000Y-115095000D03*
%TD*%
%TO.N,DATA_A*%
D14*
X110250000Y-116000000D02*
X110250000Y-115750000D01*
X110000000Y-117250000D02*
X110250000Y-117250000D01*
X108000000Y-118500000D02*
X108000000Y-118250000D01*
X110250000Y-111500000D02*
X110250000Y-111250000D01*
X110250000Y-114750000D02*
X110250000Y-114500000D01*
X108500000Y-117250000D02*
X108750000Y-117250000D01*
X110250000Y-112000000D02*
X110250000Y-111750000D01*
X109000000Y-117250000D02*
X109250000Y-117250000D01*
X110250000Y-114000000D02*
X110250000Y-113750000D01*
X110250000Y-117000000D02*
X110250000Y-116750000D01*
X113750000Y-111000000D02*
X114000000Y-111000000D01*
X110250000Y-111000000D02*
X110500000Y-111000000D01*
X109250000Y-117250000D02*
X109500000Y-117250000D01*
X110250000Y-116500000D02*
X110250000Y-116250000D01*
X114500000Y-111000000D02*
X114750000Y-111000000D01*
X112250000Y-111000000D02*
X112500000Y-111000000D01*
X111750000Y-111000000D02*
X112000000Y-111000000D01*
X110250000Y-114250000D02*
X110250000Y-114000000D01*
X110250000Y-113500000D02*
X110250000Y-113250000D01*
X110250000Y-111750000D02*
X110250000Y-111500000D01*
X115500000Y-111000000D02*
X115750000Y-111000000D01*
X115250000Y-111000000D02*
X115500000Y-111000000D01*
X110250000Y-113000000D02*
X110250000Y-112750000D01*
X114250000Y-111000000D02*
X114500000Y-111000000D01*
X112500000Y-111000000D02*
X112750000Y-111000000D01*
X110250000Y-114500000D02*
X110250000Y-114250000D01*
X115000000Y-111000000D02*
X115250000Y-111000000D01*
X110250000Y-116250000D02*
X110250000Y-116000000D01*
X113500000Y-111000000D02*
X113750000Y-111000000D01*
X112750000Y-111000000D02*
X113000000Y-111000000D01*
X108000000Y-119000000D02*
X108000000Y-118750000D01*
X109750000Y-117250000D02*
X110000000Y-117250000D01*
X108250000Y-117250000D02*
X108500000Y-117250000D01*
X108000000Y-117500000D02*
X108000000Y-117250000D01*
X110250000Y-112250000D02*
X110250000Y-112000000D01*
X108000000Y-118250000D02*
X108000000Y-118000000D01*
X108000000Y-119040000D02*
X108000000Y-119000000D01*
X110250000Y-112750000D02*
X110250000Y-112500000D01*
X110750000Y-111000000D02*
X111000000Y-111000000D01*
X108750000Y-117250000D02*
X109000000Y-117250000D01*
X108000000Y-118000000D02*
X108000000Y-117750000D01*
X112000000Y-111000000D02*
X112250000Y-111000000D01*
X108000000Y-117750000D02*
X108000000Y-117500000D01*
X110500000Y-111000000D02*
X110750000Y-111000000D01*
X114000000Y-111000000D02*
X114250000Y-111000000D01*
X110250000Y-115750000D02*
X110250000Y-115500000D01*
X114750000Y-111000000D02*
X115000000Y-111000000D01*
X111000000Y-111000000D02*
X111250000Y-111000000D01*
X108000000Y-118750000D02*
X108000000Y-118500000D01*
X110250000Y-116750000D02*
X110250000Y-116500000D01*
X110250000Y-111250000D02*
X110250000Y-111000000D01*
X110250000Y-115000000D02*
X110250000Y-114750000D01*
X110250000Y-115250000D02*
X110250000Y-115000000D01*
X115750000Y-111000000D02*
X116000000Y-111000000D01*
X110250000Y-117250000D02*
X110250000Y-117000000D01*
X113000000Y-111000000D02*
X113250000Y-111000000D01*
X109500000Y-117250000D02*
X109750000Y-117250000D01*
X110250000Y-112500000D02*
X110250000Y-112250000D01*
X111250000Y-111000000D02*
X111500000Y-111000000D01*
X110250000Y-113750000D02*
X110250000Y-113500000D01*
X111500000Y-111000000D02*
X111750000Y-111000000D01*
X110250000Y-115500000D02*
X110250000Y-115250000D01*
X113250000Y-111000000D02*
X113500000Y-111000000D01*
X108000000Y-117250000D02*
X108250000Y-117250000D01*
X110250000Y-113250000D02*
X110250000Y-113000000D01*
%TD*%
%TA.AperFunction,Conductor*%
%TO.N,+5V_B*%
G36*
X164343039Y-100619685D02*
G01*
X164388794Y-100672489D01*
X164400000Y-100724000D01*
X164400000Y-139276000D01*
X164380315Y-139343039D01*
X164327511Y-139388794D01*
X164276000Y-139400000D01*
X132124000Y-139400000D01*
X132056961Y-139380315D01*
X132011206Y-139327511D01*
X132000000Y-139276000D01*
X132000000Y-136374038D01*
X159899500Y-136374038D01*
X159899500Y-136625961D01*
X159938910Y-136874785D01*
X160016760Y-137114383D01*
X160131132Y-137338848D01*
X160279201Y-137542649D01*
X160279205Y-137542654D01*
X160457345Y-137720794D01*
X160457350Y-137720798D01*
X160635117Y-137849952D01*
X160661155Y-137868870D01*
X160804184Y-137941747D01*
X160885616Y-137983239D01*
X160885618Y-137983239D01*
X160885621Y-137983241D01*
X161125215Y-138061090D01*
X161374038Y-138100500D01*
X161374039Y-138100500D01*
X161625961Y-138100500D01*
X161625962Y-138100500D01*
X161874785Y-138061090D01*
X162114379Y-137983241D01*
X162338845Y-137868870D01*
X162542656Y-137720793D01*
X162720793Y-137542656D01*
X162868870Y-137338845D01*
X162983241Y-137114379D01*
X163061090Y-136874785D01*
X163100500Y-136625962D01*
X163100500Y-136374038D01*
X163061090Y-136125215D01*
X162983241Y-135885621D01*
X162983239Y-135885618D01*
X162983239Y-135885616D01*
X162941747Y-135804184D01*
X162868870Y-135661155D01*
X162849952Y-135635117D01*
X162720798Y-135457350D01*
X162720794Y-135457345D01*
X162542654Y-135279205D01*
X162542649Y-135279201D01*
X162338848Y-135131132D01*
X162338847Y-135131131D01*
X162338845Y-135131130D01*
X162268747Y-135095413D01*
X162114383Y-135016760D01*
X161874785Y-134938910D01*
X161625962Y-134899500D01*
X161374038Y-134899500D01*
X161249626Y-134919205D01*
X161125214Y-134938910D01*
X160885616Y-135016760D01*
X160661151Y-135131132D01*
X160457350Y-135279201D01*
X160457345Y-135279205D01*
X160279205Y-135457345D01*
X160279201Y-135457350D01*
X160131132Y-135661151D01*
X160016760Y-135885616D01*
X159938910Y-136125214D01*
X159899500Y-136374038D01*
X132000000Y-136374038D01*
X132000000Y-125913389D01*
X137899500Y-125913389D01*
X137899500Y-126086611D01*
X137926598Y-126257701D01*
X137980127Y-126422445D01*
X138058768Y-126576788D01*
X138160586Y-126716928D01*
X138283072Y-126839414D01*
X138423212Y-126941232D01*
X138577555Y-127019873D01*
X138742299Y-127073402D01*
X138913389Y-127100500D01*
X138913390Y-127100500D01*
X139086610Y-127100500D01*
X139086611Y-127100500D01*
X139257701Y-127073402D01*
X139422445Y-127019873D01*
X139576788Y-126941232D01*
X139716928Y-126839414D01*
X139839414Y-126716928D01*
X139941232Y-126576788D01*
X140019873Y-126422445D01*
X140073402Y-126257701D01*
X140100500Y-126086611D01*
X140100500Y-125913389D01*
X145519500Y-125913389D01*
X145519500Y-126086611D01*
X145546598Y-126257701D01*
X145600127Y-126422445D01*
X145678768Y-126576788D01*
X145780586Y-126716928D01*
X145903072Y-126839414D01*
X146043212Y-126941232D01*
X146197555Y-127019873D01*
X146362299Y-127073402D01*
X146533389Y-127100500D01*
X146533390Y-127100500D01*
X146706610Y-127100500D01*
X146706611Y-127100500D01*
X146877701Y-127073402D01*
X147042445Y-127019873D01*
X147196788Y-126941232D01*
X147336928Y-126839414D01*
X147459414Y-126716928D01*
X147561232Y-126576788D01*
X147639873Y-126422445D01*
X147693402Y-126257701D01*
X147720500Y-126086611D01*
X147720500Y-125913389D01*
X147693402Y-125742299D01*
X147639873Y-125577555D01*
X147561232Y-125423212D01*
X147459414Y-125283072D01*
X147336928Y-125160586D01*
X147196788Y-125058768D01*
X147042445Y-124980127D01*
X146877701Y-124926598D01*
X146877699Y-124926597D01*
X146877698Y-124926597D01*
X146746271Y-124905781D01*
X146706611Y-124899500D01*
X146533389Y-124899500D01*
X146493728Y-124905781D01*
X146362302Y-124926597D01*
X146197552Y-124980128D01*
X146043211Y-125058768D01*
X145963256Y-125116859D01*
X145903072Y-125160586D01*
X145903070Y-125160588D01*
X145903069Y-125160588D01*
X145780588Y-125283069D01*
X145780588Y-125283070D01*
X145780586Y-125283072D01*
X145736859Y-125343256D01*
X145678768Y-125423211D01*
X145600128Y-125577552D01*
X145546597Y-125742302D01*
X145519500Y-125913389D01*
X140100500Y-125913389D01*
X140073402Y-125742299D01*
X140019873Y-125577555D01*
X139941232Y-125423212D01*
X139839414Y-125283072D01*
X139716928Y-125160586D01*
X139576788Y-125058768D01*
X139422445Y-124980127D01*
X139257701Y-124926598D01*
X139257699Y-124926597D01*
X139257698Y-124926597D01*
X139126271Y-124905781D01*
X139086611Y-124899500D01*
X138913389Y-124899500D01*
X138873728Y-124905781D01*
X138742302Y-124926597D01*
X138577552Y-124980128D01*
X138423211Y-125058768D01*
X138343256Y-125116859D01*
X138283072Y-125160586D01*
X138283070Y-125160588D01*
X138283069Y-125160588D01*
X138160588Y-125283069D01*
X138160588Y-125283070D01*
X138160586Y-125283072D01*
X138116859Y-125343256D01*
X138058768Y-125423211D01*
X137980128Y-125577552D01*
X137926597Y-125742302D01*
X137899500Y-125913389D01*
X132000000Y-125913389D01*
X132000000Y-120008389D01*
X135899500Y-120008389D01*
X135899500Y-120181610D01*
X135918081Y-120298931D01*
X135926598Y-120352701D01*
X135980127Y-120517445D01*
X136058768Y-120671788D01*
X136160586Y-120811928D01*
X136283072Y-120934414D01*
X136423212Y-121036232D01*
X136577555Y-121114873D01*
X136742299Y-121168402D01*
X136913389Y-121195500D01*
X136913390Y-121195500D01*
X137086610Y-121195500D01*
X137086611Y-121195500D01*
X137257701Y-121168402D01*
X137422445Y-121114873D01*
X137576788Y-121036232D01*
X137716928Y-120934414D01*
X137839414Y-120811928D01*
X137941232Y-120671788D01*
X138019873Y-120517445D01*
X138073402Y-120352701D01*
X138100500Y-120181611D01*
X138100500Y-120008389D01*
X138073402Y-119837299D01*
X138019873Y-119672555D01*
X137941232Y-119518212D01*
X137839414Y-119378072D01*
X137716928Y-119255586D01*
X137576788Y-119153768D01*
X137422445Y-119075127D01*
X137257701Y-119021598D01*
X137257697Y-119021597D01*
X137257693Y-119021596D01*
X137117011Y-118999314D01*
X137086611Y-118994500D01*
X136913389Y-118994500D01*
X136873728Y-119000781D01*
X136742302Y-119021597D01*
X136577552Y-119075128D01*
X136423211Y-119153768D01*
X136343256Y-119211859D01*
X136283072Y-119255586D01*
X136283070Y-119255588D01*
X136283069Y-119255588D01*
X136160588Y-119378069D01*
X136160588Y-119378070D01*
X136160586Y-119378072D01*
X136125406Y-119426493D01*
X136058768Y-119518211D01*
X135980128Y-119672552D01*
X135926597Y-119837302D01*
X135899500Y-120008389D01*
X132000000Y-120008389D01*
X132000000Y-118910097D01*
X153349500Y-118910097D01*
X153349500Y-119169902D01*
X153390140Y-119426493D01*
X153470422Y-119673576D01*
X153551534Y-119832764D01*
X153588366Y-119905051D01*
X153741069Y-120115229D01*
X153924771Y-120298931D01*
X154134949Y-120451634D01*
X154264110Y-120517445D01*
X154366423Y-120569577D01*
X154366425Y-120569577D01*
X154366428Y-120569579D01*
X154613507Y-120649860D01*
X154745706Y-120670797D01*
X154870098Y-120690500D01*
X154870103Y-120690500D01*
X155129902Y-120690500D01*
X155248042Y-120671788D01*
X155386493Y-120649860D01*
X155633572Y-120569579D01*
X155865051Y-120451634D01*
X156075229Y-120298931D01*
X156258931Y-120115229D01*
X156411634Y-119905051D01*
X156529579Y-119673572D01*
X156609860Y-119426493D01*
X156636928Y-119255588D01*
X156650500Y-119169902D01*
X156650500Y-118910097D01*
X156628947Y-118774021D01*
X156609860Y-118653507D01*
X156529579Y-118406428D01*
X156529577Y-118406425D01*
X156529577Y-118406423D01*
X156486787Y-118322445D01*
X156411634Y-118174949D01*
X156258931Y-117964771D01*
X156075229Y-117781069D01*
X155986948Y-117716929D01*
X155865054Y-117628368D01*
X155865053Y-117628367D01*
X155865051Y-117628366D01*
X155763824Y-117576788D01*
X155633576Y-117510422D01*
X155386493Y-117430140D01*
X155129902Y-117389500D01*
X155129897Y-117389500D01*
X154870103Y-117389500D01*
X154870098Y-117389500D01*
X154613506Y-117430140D01*
X154366423Y-117510422D01*
X154134945Y-117628368D01*
X153924774Y-117781066D01*
X153924768Y-117781071D01*
X153741071Y-117964768D01*
X153741066Y-117964774D01*
X153588368Y-118174945D01*
X153470422Y-118406423D01*
X153390140Y-118653506D01*
X153349500Y-118910097D01*
X132000000Y-118910097D01*
X132000000Y-116913389D01*
X139899500Y-116913389D01*
X139899500Y-117086611D01*
X139926598Y-117257701D01*
X139980127Y-117422445D01*
X140058768Y-117576788D01*
X140160586Y-117716928D01*
X140283072Y-117839414D01*
X140423212Y-117941232D01*
X140577555Y-118019873D01*
X140742299Y-118073402D01*
X140913389Y-118100500D01*
X140913390Y-118100500D01*
X141086610Y-118100500D01*
X141086611Y-118100500D01*
X141257701Y-118073402D01*
X141422445Y-118019873D01*
X141576788Y-117941232D01*
X141716928Y-117839414D01*
X141839414Y-117716928D01*
X141941232Y-117576788D01*
X142019873Y-117422445D01*
X142073402Y-117257701D01*
X142100500Y-117086611D01*
X142100500Y-116913389D01*
X147519500Y-116913389D01*
X147519500Y-117086611D01*
X147546598Y-117257701D01*
X147600127Y-117422445D01*
X147678768Y-117576788D01*
X147780586Y-117716928D01*
X147903072Y-117839414D01*
X148043212Y-117941232D01*
X148197555Y-118019873D01*
X148362299Y-118073402D01*
X148533389Y-118100500D01*
X148533390Y-118100500D01*
X148706610Y-118100500D01*
X148706611Y-118100500D01*
X148877701Y-118073402D01*
X149042445Y-118019873D01*
X149196788Y-117941232D01*
X149336928Y-117839414D01*
X149459414Y-117716928D01*
X149561232Y-117576788D01*
X149639873Y-117422445D01*
X149693402Y-117257701D01*
X149720500Y-117086611D01*
X149720500Y-116913389D01*
X149693402Y-116742299D01*
X149639873Y-116577555D01*
X149561232Y-116423212D01*
X149459414Y-116283072D01*
X149336928Y-116160586D01*
X149196788Y-116058768D01*
X149042445Y-115980127D01*
X148877701Y-115926598D01*
X148877699Y-115926597D01*
X148877698Y-115926597D01*
X148746271Y-115905781D01*
X148706611Y-115899500D01*
X148533389Y-115899500D01*
X148493728Y-115905781D01*
X148362302Y-115926597D01*
X148197552Y-115980128D01*
X148043211Y-116058768D01*
X147963256Y-116116859D01*
X147903072Y-116160586D01*
X147903070Y-116160588D01*
X147903069Y-116160588D01*
X147780588Y-116283069D01*
X147780588Y-116283070D01*
X147780586Y-116283072D01*
X147736859Y-116343256D01*
X147678768Y-116423211D01*
X147600128Y-116577552D01*
X147546597Y-116742302D01*
X147519500Y-116913389D01*
X142100500Y-116913389D01*
X142073402Y-116742299D01*
X142019873Y-116577555D01*
X141941232Y-116423212D01*
X141839414Y-116283072D01*
X141716928Y-116160586D01*
X141576788Y-116058768D01*
X141422445Y-115980127D01*
X141257701Y-115926598D01*
X141257699Y-115926597D01*
X141257698Y-115926597D01*
X141126271Y-115905781D01*
X141086611Y-115899500D01*
X140913389Y-115899500D01*
X140873728Y-115905781D01*
X140742302Y-115926597D01*
X140577552Y-115980128D01*
X140423211Y-116058768D01*
X140343256Y-116116859D01*
X140283072Y-116160586D01*
X140283070Y-116160588D01*
X140283069Y-116160588D01*
X140160588Y-116283069D01*
X140160588Y-116283070D01*
X140160586Y-116283072D01*
X140116859Y-116343256D01*
X140058768Y-116423211D01*
X139980128Y-116577552D01*
X139926597Y-116742302D01*
X139899500Y-116913389D01*
X132000000Y-116913389D01*
X132000000Y-114950097D01*
X153349500Y-114950097D01*
X153349500Y-115209902D01*
X153390140Y-115466493D01*
X153470422Y-115713576D01*
X153551534Y-115872764D01*
X153588366Y-115945051D01*
X153741069Y-116155229D01*
X153924771Y-116338931D01*
X154134949Y-116491634D01*
X154282445Y-116566787D01*
X154366423Y-116609577D01*
X154366425Y-116609577D01*
X154366428Y-116609579D01*
X154613507Y-116689860D01*
X154745706Y-116710797D01*
X154870098Y-116730500D01*
X154870103Y-116730500D01*
X155129902Y-116730500D01*
X155243298Y-116712539D01*
X155386493Y-116689860D01*
X155633572Y-116609579D01*
X155865051Y-116491634D01*
X156075229Y-116338931D01*
X156258931Y-116155229D01*
X156411634Y-115945051D01*
X156529579Y-115713572D01*
X156609860Y-115466493D01*
X156632539Y-115323298D01*
X156650500Y-115209902D01*
X156650500Y-114950097D01*
X156628947Y-114814021D01*
X156609860Y-114693507D01*
X156529579Y-114446428D01*
X156529577Y-114446425D01*
X156529577Y-114446423D01*
X156486787Y-114362445D01*
X156411634Y-114214949D01*
X156258931Y-114004771D01*
X156075229Y-113821069D01*
X155865051Y-113668366D01*
X155792764Y-113631534D01*
X155633576Y-113550422D01*
X155386493Y-113470140D01*
X155129902Y-113429500D01*
X155129897Y-113429500D01*
X154870103Y-113429500D01*
X154870098Y-113429500D01*
X154613506Y-113470140D01*
X154366423Y-113550422D01*
X154134945Y-113668368D01*
X153924774Y-113821066D01*
X153924768Y-113821071D01*
X153741071Y-114004768D01*
X153741066Y-114004774D01*
X153588368Y-114214945D01*
X153470422Y-114446423D01*
X153390140Y-114693506D01*
X153349500Y-114950097D01*
X132000000Y-114950097D01*
X132000000Y-110990097D01*
X153349500Y-110990097D01*
X153349500Y-111249902D01*
X153390140Y-111506493D01*
X153470422Y-111753576D01*
X153551534Y-111912764D01*
X153588366Y-111985051D01*
X153741069Y-112195229D01*
X153924771Y-112378931D01*
X154134949Y-112531634D01*
X154282445Y-112606787D01*
X154366423Y-112649577D01*
X154366425Y-112649577D01*
X154366428Y-112649579D01*
X154613507Y-112729860D01*
X154745706Y-112750797D01*
X154870098Y-112770500D01*
X154870103Y-112770500D01*
X155129902Y-112770500D01*
X155243298Y-112752539D01*
X155386493Y-112729860D01*
X155633572Y-112649579D01*
X155865051Y-112531634D01*
X156075229Y-112378931D01*
X156258931Y-112195229D01*
X156411634Y-111985051D01*
X156529579Y-111753572D01*
X156609860Y-111506493D01*
X156632539Y-111363298D01*
X156650500Y-111249902D01*
X156650500Y-110990097D01*
X156628947Y-110854021D01*
X156609860Y-110733507D01*
X156529579Y-110486428D01*
X156529577Y-110486425D01*
X156529577Y-110486423D01*
X156486787Y-110402445D01*
X156411634Y-110254949D01*
X156258931Y-110044771D01*
X156075229Y-109861069D01*
X155865051Y-109708366D01*
X155792764Y-109671534D01*
X155633576Y-109590422D01*
X155386493Y-109510140D01*
X155129902Y-109469500D01*
X155129897Y-109469500D01*
X154870103Y-109469500D01*
X154870098Y-109469500D01*
X154613506Y-109510140D01*
X154366423Y-109590422D01*
X154134945Y-109708368D01*
X153924774Y-109861066D01*
X153924768Y-109861071D01*
X153741071Y-110044768D01*
X153741066Y-110044774D01*
X153588368Y-110254945D01*
X153470422Y-110486423D01*
X153390140Y-110733506D01*
X153349500Y-110990097D01*
X132000000Y-110990097D01*
X132000000Y-103374038D01*
X159899500Y-103374038D01*
X159899500Y-103625961D01*
X159938910Y-103874785D01*
X160016760Y-104114383D01*
X160131132Y-104338848D01*
X160279201Y-104542649D01*
X160279205Y-104542654D01*
X160457345Y-104720794D01*
X160457350Y-104720798D01*
X160635117Y-104849952D01*
X160661155Y-104868870D01*
X160804184Y-104941747D01*
X160885616Y-104983239D01*
X160885618Y-104983239D01*
X160885621Y-104983241D01*
X161125215Y-105061090D01*
X161374038Y-105100500D01*
X161374039Y-105100500D01*
X161625961Y-105100500D01*
X161625962Y-105100500D01*
X161874785Y-105061090D01*
X162114379Y-104983241D01*
X162338845Y-104868870D01*
X162542656Y-104720793D01*
X162720793Y-104542656D01*
X162868870Y-104338845D01*
X162983241Y-104114379D01*
X163061090Y-103874785D01*
X163100500Y-103625962D01*
X163100500Y-103374038D01*
X163061090Y-103125215D01*
X162983241Y-102885621D01*
X162983239Y-102885618D01*
X162983239Y-102885616D01*
X162941747Y-102804184D01*
X162868870Y-102661155D01*
X162849952Y-102635117D01*
X162720798Y-102457350D01*
X162720794Y-102457345D01*
X162542654Y-102279205D01*
X162542649Y-102279201D01*
X162338848Y-102131132D01*
X162338847Y-102131131D01*
X162338845Y-102131130D01*
X162268747Y-102095413D01*
X162114383Y-102016760D01*
X161874785Y-101938910D01*
X161625962Y-101899500D01*
X161374038Y-101899500D01*
X161249626Y-101919205D01*
X161125214Y-101938910D01*
X160885616Y-102016760D01*
X160661151Y-102131132D01*
X160457350Y-102279201D01*
X160457345Y-102279205D01*
X160279205Y-102457345D01*
X160279201Y-102457350D01*
X160131132Y-102661151D01*
X160016760Y-102885616D01*
X159938910Y-103125214D01*
X159899500Y-103374038D01*
X132000000Y-103374038D01*
X132000000Y-100724000D01*
X132019685Y-100656961D01*
X132072489Y-100611206D01*
X132124000Y-100600000D01*
X164276000Y-100600000D01*
X164343039Y-100619685D01*
G37*
%TD.AperFunction*%
%TD*%
%TA.AperFunction,Conductor*%
%TO.N,+5V_A*%
G36*
X129943039Y-100619685D02*
G01*
X129988794Y-100672489D01*
X130000000Y-100724000D01*
X130000000Y-139276000D01*
X129980315Y-139343039D01*
X129927511Y-139388794D01*
X129876000Y-139400000D01*
X100724000Y-139400000D01*
X100656961Y-139380315D01*
X100611206Y-139327511D01*
X100600000Y-139276000D01*
X100600000Y-136374038D01*
X101899500Y-136374038D01*
X101899500Y-136625961D01*
X101938910Y-136874785D01*
X102016760Y-137114383D01*
X102131132Y-137338848D01*
X102279201Y-137542649D01*
X102279205Y-137542654D01*
X102457345Y-137720794D01*
X102457350Y-137720798D01*
X102635117Y-137849952D01*
X102661155Y-137868870D01*
X102804184Y-137941747D01*
X102885616Y-137983239D01*
X102885618Y-137983239D01*
X102885621Y-137983241D01*
X103125215Y-138061090D01*
X103374038Y-138100500D01*
X103374039Y-138100500D01*
X103625961Y-138100500D01*
X103625962Y-138100500D01*
X103874785Y-138061090D01*
X104114379Y-137983241D01*
X104338845Y-137868870D01*
X104542656Y-137720793D01*
X104720793Y-137542656D01*
X104868870Y-137338845D01*
X104983241Y-137114379D01*
X105061090Y-136874785D01*
X105100500Y-136625962D01*
X105100500Y-136374038D01*
X105061090Y-136125215D01*
X104983241Y-135885621D01*
X104983239Y-135885618D01*
X104983239Y-135885616D01*
X104941747Y-135804184D01*
X104868870Y-135661155D01*
X104849952Y-135635117D01*
X104720798Y-135457350D01*
X104720794Y-135457345D01*
X104542654Y-135279205D01*
X104542649Y-135279201D01*
X104338848Y-135131132D01*
X104338847Y-135131131D01*
X104338845Y-135131130D01*
X104268747Y-135095413D01*
X104114383Y-135016760D01*
X103874785Y-134938910D01*
X103625962Y-134899500D01*
X103374038Y-134899500D01*
X103249626Y-134919205D01*
X103125214Y-134938910D01*
X102885616Y-135016760D01*
X102661151Y-135131132D01*
X102457350Y-135279201D01*
X102457345Y-135279205D01*
X102279205Y-135457345D01*
X102279201Y-135457350D01*
X102131132Y-135661151D01*
X102016760Y-135885616D01*
X101938910Y-136125214D01*
X101899500Y-136374038D01*
X100600000Y-136374038D01*
X100600000Y-125913389D01*
X114899500Y-125913389D01*
X114899500Y-126086611D01*
X114926598Y-126257701D01*
X114980127Y-126422445D01*
X115058768Y-126576788D01*
X115160586Y-126716928D01*
X115283072Y-126839414D01*
X115423212Y-126941232D01*
X115577555Y-127019873D01*
X115742299Y-127073402D01*
X115913389Y-127100500D01*
X115913390Y-127100500D01*
X116086610Y-127100500D01*
X116086611Y-127100500D01*
X116257701Y-127073402D01*
X116422445Y-127019873D01*
X116576788Y-126941232D01*
X116716928Y-126839414D01*
X116839414Y-126716928D01*
X116941232Y-126576788D01*
X117019873Y-126422445D01*
X117073402Y-126257701D01*
X117100500Y-126086611D01*
X117100500Y-125913389D01*
X122519500Y-125913389D01*
X122519500Y-126086611D01*
X122546598Y-126257701D01*
X122600127Y-126422445D01*
X122678768Y-126576788D01*
X122780586Y-126716928D01*
X122903072Y-126839414D01*
X123043212Y-126941232D01*
X123197555Y-127019873D01*
X123362299Y-127073402D01*
X123533389Y-127100500D01*
X123533390Y-127100500D01*
X123706610Y-127100500D01*
X123706611Y-127100500D01*
X123877701Y-127073402D01*
X124042445Y-127019873D01*
X124196788Y-126941232D01*
X124336928Y-126839414D01*
X124459414Y-126716928D01*
X124561232Y-126576788D01*
X124639873Y-126422445D01*
X124693402Y-126257701D01*
X124720500Y-126086611D01*
X124720500Y-125913389D01*
X124693402Y-125742299D01*
X124639873Y-125577555D01*
X124561232Y-125423212D01*
X124459414Y-125283072D01*
X124336928Y-125160586D01*
X124196788Y-125058768D01*
X124042445Y-124980127D01*
X123877701Y-124926598D01*
X123877699Y-124926597D01*
X123877698Y-124926597D01*
X123746271Y-124905781D01*
X123706611Y-124899500D01*
X123533389Y-124899500D01*
X123493728Y-124905781D01*
X123362302Y-124926597D01*
X123197552Y-124980128D01*
X123043211Y-125058768D01*
X122963256Y-125116859D01*
X122903072Y-125160586D01*
X122903070Y-125160588D01*
X122903069Y-125160588D01*
X122780588Y-125283069D01*
X122780588Y-125283070D01*
X122780586Y-125283072D01*
X122736859Y-125343256D01*
X122678768Y-125423211D01*
X122600128Y-125577552D01*
X122546597Y-125742302D01*
X122519500Y-125913389D01*
X117100500Y-125913389D01*
X117073402Y-125742299D01*
X117019873Y-125577555D01*
X116941232Y-125423212D01*
X116839414Y-125283072D01*
X116716928Y-125160586D01*
X116576788Y-125058768D01*
X116422445Y-124980127D01*
X116257701Y-124926598D01*
X116257699Y-124926597D01*
X116257698Y-124926597D01*
X116126271Y-124905781D01*
X116086611Y-124899500D01*
X115913389Y-124899500D01*
X115873728Y-124905781D01*
X115742302Y-124926597D01*
X115577552Y-124980128D01*
X115423211Y-125058768D01*
X115343256Y-125116859D01*
X115283072Y-125160586D01*
X115283070Y-125160588D01*
X115283069Y-125160588D01*
X115160588Y-125283069D01*
X115160588Y-125283070D01*
X115160586Y-125283072D01*
X115116859Y-125343256D01*
X115058768Y-125423211D01*
X114980128Y-125577552D01*
X114926597Y-125742302D01*
X114899500Y-125913389D01*
X100600000Y-125913389D01*
X100600000Y-110990097D01*
X106349500Y-110990097D01*
X106349500Y-111249902D01*
X106390140Y-111506493D01*
X106470422Y-111753576D01*
X106551534Y-111912764D01*
X106566038Y-111941231D01*
X106588368Y-111985054D01*
X106652557Y-112073402D01*
X106741069Y-112195229D01*
X106924771Y-112378931D01*
X107134949Y-112531634D01*
X107282445Y-112606787D01*
X107366423Y-112649577D01*
X107366425Y-112649577D01*
X107366428Y-112649579D01*
X107613507Y-112729860D01*
X107745706Y-112750797D01*
X107870098Y-112770500D01*
X107870103Y-112770500D01*
X108129902Y-112770500D01*
X108243298Y-112752539D01*
X108386493Y-112729860D01*
X108633572Y-112649579D01*
X108865051Y-112531634D01*
X109075229Y-112378931D01*
X109258931Y-112195229D01*
X109411634Y-111985051D01*
X109529579Y-111753572D01*
X109532569Y-111744367D01*
X109572005Y-111686694D01*
X109636363Y-111659494D01*
X109705210Y-111671408D01*
X109756686Y-111718651D01*
X109774500Y-111782686D01*
X109774500Y-114417313D01*
X109754815Y-114484352D01*
X109702011Y-114530107D01*
X109632853Y-114540051D01*
X109569297Y-114511026D01*
X109532570Y-114455633D01*
X109529579Y-114446428D01*
X109529577Y-114446425D01*
X109529577Y-114446423D01*
X109486787Y-114362445D01*
X109411634Y-114214949D01*
X109258931Y-114004771D01*
X109075229Y-113821069D01*
X108865051Y-113668366D01*
X108792764Y-113631534D01*
X108633576Y-113550422D01*
X108386493Y-113470140D01*
X108129902Y-113429500D01*
X108129897Y-113429500D01*
X107870103Y-113429500D01*
X107870098Y-113429500D01*
X107613506Y-113470140D01*
X107366423Y-113550422D01*
X107134945Y-113668368D01*
X106924774Y-113821066D01*
X106924768Y-113821071D01*
X106741071Y-114004768D01*
X106741066Y-114004774D01*
X106588368Y-114214945D01*
X106470422Y-114446423D01*
X106390140Y-114693506D01*
X106349500Y-114950097D01*
X106349500Y-115209902D01*
X106390140Y-115466493D01*
X106470422Y-115713576D01*
X106485255Y-115742686D01*
X106588366Y-115945051D01*
X106741069Y-116155229D01*
X106924771Y-116338931D01*
X107134949Y-116491634D01*
X107229902Y-116540015D01*
X107366423Y-116609577D01*
X107366425Y-116609577D01*
X107366428Y-116609579D01*
X107438058Y-116632853D01*
X107613506Y-116689860D01*
X107618235Y-116690995D01*
X107617745Y-116693033D01*
X107672950Y-116719197D01*
X107709888Y-116778504D01*
X107708898Y-116848367D01*
X107678110Y-116899431D01*
X107619504Y-116958037D01*
X107556905Y-117066463D01*
X107524500Y-117187400D01*
X107524500Y-117368969D01*
X107504815Y-117436008D01*
X107452011Y-117481763D01*
X107438825Y-117486897D01*
X107410717Y-117496030D01*
X107366423Y-117510422D01*
X107134945Y-117628368D01*
X106924774Y-117781066D01*
X106924768Y-117781071D01*
X106741071Y-117964768D01*
X106741066Y-117964774D01*
X106588368Y-118174945D01*
X106470422Y-118406423D01*
X106390140Y-118653506D01*
X106349500Y-118910097D01*
X106349500Y-119169902D01*
X106390140Y-119426493D01*
X106470422Y-119673576D01*
X106551534Y-119832764D01*
X106588366Y-119905051D01*
X106741069Y-120115229D01*
X106924771Y-120298931D01*
X107134949Y-120451634D01*
X107264110Y-120517445D01*
X107366423Y-120569577D01*
X107366425Y-120569577D01*
X107366428Y-120569579D01*
X107613507Y-120649860D01*
X107745706Y-120670797D01*
X107870098Y-120690500D01*
X107870103Y-120690500D01*
X108129902Y-120690500D01*
X108248042Y-120671788D01*
X108386493Y-120649860D01*
X108633572Y-120569579D01*
X108865051Y-120451634D01*
X109075229Y-120298931D01*
X109258931Y-120115229D01*
X109336555Y-120008389D01*
X123899500Y-120008389D01*
X123899500Y-120181610D01*
X123918081Y-120298931D01*
X123926598Y-120352701D01*
X123980127Y-120517445D01*
X124058768Y-120671788D01*
X124160586Y-120811928D01*
X124283072Y-120934414D01*
X124423212Y-121036232D01*
X124577555Y-121114873D01*
X124742299Y-121168402D01*
X124913389Y-121195500D01*
X124913390Y-121195500D01*
X125086610Y-121195500D01*
X125086611Y-121195500D01*
X125257701Y-121168402D01*
X125422445Y-121114873D01*
X125576788Y-121036232D01*
X125716928Y-120934414D01*
X125839414Y-120811928D01*
X125941232Y-120671788D01*
X126019873Y-120517445D01*
X126073402Y-120352701D01*
X126100500Y-120181611D01*
X126100500Y-120008389D01*
X126073402Y-119837299D01*
X126019873Y-119672555D01*
X125941232Y-119518212D01*
X125839414Y-119378072D01*
X125716928Y-119255586D01*
X125576788Y-119153768D01*
X125422445Y-119075127D01*
X125257701Y-119021598D01*
X125257699Y-119021597D01*
X125257698Y-119021597D01*
X125126271Y-119000781D01*
X125086611Y-118994500D01*
X124913389Y-118994500D01*
X124873728Y-119000781D01*
X124742302Y-119021597D01*
X124577552Y-119075128D01*
X124423211Y-119153768D01*
X124343256Y-119211859D01*
X124283072Y-119255586D01*
X124283070Y-119255588D01*
X124283069Y-119255588D01*
X124160588Y-119378069D01*
X124160588Y-119378070D01*
X124160586Y-119378072D01*
X124125406Y-119426493D01*
X124058768Y-119518211D01*
X123980128Y-119672552D01*
X123926597Y-119837302D01*
X123899500Y-120008389D01*
X109336555Y-120008389D01*
X109411634Y-119905051D01*
X109529579Y-119673572D01*
X109609860Y-119426493D01*
X109636928Y-119255588D01*
X109650500Y-119169902D01*
X109650500Y-118910097D01*
X109628947Y-118774021D01*
X109609860Y-118653507D01*
X109529579Y-118406428D01*
X109529577Y-118406425D01*
X109529577Y-118406423D01*
X109486787Y-118322445D01*
X109411634Y-118174949D01*
X109258931Y-117964771D01*
X109231341Y-117937181D01*
X109197856Y-117875858D01*
X109202840Y-117806166D01*
X109244712Y-117750233D01*
X109310176Y-117725816D01*
X109319022Y-117725500D01*
X110312599Y-117725500D01*
X110312601Y-117725500D01*
X110433536Y-117693095D01*
X110541964Y-117630495D01*
X110630495Y-117541964D01*
X110693095Y-117433536D01*
X110725500Y-117312601D01*
X110725500Y-116937399D01*
X110725500Y-116687399D01*
X110725500Y-116437399D01*
X110725500Y-116187399D01*
X110725500Y-115937399D01*
X110725500Y-115687399D01*
X110725500Y-115437399D01*
X110725500Y-115187399D01*
X110725500Y-114937399D01*
X110725500Y-114687399D01*
X110725500Y-114437399D01*
X110725500Y-114187399D01*
X110725500Y-113937399D01*
X110725500Y-113687399D01*
X110725500Y-113437399D01*
X110725500Y-113187399D01*
X110725500Y-112937399D01*
X110725500Y-112687399D01*
X110725500Y-112437399D01*
X110725500Y-112187399D01*
X110725500Y-111937399D01*
X110725500Y-111687399D01*
X110725500Y-111599500D01*
X110745185Y-111532461D01*
X110797989Y-111486706D01*
X110849500Y-111475500D01*
X110937399Y-111475500D01*
X111187399Y-111475500D01*
X111437399Y-111475500D01*
X111687399Y-111475500D01*
X111937399Y-111475500D01*
X112187399Y-111475500D01*
X112437399Y-111475500D01*
X112687399Y-111475500D01*
X112937399Y-111475500D01*
X113187399Y-111475500D01*
X113437399Y-111475500D01*
X113687399Y-111475500D01*
X113937399Y-111475500D01*
X114187399Y-111475500D01*
X114437399Y-111475500D01*
X114687399Y-111475500D01*
X114931173Y-111475500D01*
X114998212Y-111495185D01*
X115041656Y-111543204D01*
X115058479Y-111576220D01*
X115058769Y-111576790D01*
X115058770Y-111576792D01*
X115075269Y-111599500D01*
X115160586Y-111716928D01*
X115283072Y-111839414D01*
X115423212Y-111941232D01*
X115577555Y-112019873D01*
X115742299Y-112073402D01*
X115913389Y-112100500D01*
X115913390Y-112100500D01*
X116086610Y-112100500D01*
X116086611Y-112100500D01*
X116257701Y-112073402D01*
X116422445Y-112019873D01*
X116576788Y-111941232D01*
X116716928Y-111839414D01*
X116839414Y-111716928D01*
X116941232Y-111576788D01*
X117019873Y-111422445D01*
X117073402Y-111257701D01*
X117100500Y-111086611D01*
X117100500Y-110913389D01*
X122519500Y-110913389D01*
X122519500Y-111086610D01*
X122545362Y-111249902D01*
X122546598Y-111257701D01*
X122600127Y-111422445D01*
X122678768Y-111576788D01*
X122780586Y-111716928D01*
X122903072Y-111839414D01*
X123043212Y-111941232D01*
X123197555Y-112019873D01*
X123362299Y-112073402D01*
X123533389Y-112100500D01*
X123533390Y-112100500D01*
X123706610Y-112100500D01*
X123706611Y-112100500D01*
X123877701Y-112073402D01*
X124042445Y-112019873D01*
X124196788Y-111941232D01*
X124336928Y-111839414D01*
X124459414Y-111716928D01*
X124561232Y-111576788D01*
X124639873Y-111422445D01*
X124693402Y-111257701D01*
X124720500Y-111086611D01*
X124720500Y-110913389D01*
X124693402Y-110742299D01*
X124639873Y-110577555D01*
X124561232Y-110423212D01*
X124459414Y-110283072D01*
X124336928Y-110160586D01*
X124196788Y-110058768D01*
X124042445Y-109980127D01*
X123877701Y-109926598D01*
X123877699Y-109926597D01*
X123877698Y-109926597D01*
X123746271Y-109905781D01*
X123706611Y-109899500D01*
X123533389Y-109899500D01*
X123493728Y-109905781D01*
X123362302Y-109926597D01*
X123197552Y-109980128D01*
X123043211Y-110058768D01*
X122963256Y-110116859D01*
X122903072Y-110160586D01*
X122903070Y-110160588D01*
X122903069Y-110160588D01*
X122780588Y-110283069D01*
X122780588Y-110283070D01*
X122780586Y-110283072D01*
X122736859Y-110343256D01*
X122678768Y-110423211D01*
X122600128Y-110577552D01*
X122546597Y-110742302D01*
X122519500Y-110913389D01*
X117100500Y-110913389D01*
X117073402Y-110742299D01*
X117019873Y-110577555D01*
X116941232Y-110423212D01*
X116839414Y-110283072D01*
X116716928Y-110160586D01*
X116576788Y-110058768D01*
X116422445Y-109980127D01*
X116257701Y-109926598D01*
X116257699Y-109926597D01*
X116257698Y-109926597D01*
X116126271Y-109905781D01*
X116086611Y-109899500D01*
X115913389Y-109899500D01*
X115873728Y-109905781D01*
X115742302Y-109926597D01*
X115577552Y-109980128D01*
X115423211Y-110058768D01*
X115343256Y-110116859D01*
X115283072Y-110160586D01*
X115283070Y-110160588D01*
X115283069Y-110160588D01*
X115160588Y-110283069D01*
X115160588Y-110283070D01*
X115160586Y-110283072D01*
X115135040Y-110318232D01*
X115058770Y-110423207D01*
X115058769Y-110423209D01*
X115053230Y-110434079D01*
X115041656Y-110456795D01*
X114993685Y-110507590D01*
X114931173Y-110524500D01*
X114812601Y-110524500D01*
X114562601Y-110524500D01*
X114312601Y-110524500D01*
X114062601Y-110524500D01*
X113812601Y-110524500D01*
X113562601Y-110524500D01*
X113312601Y-110524500D01*
X113062601Y-110524500D01*
X112812601Y-110524500D01*
X112562601Y-110524500D01*
X112312601Y-110524500D01*
X112062601Y-110524500D01*
X111812601Y-110524500D01*
X111562601Y-110524500D01*
X111312601Y-110524500D01*
X111062601Y-110524500D01*
X110812601Y-110524500D01*
X110562601Y-110524500D01*
X110312601Y-110524500D01*
X110187399Y-110524500D01*
X110106775Y-110546103D01*
X110066463Y-110556905D01*
X109958037Y-110619504D01*
X109958034Y-110619506D01*
X109869506Y-110708034D01*
X109869502Y-110708039D01*
X109837203Y-110763984D01*
X109786636Y-110812200D01*
X109718029Y-110825423D01*
X109653164Y-110799455D01*
X109612636Y-110742540D01*
X109611203Y-110737641D01*
X109609860Y-110733507D01*
X109529579Y-110486428D01*
X109529577Y-110486425D01*
X109529577Y-110486423D01*
X109425962Y-110283070D01*
X109411634Y-110254949D01*
X109258931Y-110044771D01*
X109075229Y-109861069D01*
X108865051Y-109708366D01*
X108792764Y-109671534D01*
X108633576Y-109590422D01*
X108386493Y-109510140D01*
X108129902Y-109469500D01*
X108129897Y-109469500D01*
X107870103Y-109469500D01*
X107870098Y-109469500D01*
X107613506Y-109510140D01*
X107366423Y-109590422D01*
X107134945Y-109708368D01*
X106924774Y-109861066D01*
X106924768Y-109861071D01*
X106741071Y-110044768D01*
X106741066Y-110044774D01*
X106588368Y-110254945D01*
X106470422Y-110486423D01*
X106390140Y-110733506D01*
X106349500Y-110990097D01*
X100600000Y-110990097D01*
X100600000Y-103374038D01*
X101899500Y-103374038D01*
X101899500Y-103625961D01*
X101938910Y-103874785D01*
X102016760Y-104114383D01*
X102131132Y-104338848D01*
X102279201Y-104542649D01*
X102279205Y-104542654D01*
X102457345Y-104720794D01*
X102457350Y-104720798D01*
X102635117Y-104849952D01*
X102661155Y-104868870D01*
X102804184Y-104941747D01*
X102885616Y-104983239D01*
X102885618Y-104983239D01*
X102885621Y-104983241D01*
X103125215Y-105061090D01*
X103374038Y-105100500D01*
X103374039Y-105100500D01*
X103625961Y-105100500D01*
X103625962Y-105100500D01*
X103874785Y-105061090D01*
X104114379Y-104983241D01*
X104338845Y-104868870D01*
X104542656Y-104720793D01*
X104720793Y-104542656D01*
X104868870Y-104338845D01*
X104983241Y-104114379D01*
X105061090Y-103874785D01*
X105100500Y-103625962D01*
X105100500Y-103374038D01*
X105061090Y-103125215D01*
X104983241Y-102885621D01*
X104983239Y-102885618D01*
X104983239Y-102885616D01*
X104941747Y-102804184D01*
X104868870Y-102661155D01*
X104849952Y-102635117D01*
X104720798Y-102457350D01*
X104720794Y-102457345D01*
X104542654Y-102279205D01*
X104542649Y-102279201D01*
X104338848Y-102131132D01*
X104338847Y-102131131D01*
X104338845Y-102131130D01*
X104268747Y-102095413D01*
X104114383Y-102016760D01*
X103874785Y-101938910D01*
X103625962Y-101899500D01*
X103374038Y-101899500D01*
X103249626Y-101919205D01*
X103125214Y-101938910D01*
X102885616Y-102016760D01*
X102661151Y-102131132D01*
X102457350Y-102279201D01*
X102457345Y-102279205D01*
X102279205Y-102457345D01*
X102279201Y-102457350D01*
X102131132Y-102661151D01*
X102016760Y-102885616D01*
X101938910Y-103125214D01*
X101899500Y-103374038D01*
X100600000Y-103374038D01*
X100600000Y-100724000D01*
X100619685Y-100656961D01*
X100672489Y-100611206D01*
X100724000Y-100600000D01*
X129876000Y-100600000D01*
X129943039Y-100619685D01*
G37*
%TD.AperFunction*%
%TD*%
M02*
