%TF.GenerationSoftware,KiCad,Pcbnew,10.0.7*%
%TF.CreationDate,2026-10-09T18:04:37+02:00*%
%TF.ProjectId,gpio-interface,6770696f-2d69-46e7-9465-72666163652e,C prototype*%
%TF.SameCoordinates,Original*%
%TF.FileFunction,Copper,L1,Top*%
%TF.FilePolarity,Positive*%
%FSLAX46Y46*%
G04 Gerber Fmt 4.6, Leading zero omitted, Abs format (unit mm)*
G04 Created by KiCad (PCBNEW 10.0.7) date 2026-10-09 18:04:37*
%MOMM*%
%LPD*%
G01*
G04 APERTURE LIST*
G04 Aperture macros list*
%AMRoundRect*
0 Rectangle with rounded corners*
0 $1 Rounding radius*
0 $2 $3 $4 $5 $6 $7 $8 $9 X,Y pos of 4 corners*
0 Add a 4 corners polygon primitive as box body*
4,1,4,$2,$3,$4,$5,$6,$7,$8,$9,$2,$3,0*
0 Add four circle primitives for the rounded corners*
1,1,$1+$1,$2,$3*
1,1,$1+$1,$4,$5*
1,1,$1+$1,$6,$7*
1,1,$1+$1,$8,$9*
0 Add four rect primitives between the rounded corners*
20,1,$1+$1,$2,$3,$4,$5,0*
20,1,$1+$1,$4,$5,$6,$7,0*
20,1,$1+$1,$6,$7,$8,$9,0*
20,1,$1+$1,$8,$9,$2,$3,0*%
G04 Aperture macros list end*
%TA.AperFunction,SMDPad,CuDef*%
%ADD10RoundRect,0.150000X-0.825000X-0.150000X0.825000X-0.150000X0.825000X0.150000X-0.825000X0.150000X0*%
%TD*%
%TA.AperFunction,ComponentPad*%
%ADD11C,1.600000*%
%TD*%
%TA.AperFunction,ComponentPad*%
%ADD12RoundRect,0.250001X1.099999X-1.099999X1.099999X1.099999X-1.099999X1.099999X-1.099999X-1.099999X0*%
%TD*%
%TA.AperFunction,ComponentPad*%
%ADD13C,2.700000*%
%TD*%
%TA.AperFunction,ComponentPad*%
%ADD14R,1.700000X1.700000*%
%TD*%
%TA.AperFunction,ComponentPad*%
%ADD15C,1.700000*%
%TD*%
%TA.AperFunction,ViaPad*%
%ADD16C,1.200000*%
%TD*%
%TA.AperFunction,Conductor*%
%ADD17C,0.600000*%
%TD*%
%TA.AperFunction,Conductor*%
%ADD18C,0.350000*%
%TD*%
G04 APERTURE END LIST*
D10*
%TO.P,U1,1*%
%TO.N,+3V3_PI*%
X128525000Y-86095000D03*
%TO.P,U1,2*%
%TO.N,MOSI_3V3*%
X128525000Y-87365000D03*
%TO.P,U1,3*%
%TO.N,SCLK_3V3*%
X128525000Y-88635000D03*
%TO.P,U1,4*%
%TO.N,GND_PI*%
X128525000Y-89905000D03*
%TO.P,U1,5*%
%TO.N,GND_A*%
X133475000Y-89905000D03*
%TO.P,U1,6*%
%TO.N,CLOCK_RAW*%
X133475000Y-88635000D03*
%TO.P,U1,7*%
%TO.N,DATA_RAW*%
X133475000Y-87365000D03*
%TO.P,U1,8*%
%TO.N,+5V_A*%
X133475000Y-86095000D03*
%TD*%
D11*
%TO.P,R3,1*%
%TO.N,DATA_RAW*%
X141000000Y-85000000D03*
%TO.P,R3,2*%
%TO.N,DATA_5V*%
X148620000Y-85000000D03*
%TD*%
%TO.P,R2,1*%
%TO.N,SCLK_3V3*%
X110000000Y-94000000D03*
%TO.P,R2,2*%
%TO.N,GND_PI*%
X117620000Y-94000000D03*
%TD*%
%TO.P,C1,1*%
%TO.N,+3V3_PI*%
X125000000Y-86095000D03*
%TO.P,C1,2*%
%TO.N,GND_PI*%
X125000000Y-91095000D03*
%TD*%
%TO.P,R4,1*%
%TO.N,CLOCK_RAW*%
X139000000Y-94000000D03*
%TO.P,R4,2*%
%TO.N,CLOCK_5V*%
X146620000Y-94000000D03*
%TD*%
%TO.P,C2,1*%
%TO.N,+5V_A*%
X137000000Y-86095000D03*
%TO.P,C2,2*%
%TO.N,GND_A*%
X137000000Y-91095000D03*
%TD*%
%TO.P,R1,1*%
%TO.N,MOSI_3V3*%
X110000000Y-84000000D03*
%TO.P,R1,2*%
%TO.N,GND_PI*%
X117620000Y-84000000D03*
%TD*%
D12*
%TO.P,J3,1*%
%TO.N,+5V_A*%
X155000000Y-93000000D03*
D13*
%TO.P,J3,2*%
%TO.N,DATA_5V*%
X155000000Y-89040000D03*
%TO.P,J3,3*%
%TO.N,CLOCK_5V*%
X155000000Y-85080000D03*
%TO.P,J3,4*%
%TO.N,GND_A*%
X155000000Y-81120000D03*
%TD*%
D14*
%TO.P,J1,1*%
%TO.N,+3V3_PI*%
X108370000Y-74770000D03*
D15*
%TO.P,J1,2*%
%TO.N,unconnected-(J1-Pad2)*%
X108370000Y-72230000D03*
%TO.P,J1,3*%
%TO.N,unconnected-(J1-Pad3)*%
X110910000Y-74770000D03*
%TO.P,J1,4*%
%TO.N,unconnected-(J1-Pad4)*%
X110910000Y-72230000D03*
%TO.P,J1,5*%
%TO.N,unconnected-(J1-Pad5)*%
X113450000Y-74770000D03*
%TO.P,J1,6*%
%TO.N,GND_PI*%
X113450000Y-72230000D03*
%TO.P,J1,7*%
%TO.N,unconnected-(J1-Pad7)*%
X115990000Y-74770000D03*
%TO.P,J1,8*%
%TO.N,unconnected-(J1-Pad8)*%
X115990000Y-72230000D03*
%TO.P,J1,9*%
%TO.N,unconnected-(J1-Pad9)*%
X118530000Y-74770000D03*
%TO.P,J1,10*%
%TO.N,unconnected-(J1-Pad10)*%
X118530000Y-72230000D03*
%TO.P,J1,11*%
%TO.N,unconnected-(J1-Pad11)*%
X121070000Y-74770000D03*
%TO.P,J1,12*%
%TO.N,unconnected-(J1-Pad12)*%
X121070000Y-72230000D03*
%TO.P,J1,13*%
%TO.N,unconnected-(J1-Pad13)*%
X123610000Y-74770000D03*
%TO.P,J1,14*%
%TO.N,unconnected-(J1-Pad14)*%
X123610000Y-72230000D03*
%TO.P,J1,15*%
%TO.N,unconnected-(J1-Pad15)*%
X126150000Y-74770000D03*
%TO.P,J1,16*%
%TO.N,unconnected-(J1-Pad16)*%
X126150000Y-72230000D03*
%TO.P,J1,17*%
%TO.N,unconnected-(J1-Pad17)*%
X128690000Y-74770000D03*
%TO.P,J1,18*%
%TO.N,unconnected-(J1-Pad18)*%
X128690000Y-72230000D03*
%TO.P,J1,19*%
%TO.N,MOSI_3V3*%
X131230000Y-74770000D03*
%TO.P,J1,20*%
%TO.N,unconnected-(J1-Pad20)*%
X131230000Y-72230000D03*
%TO.P,J1,21*%
%TO.N,unconnected-(J1-Pad21)*%
X133770000Y-74770000D03*
%TO.P,J1,22*%
%TO.N,unconnected-(J1-Pad22)*%
X133770000Y-72230000D03*
%TO.P,J1,23*%
%TO.N,SCLK_3V3*%
X136310000Y-74770000D03*
%TO.P,J1,24*%
%TO.N,unconnected-(J1-Pad24)*%
X136310000Y-72230000D03*
%TO.P,J1,25*%
%TO.N,unconnected-(J1-Pad25)*%
X138850000Y-74770000D03*
%TO.P,J1,26*%
%TO.N,unconnected-(J1-Pad26)*%
X138850000Y-72230000D03*
%TO.P,J1,27*%
%TO.N,unconnected-(J1-Pad27)*%
X141390000Y-74770000D03*
%TO.P,J1,28*%
%TO.N,unconnected-(J1-Pad28)*%
X141390000Y-72230000D03*
%TO.P,J1,29*%
%TO.N,unconnected-(J1-Pad29)*%
X143930000Y-74770000D03*
%TO.P,J1,30*%
%TO.N,unconnected-(J1-Pad30)*%
X143930000Y-72230000D03*
%TO.P,J1,31*%
%TO.N,unconnected-(J1-Pad31)*%
X146470000Y-74770000D03*
%TO.P,J1,32*%
%TO.N,unconnected-(J1-Pad32)*%
X146470000Y-72230000D03*
%TO.P,J1,33*%
%TO.N,unconnected-(J1-Pad33)*%
X149010000Y-74770000D03*
%TO.P,J1,34*%
%TO.N,unconnected-(J1-Pad34)*%
X149010000Y-72230000D03*
%TO.P,J1,35*%
%TO.N,unconnected-(J1-Pad35)*%
X151550000Y-74770000D03*
%TO.P,J1,36*%
%TO.N,unconnected-(J1-Pad36)*%
X151550000Y-72230000D03*
%TO.P,J1,37*%
%TO.N,unconnected-(J1-Pad37)*%
X154090000Y-74770000D03*
%TO.P,J1,38*%
%TO.N,unconnected-(J1-Pad38)*%
X154090000Y-72230000D03*
%TO.P,J1,39*%
%TO.N,unconnected-(J1-Pad39)*%
X156630000Y-74770000D03*
%TO.P,J1,40*%
%TO.N,unconnected-(J1-Pad40)*%
X156630000Y-72230000D03*
%TD*%
D16*
%TO.N,+3V3_PI*%
X126500000Y-86095000D03*
%TO.N,+5V_A*%
X135500000Y-86095000D03*
%TD*%
%TO.N,+3V3_PI*%
D17*
X128525000Y-86095000D02*
X126500000Y-86095000D01*
%TO.N,+5V_A*%
X133475000Y-86095000D02*
X135500000Y-86095000D01*
%TO.N,CLOCK_5V*%
D18*
X146500000Y-91000000D02*
X146500000Y-91250000D01*
X146500000Y-87250000D02*
X146500000Y-87500000D01*
X151750000Y-85000000D02*
X151500000Y-85000000D01*
X146500000Y-87500000D02*
X146500000Y-87750000D01*
X146500000Y-93750000D02*
X146500000Y-94000000D01*
X148500000Y-86750000D02*
X148250000Y-86750000D01*
X146500000Y-91500000D02*
X146500000Y-91750000D01*
X146500000Y-90500000D02*
X146500000Y-90750000D01*
X146500000Y-91250000D02*
X146500000Y-91500000D01*
X146500000Y-92500000D02*
X146500000Y-92750000D01*
X146500000Y-90250000D02*
X146500000Y-90500000D01*
X150000000Y-86750000D02*
X149750000Y-86750000D01*
X146500000Y-91750000D02*
X146500000Y-92000000D01*
X155000000Y-85080000D02*
X155000000Y-85000000D01*
X153000000Y-85000000D02*
X152750000Y-85000000D01*
X150750000Y-85000000D02*
X150500000Y-85000000D01*
X146500000Y-88750000D02*
X146500000Y-89000000D01*
X149500000Y-86750000D02*
X149250000Y-86750000D01*
X146500000Y-89750000D02*
X146500000Y-90000000D01*
X146750000Y-86750000D02*
X146500000Y-86750000D01*
X147000000Y-86750000D02*
X146750000Y-86750000D01*
X155000000Y-85000000D02*
X154750000Y-85000000D01*
X151500000Y-85000000D02*
X151250000Y-85000000D01*
X150250000Y-85250000D02*
X150250000Y-85500000D01*
X152750000Y-85000000D02*
X152500000Y-85000000D01*
X151000000Y-85000000D02*
X150750000Y-85000000D01*
X150250000Y-86500000D02*
X150250000Y-86750000D01*
X150250000Y-86250000D02*
X150250000Y-86500000D01*
X152500000Y-85000000D02*
X152250000Y-85000000D01*
X154250000Y-85000000D02*
X154000000Y-85000000D01*
X146500000Y-89500000D02*
X146500000Y-89750000D01*
X146500000Y-88250000D02*
X146500000Y-88500000D01*
X146500000Y-87000000D02*
X146500000Y-87250000D01*
X146500000Y-93000000D02*
X146500000Y-93250000D01*
X154750000Y-85000000D02*
X154500000Y-85000000D01*
X146500000Y-88500000D02*
X146500000Y-88750000D01*
X146500000Y-86750000D02*
X146500000Y-87000000D01*
X150250000Y-86000000D02*
X150250000Y-86250000D01*
X153750000Y-85000000D02*
X153500000Y-85000000D01*
X149000000Y-86750000D02*
X148750000Y-86750000D01*
X146500000Y-88000000D02*
X146500000Y-88250000D01*
X154500000Y-85000000D02*
X154250000Y-85000000D01*
X146500000Y-92750000D02*
X146500000Y-93000000D01*
X146500000Y-93500000D02*
X146500000Y-93750000D01*
X146500000Y-87750000D02*
X146500000Y-88000000D01*
X146500000Y-92250000D02*
X146500000Y-92500000D01*
X151250000Y-85000000D02*
X151000000Y-85000000D01*
X152250000Y-85000000D02*
X152000000Y-85000000D01*
X146500000Y-90000000D02*
X146500000Y-90250000D01*
X147500000Y-86750000D02*
X147250000Y-86750000D01*
X152000000Y-85000000D02*
X151750000Y-85000000D01*
X148750000Y-86750000D02*
X148500000Y-86750000D01*
X147750000Y-86750000D02*
X147500000Y-86750000D01*
X154000000Y-85000000D02*
X153750000Y-85000000D01*
X146500000Y-92000000D02*
X146500000Y-92250000D01*
X147250000Y-86750000D02*
X147000000Y-86750000D01*
X150250000Y-85750000D02*
X150250000Y-86000000D01*
X150250000Y-85500000D02*
X150250000Y-85750000D01*
X150250000Y-85000000D02*
X150250000Y-85250000D01*
X150250000Y-86750000D02*
X150000000Y-86750000D01*
X146500000Y-90750000D02*
X146500000Y-91000000D01*
X153500000Y-85000000D02*
X153250000Y-85000000D01*
X146500000Y-94000000D02*
X146620000Y-94000000D01*
X148250000Y-86750000D02*
X148000000Y-86750000D01*
X149750000Y-86750000D02*
X149500000Y-86750000D01*
X149250000Y-86750000D02*
X149000000Y-86750000D01*
X150500000Y-85000000D02*
X150250000Y-85000000D01*
X153250000Y-85000000D02*
X153000000Y-85000000D01*
X146500000Y-89000000D02*
X146500000Y-89250000D01*
X146500000Y-93250000D02*
X146500000Y-93500000D01*
X146500000Y-89250000D02*
X146500000Y-89500000D01*
X148000000Y-86750000D02*
X147750000Y-86750000D01*
%TO.N,CLOCK_RAW*%
X138250000Y-94000000D02*
X138000000Y-94000000D01*
X135250000Y-92500000D02*
X135250000Y-92250000D01*
X134750000Y-88750000D02*
X134500000Y-88750000D01*
X135250000Y-91500000D02*
X135250000Y-91250000D01*
X135250000Y-89250000D02*
X135250000Y-89000000D01*
X135250000Y-92250000D02*
X135250000Y-92000000D01*
X135250000Y-89750000D02*
X135250000Y-89500000D01*
X133750000Y-88750000D02*
X133500000Y-88750000D01*
X135250000Y-90000000D02*
X135250000Y-89750000D01*
X137750000Y-94000000D02*
X137500000Y-94000000D01*
X137250000Y-94000000D02*
X137000000Y-94000000D01*
X135750000Y-94000000D02*
X135500000Y-94000000D01*
X135250000Y-93500000D02*
X135250000Y-93250000D01*
X135250000Y-88750000D02*
X135000000Y-88750000D01*
X135250000Y-92750000D02*
X135250000Y-92500000D01*
X138500000Y-94000000D02*
X138250000Y-94000000D01*
X135250000Y-91750000D02*
X135250000Y-91500000D01*
X137000000Y-94000000D02*
X136750000Y-94000000D01*
X136500000Y-94000000D02*
X136250000Y-94000000D01*
X135250000Y-90250000D02*
X135250000Y-90000000D01*
X136000000Y-94000000D02*
X135750000Y-94000000D01*
X135250000Y-89000000D02*
X135250000Y-88750000D01*
X136250000Y-94000000D02*
X136000000Y-94000000D01*
X135250000Y-91250000D02*
X135250000Y-91000000D01*
X134500000Y-88750000D02*
X134250000Y-88750000D01*
X135250000Y-90750000D02*
X135250000Y-90500000D01*
X135250000Y-94000000D02*
X135250000Y-93750000D01*
X137500000Y-94000000D02*
X137250000Y-94000000D01*
X139000000Y-94000000D02*
X138750000Y-94000000D01*
X135250000Y-89500000D02*
X135250000Y-89250000D01*
X135000000Y-88750000D02*
X134750000Y-88750000D01*
X135250000Y-90500000D02*
X135250000Y-90250000D01*
X135250000Y-93000000D02*
X135250000Y-92750000D01*
X136750000Y-94000000D02*
X136500000Y-94000000D01*
X135250000Y-91000000D02*
X135250000Y-90750000D01*
X135500000Y-94000000D02*
X135250000Y-94000000D01*
X138750000Y-94000000D02*
X138500000Y-94000000D01*
X133500000Y-88750000D02*
X133475000Y-88635000D01*
X135250000Y-93750000D02*
X135250000Y-93500000D01*
X134250000Y-88750000D02*
X134000000Y-88750000D01*
X138000000Y-94000000D02*
X137750000Y-94000000D01*
X135250000Y-92000000D02*
X135250000Y-91750000D01*
X135250000Y-93250000D02*
X135250000Y-93000000D01*
X134000000Y-88750000D02*
X133750000Y-88750000D01*
%TO.N,DATA_RAW*%
X138750000Y-85000000D02*
X138750000Y-85250000D01*
X138250000Y-87750000D02*
X138000000Y-87750000D01*
X139000000Y-85000000D02*
X138750000Y-85000000D01*
X140000000Y-85000000D02*
X139750000Y-85000000D01*
X135000000Y-87500000D02*
X134750000Y-87500000D01*
X134000000Y-87500000D02*
X133750000Y-87500000D01*
X135250000Y-87750000D02*
X135250000Y-87500000D01*
X138750000Y-85250000D02*
X138750000Y-85500000D01*
X140250000Y-85000000D02*
X140000000Y-85000000D01*
X133500000Y-87500000D02*
X133500000Y-87250000D01*
X140500000Y-85000000D02*
X140250000Y-85000000D01*
X138750000Y-86500000D02*
X138750000Y-86750000D01*
X138750000Y-86000000D02*
X138750000Y-86250000D01*
X133500000Y-87250000D02*
X133475000Y-87365000D01*
X138750000Y-85750000D02*
X138750000Y-86000000D01*
X135750000Y-87750000D02*
X135500000Y-87750000D01*
X138750000Y-87500000D02*
X138750000Y-87750000D01*
X138750000Y-86250000D02*
X138750000Y-86500000D01*
X140750000Y-85000000D02*
X140500000Y-85000000D01*
X138750000Y-87000000D02*
X138750000Y-87250000D01*
X137000000Y-87750000D02*
X136750000Y-87750000D01*
X137750000Y-87750000D02*
X137500000Y-87750000D01*
X141000000Y-85000000D02*
X140750000Y-85000000D01*
X134750000Y-87500000D02*
X134500000Y-87500000D01*
X134500000Y-87500000D02*
X134250000Y-87500000D01*
X138750000Y-87750000D02*
X138500000Y-87750000D01*
X136750000Y-87750000D02*
X136500000Y-87750000D01*
X133750000Y-87500000D02*
X133500000Y-87500000D01*
X138000000Y-87750000D02*
X137750000Y-87750000D01*
X137500000Y-87750000D02*
X137250000Y-87750000D01*
X139250000Y-85000000D02*
X139000000Y-85000000D01*
X135250000Y-87500000D02*
X135000000Y-87500000D01*
X136000000Y-87750000D02*
X135750000Y-87750000D01*
X138500000Y-87750000D02*
X138250000Y-87750000D01*
X134250000Y-87500000D02*
X134000000Y-87500000D01*
X138750000Y-87250000D02*
X138750000Y-87500000D01*
X139500000Y-85000000D02*
X139250000Y-85000000D01*
X138750000Y-85500000D02*
X138750000Y-85750000D01*
X136500000Y-87750000D02*
X136250000Y-87750000D01*
X136250000Y-87750000D02*
X136000000Y-87750000D01*
X138750000Y-86750000D02*
X138750000Y-87000000D01*
X135500000Y-87750000D02*
X135250000Y-87750000D01*
X139750000Y-85000000D02*
X139500000Y-85000000D01*
X137250000Y-87750000D02*
X137000000Y-87750000D01*
%TO.N,MOSI_3V3*%
X113500000Y-87750000D02*
X113250000Y-87750000D01*
X130500000Y-86750000D02*
X130500000Y-87000000D01*
X130500000Y-83500000D02*
X130500000Y-83750000D01*
X110000000Y-85500000D02*
X110000000Y-85250000D01*
X130500000Y-84000000D02*
X130500000Y-84250000D01*
X130500000Y-76750000D02*
X130500000Y-77000000D01*
X110500000Y-87750000D02*
X110250000Y-87750000D01*
X130500000Y-77500000D02*
X130500000Y-77750000D01*
X122750000Y-87750000D02*
X122500000Y-87750000D01*
X112500000Y-87750000D02*
X112250000Y-87750000D01*
X122250000Y-87750000D02*
X122000000Y-87750000D01*
X130500000Y-85000000D02*
X130500000Y-85250000D01*
X116750000Y-87750000D02*
X116500000Y-87750000D01*
X110000000Y-87500000D02*
X110000000Y-87250000D01*
X130500000Y-81750000D02*
X130500000Y-82000000D01*
X125250000Y-87750000D02*
X125000000Y-87750000D01*
X130500000Y-86500000D02*
X130500000Y-86750000D01*
X114750000Y-87750000D02*
X114500000Y-87750000D01*
X123000000Y-87750000D02*
X122750000Y-87750000D01*
X113250000Y-87750000D02*
X113000000Y-87750000D01*
X127500000Y-87250000D02*
X127250000Y-87250000D01*
X127750000Y-87250000D02*
X127500000Y-87250000D01*
X121500000Y-87750000D02*
X121250000Y-87750000D01*
X114500000Y-87750000D02*
X114250000Y-87750000D01*
X120250000Y-87750000D02*
X120000000Y-87750000D01*
X118750000Y-87750000D02*
X118500000Y-87750000D01*
X130500000Y-85250000D02*
X130500000Y-85500000D01*
X130500000Y-74750000D02*
X130500000Y-75000000D01*
X130500000Y-75250000D02*
X130500000Y-75500000D01*
X130500000Y-80500000D02*
X130500000Y-80750000D01*
X110000000Y-86500000D02*
X110000000Y-86250000D01*
X130500000Y-75000000D02*
X130500000Y-75250000D01*
X113000000Y-87750000D02*
X112750000Y-87750000D01*
X110000000Y-85750000D02*
X110000000Y-85500000D01*
X130500000Y-76500000D02*
X130500000Y-76750000D01*
X120500000Y-87750000D02*
X120250000Y-87750000D01*
X130500000Y-86250000D02*
X130500000Y-86500000D01*
X128500000Y-87250000D02*
X128525000Y-87365000D01*
X130500000Y-75750000D02*
X130500000Y-76000000D01*
X131000000Y-74750000D02*
X130750000Y-74750000D01*
X130500000Y-87250000D02*
X130250000Y-87250000D01*
X127000000Y-87250000D02*
X126750000Y-87250000D01*
X130500000Y-83000000D02*
X130500000Y-83250000D01*
X110000000Y-87000000D02*
X110000000Y-86750000D01*
X130000000Y-87250000D02*
X129750000Y-87250000D01*
X127250000Y-87250000D02*
X127000000Y-87250000D01*
X126500000Y-87750000D02*
X126250000Y-87750000D01*
X130500000Y-76000000D02*
X130500000Y-76250000D01*
X130500000Y-81500000D02*
X130500000Y-81750000D01*
X122500000Y-87750000D02*
X122250000Y-87750000D01*
X110000000Y-86000000D02*
X110000000Y-85750000D01*
X110000000Y-86250000D02*
X110000000Y-86000000D01*
X112000000Y-87750000D02*
X111750000Y-87750000D01*
X111750000Y-87750000D02*
X111500000Y-87750000D01*
X111500000Y-87750000D02*
X111250000Y-87750000D01*
X130500000Y-82750000D02*
X130500000Y-83000000D01*
X118500000Y-87750000D02*
X118250000Y-87750000D01*
X130500000Y-78000000D02*
X130500000Y-78250000D01*
X110000000Y-84500000D02*
X110000000Y-84250000D01*
X129500000Y-87250000D02*
X129250000Y-87250000D01*
X130500000Y-79000000D02*
X130500000Y-79250000D01*
X130500000Y-79500000D02*
X130500000Y-79750000D01*
X126750000Y-87500000D02*
X126750000Y-87750000D01*
X117500000Y-87750000D02*
X117250000Y-87750000D01*
X129250000Y-87250000D02*
X129000000Y-87250000D01*
X128500000Y-87250000D02*
X128250000Y-87250000D01*
X120750000Y-87750000D02*
X120500000Y-87750000D01*
X130500000Y-78500000D02*
X130500000Y-78750000D01*
X130500000Y-82500000D02*
X130500000Y-82750000D01*
X117750000Y-87750000D02*
X117500000Y-87750000D01*
X121750000Y-87750000D02*
X121500000Y-87750000D01*
X130500000Y-84750000D02*
X130500000Y-85000000D01*
X126250000Y-87750000D02*
X126000000Y-87750000D01*
X115500000Y-87750000D02*
X115250000Y-87750000D01*
X130500000Y-78750000D02*
X130500000Y-79000000D01*
X117250000Y-87750000D02*
X117000000Y-87750000D01*
X129000000Y-87250000D02*
X128750000Y-87250000D01*
X130500000Y-80750000D02*
X130500000Y-81000000D01*
X125750000Y-87750000D02*
X125500000Y-87750000D01*
X115250000Y-87750000D02*
X115000000Y-87750000D01*
X119750000Y-87750000D02*
X119500000Y-87750000D01*
X130750000Y-74750000D02*
X130500000Y-74750000D01*
X119000000Y-87750000D02*
X118750000Y-87750000D01*
X124000000Y-87750000D02*
X123750000Y-87750000D01*
X126000000Y-87750000D02*
X125750000Y-87750000D01*
X110000000Y-85000000D02*
X110000000Y-84750000D01*
X124250000Y-87750000D02*
X124000000Y-87750000D01*
X130500000Y-82250000D02*
X130500000Y-82500000D01*
X118250000Y-87750000D02*
X118000000Y-87750000D01*
X126750000Y-87250000D02*
X126750000Y-87500000D01*
X115000000Y-87750000D02*
X114750000Y-87750000D01*
X114250000Y-87750000D02*
X114000000Y-87750000D01*
X131250000Y-74750000D02*
X131000000Y-74750000D01*
X130500000Y-76250000D02*
X130500000Y-76500000D01*
X130500000Y-78250000D02*
X130500000Y-78500000D01*
X130500000Y-80250000D02*
X130500000Y-80500000D01*
X119250000Y-87750000D02*
X119000000Y-87750000D01*
X110000000Y-84750000D02*
X110000000Y-84500000D01*
X121250000Y-87750000D02*
X121000000Y-87750000D01*
X130500000Y-82000000D02*
X130500000Y-82250000D01*
X123750000Y-87750000D02*
X123500000Y-87750000D01*
X130500000Y-81250000D02*
X130500000Y-81500000D01*
X114000000Y-87750000D02*
X113750000Y-87750000D01*
X130500000Y-80000000D02*
X130500000Y-80250000D01*
X130500000Y-81000000D02*
X130500000Y-81250000D01*
X130250000Y-87250000D02*
X130000000Y-87250000D01*
X124750000Y-87750000D02*
X124500000Y-87750000D01*
X110000000Y-87250000D02*
X110000000Y-87000000D01*
X120000000Y-87750000D02*
X119750000Y-87750000D01*
X125500000Y-87750000D02*
X125250000Y-87750000D01*
X128525000Y-87365000D02*
X128500000Y-87250000D01*
X129750000Y-87250000D02*
X129500000Y-87250000D01*
X116500000Y-87750000D02*
X116250000Y-87750000D01*
X121000000Y-87750000D02*
X120750000Y-87750000D01*
X130500000Y-85500000D02*
X130500000Y-85750000D01*
X111000000Y-87750000D02*
X110750000Y-87750000D01*
X115750000Y-87750000D02*
X115500000Y-87750000D01*
X130500000Y-77750000D02*
X130500000Y-78000000D01*
X128000000Y-87250000D02*
X127750000Y-87250000D01*
X111250000Y-87750000D02*
X111000000Y-87750000D01*
X131229999Y-74770000D02*
X131250000Y-74750000D01*
X110250000Y-87750000D02*
X110000000Y-87750000D01*
X125000000Y-87750000D02*
X124750000Y-87750000D01*
X116000000Y-87750000D02*
X115750000Y-87750000D01*
X110000000Y-85250000D02*
X110000000Y-85000000D01*
X110000000Y-86750000D02*
X110000000Y-86500000D01*
X126750000Y-87750000D02*
X126500000Y-87750000D01*
X130500000Y-84250000D02*
X130500000Y-84500000D01*
X130500000Y-83750000D02*
X130500000Y-84000000D01*
X113750000Y-87750000D02*
X113500000Y-87750000D01*
X112250000Y-87750000D02*
X112000000Y-87750000D01*
X130500000Y-75500000D02*
X130500000Y-75750000D01*
X122000000Y-87750000D02*
X121750000Y-87750000D01*
X116250000Y-87750000D02*
X116000000Y-87750000D01*
X118000000Y-87750000D02*
X117750000Y-87750000D01*
X119500000Y-87750000D02*
X119250000Y-87750000D01*
X130500000Y-85750000D02*
X130500000Y-86000000D01*
X130500000Y-86000000D02*
X130500000Y-86250000D01*
X130500000Y-77000000D02*
X130500000Y-77250000D01*
X110000000Y-84250000D02*
X110000000Y-84000000D01*
X130500000Y-79250000D02*
X130500000Y-79500000D01*
X123250000Y-87750000D02*
X123000000Y-87750000D01*
X117000000Y-87750000D02*
X116750000Y-87750000D01*
X130500000Y-84500000D02*
X130500000Y-84750000D01*
X110000000Y-87750000D02*
X110000000Y-87500000D01*
X130500000Y-87000000D02*
X130500000Y-87250000D01*
X128750000Y-87250000D02*
X128500000Y-87250000D01*
X130500000Y-79750000D02*
X130500000Y-80000000D01*
X130500000Y-83250000D02*
X130500000Y-83500000D01*
X123500000Y-87750000D02*
X123250000Y-87750000D01*
X130500000Y-77250000D02*
X130500000Y-77500000D01*
X128250000Y-87250000D02*
X128000000Y-87250000D01*
X124500000Y-87750000D02*
X124250000Y-87750000D01*
X112750000Y-87750000D02*
X112500000Y-87750000D01*
X110750000Y-87750000D02*
X110500000Y-87750000D01*
%TO.N,SCLK_3V3*%
X129500000Y-88500000D02*
X129250000Y-88500000D01*
X131250000Y-87250000D02*
X131250000Y-87500000D01*
X134000000Y-76500000D02*
X133750000Y-76500000D01*
X122500000Y-88750000D02*
X122250000Y-88750000D01*
X119750000Y-88750000D02*
X119500000Y-88750000D01*
X131250000Y-78750000D02*
X131250000Y-79000000D01*
X129750000Y-88500000D02*
X129500000Y-88500000D01*
X120750000Y-88750000D02*
X120500000Y-88750000D01*
X131500000Y-76500000D02*
X131250000Y-76500000D01*
X125250000Y-88750000D02*
X125000000Y-88750000D01*
X111000000Y-88750000D02*
X110750000Y-88750000D01*
X116500000Y-88750000D02*
X116250000Y-88750000D01*
X117000000Y-88750000D02*
X116750000Y-88750000D01*
X131250000Y-87000000D02*
X131250000Y-87250000D01*
X133750000Y-76500000D02*
X133500000Y-76500000D01*
X131750000Y-76500000D02*
X131500000Y-76500000D01*
X123500000Y-88750000D02*
X123250000Y-88750000D01*
X116250000Y-88750000D02*
X116000000Y-88750000D01*
X128250000Y-88750000D02*
X128000000Y-88750000D01*
X131250000Y-84500000D02*
X131250000Y-84750000D01*
X131250000Y-82250000D02*
X131250000Y-82500000D01*
X131250000Y-83500000D02*
X131250000Y-83750000D01*
X113750000Y-88750000D02*
X113500000Y-88750000D01*
X115250000Y-88750000D02*
X115000000Y-88750000D01*
X131250000Y-77000000D02*
X131250000Y-77250000D01*
X131250000Y-81750000D02*
X131250000Y-82000000D01*
X131250000Y-87500000D02*
X131250000Y-87750000D01*
X110000000Y-90250000D02*
X110000000Y-90500000D01*
X112250000Y-88750000D02*
X112000000Y-88750000D01*
X135000000Y-76500000D02*
X134750000Y-76500000D01*
X110000000Y-92250000D02*
X110000000Y-92500000D01*
X129250000Y-88500000D02*
X129000000Y-88500000D01*
X132500000Y-76500000D02*
X132250000Y-76500000D01*
X130000000Y-88500000D02*
X129750000Y-88500000D01*
X110000000Y-91250000D02*
X110000000Y-91500000D01*
X110500000Y-88750000D02*
X110250000Y-88750000D01*
X135500000Y-76000000D02*
X135500000Y-76250000D01*
X121750000Y-88750000D02*
X121500000Y-88750000D01*
X131250000Y-81250000D02*
X131250000Y-81500000D01*
X131250000Y-82000000D02*
X131250000Y-82250000D01*
X121250000Y-88750000D02*
X121000000Y-88750000D01*
X131250000Y-85500000D02*
X131250000Y-85750000D01*
X110000000Y-90750000D02*
X110000000Y-91000000D01*
X131250000Y-80500000D02*
X131250000Y-80750000D01*
X132750000Y-76500000D02*
X132500000Y-76500000D01*
X136000000Y-74750000D02*
X135750000Y-74750000D01*
X131250000Y-79500000D02*
X131250000Y-79750000D01*
X131250000Y-80250000D02*
X131250000Y-80500000D01*
X120000000Y-88750000D02*
X119750000Y-88750000D01*
X131250000Y-84250000D02*
X131250000Y-84500000D01*
X121500000Y-88750000D02*
X121250000Y-88750000D01*
X110000000Y-91750000D02*
X110000000Y-92000000D01*
X131250000Y-83000000D02*
X131250000Y-83250000D01*
X136310000Y-74770000D02*
X136250000Y-74750000D01*
X135250000Y-76500000D02*
X135000000Y-76500000D01*
X133250000Y-76500000D02*
X133000000Y-76500000D01*
X110000000Y-89000000D02*
X110000000Y-89250000D01*
X131250000Y-85250000D02*
X131250000Y-85500000D01*
X129000000Y-88500000D02*
X128750000Y-88500000D01*
X126500000Y-88750000D02*
X126250000Y-88750000D01*
X123000000Y-88750000D02*
X122750000Y-88750000D01*
X124500000Y-88750000D02*
X124250000Y-88750000D01*
X132250000Y-76500000D02*
X132000000Y-76500000D01*
X128500000Y-88750000D02*
X128525000Y-88635000D01*
X131250000Y-79000000D02*
X131250000Y-79250000D01*
X120250000Y-88750000D02*
X120000000Y-88750000D01*
X110250000Y-88750000D02*
X110000000Y-88750000D01*
X118000000Y-88750000D02*
X117750000Y-88750000D01*
X110000000Y-89500000D02*
X110000000Y-89750000D01*
X131250000Y-78000000D02*
X131250000Y-78250000D01*
X110000000Y-92000000D02*
X110000000Y-92250000D01*
X128500000Y-88750000D02*
X128250000Y-88750000D01*
X131250000Y-76500000D02*
X131250000Y-76750000D01*
X114750000Y-88750000D02*
X114500000Y-88750000D01*
X131250000Y-77250000D02*
X131250000Y-77500000D01*
X131250000Y-83250000D02*
X131250000Y-83500000D01*
X132000000Y-76500000D02*
X131750000Y-76500000D01*
X114500000Y-88750000D02*
X114250000Y-88750000D01*
X131250000Y-84750000D02*
X131250000Y-85000000D01*
X127500000Y-88750000D02*
X127250000Y-88750000D01*
X112000000Y-88750000D02*
X111750000Y-88750000D01*
X130500000Y-88000000D02*
X130500000Y-88250000D01*
X110000000Y-90500000D02*
X110000000Y-90750000D01*
X123250000Y-88750000D02*
X123000000Y-88750000D01*
X119000000Y-88750000D02*
X118750000Y-88750000D01*
X134500000Y-76500000D02*
X134250000Y-76500000D01*
X133000000Y-76500000D02*
X132750000Y-76500000D01*
X131250000Y-78250000D02*
X131250000Y-78500000D01*
X119250000Y-88750000D02*
X119000000Y-88750000D01*
X130250000Y-88500000D02*
X130000000Y-88500000D01*
X118750000Y-88750000D02*
X118500000Y-88750000D01*
X112500000Y-88750000D02*
X112250000Y-88750000D01*
X122750000Y-88750000D02*
X122500000Y-88750000D01*
X123750000Y-88750000D02*
X123500000Y-88750000D01*
X113500000Y-88750000D02*
X113250000Y-88750000D01*
X112750000Y-88750000D02*
X112500000Y-88750000D01*
X110000000Y-91000000D02*
X110000000Y-91250000D01*
X114250000Y-88750000D02*
X114000000Y-88750000D01*
X134250000Y-76500000D02*
X134000000Y-76500000D01*
X116000000Y-88750000D02*
X115750000Y-88750000D01*
X124250000Y-88750000D02*
X124000000Y-88750000D01*
X135500000Y-74750000D02*
X135500000Y-75000000D01*
X110000000Y-93750000D02*
X110000000Y-94000000D01*
X131250000Y-85000000D02*
X131250000Y-85250000D01*
X131250000Y-86500000D02*
X131250000Y-86750000D01*
X135500000Y-75500000D02*
X135500000Y-75750000D01*
X135500000Y-76500000D02*
X135250000Y-76500000D01*
X131250000Y-82750000D02*
X131250000Y-83000000D01*
X131000000Y-87750000D02*
X131000000Y-88000000D01*
X136250000Y-74750000D02*
X136000000Y-74750000D01*
X125500000Y-88750000D02*
X125250000Y-88750000D01*
X131250000Y-87750000D02*
X131000000Y-87750000D01*
X127000000Y-88750000D02*
X126750000Y-88750000D01*
X110000000Y-89250000D02*
X110000000Y-89500000D01*
X126000000Y-88750000D02*
X125750000Y-88750000D01*
X110000000Y-89750000D02*
X110000000Y-90000000D01*
X131000000Y-88000000D02*
X130750000Y-88000000D01*
X135500000Y-75750000D02*
X135500000Y-76000000D01*
X121000000Y-88750000D02*
X120750000Y-88750000D01*
X128000000Y-88750000D02*
X127750000Y-88750000D01*
X130500000Y-88500000D02*
X130250000Y-88500000D01*
X131250000Y-77500000D02*
X131250000Y-77750000D01*
X131250000Y-83750000D02*
X131250000Y-84000000D01*
X126750000Y-88750000D02*
X126500000Y-88750000D01*
X131250000Y-79750000D02*
X131250000Y-80000000D01*
X124750000Y-88750000D02*
X124500000Y-88750000D01*
X116750000Y-88750000D02*
X116500000Y-88750000D01*
X118500000Y-88750000D02*
X118250000Y-88750000D01*
X134750000Y-76500000D02*
X134500000Y-76500000D01*
X120500000Y-88750000D02*
X120250000Y-88750000D01*
X111500000Y-88750000D02*
X111250000Y-88750000D01*
X110000000Y-93250000D02*
X110000000Y-93500000D01*
X113250000Y-88750000D02*
X113000000Y-88750000D01*
X122000000Y-88750000D02*
X121750000Y-88750000D01*
X131250000Y-77750000D02*
X131250000Y-78000000D01*
X110000000Y-93000000D02*
X110000000Y-93250000D01*
X110000000Y-92500000D02*
X110000000Y-92750000D01*
X125750000Y-88750000D02*
X125500000Y-88750000D01*
X131250000Y-79250000D02*
X131250000Y-79500000D01*
X135750000Y-74750000D02*
X135500000Y-74750000D01*
X115000000Y-88750000D02*
X114750000Y-88750000D01*
X115750000Y-88750000D02*
X115500000Y-88750000D01*
X131250000Y-80000000D02*
X131250000Y-80250000D01*
X131250000Y-81000000D02*
X131250000Y-81250000D01*
X127750000Y-88750000D02*
X127500000Y-88750000D01*
X118250000Y-88750000D02*
X118000000Y-88750000D01*
X131250000Y-78500000D02*
X131250000Y-78750000D01*
X113000000Y-88750000D02*
X112750000Y-88750000D01*
X117250000Y-88750000D02*
X117000000Y-88750000D01*
X115500000Y-88750000D02*
X115250000Y-88750000D01*
X131250000Y-86000000D02*
X131250000Y-86250000D01*
X126250000Y-88750000D02*
X126000000Y-88750000D01*
X131250000Y-86250000D02*
X131250000Y-86500000D01*
X130750000Y-88000000D02*
X130500000Y-88000000D01*
X131250000Y-84000000D02*
X131250000Y-84250000D01*
X133500000Y-76500000D02*
X133250000Y-76500000D01*
X135500000Y-76250000D02*
X135500000Y-76500000D01*
X131250000Y-76750000D02*
X131250000Y-77000000D01*
X110000000Y-93500000D02*
X110000000Y-93750000D01*
X119500000Y-88750000D02*
X119250000Y-88750000D01*
X114000000Y-88750000D02*
X113750000Y-88750000D01*
X130500000Y-88250000D02*
X130500000Y-88500000D01*
X128750000Y-88500000D02*
X128500000Y-88500000D01*
X111250000Y-88750000D02*
X111000000Y-88750000D01*
X131250000Y-82500000D02*
X131250000Y-82750000D01*
X124000000Y-88750000D02*
X123750000Y-88750000D01*
X131250000Y-86750000D02*
X131250000Y-87000000D01*
X110000000Y-91500000D02*
X110000000Y-91750000D01*
X110000000Y-90000000D02*
X110000000Y-90250000D01*
X135500000Y-75250000D02*
X135500000Y-75500000D01*
X127250000Y-88750000D02*
X127000000Y-88750000D01*
X135500000Y-75000000D02*
X135500000Y-75250000D01*
X122250000Y-88750000D02*
X122000000Y-88750000D01*
X128525000Y-88635000D02*
X128500000Y-88750000D01*
X110000000Y-92750000D02*
X110000000Y-93000000D01*
X111750000Y-88750000D02*
X111500000Y-88750000D01*
X117750000Y-88750000D02*
X117500000Y-88750000D01*
X128500000Y-88500000D02*
X128500000Y-88750000D01*
X110750000Y-88750000D02*
X110500000Y-88750000D01*
X125000000Y-88750000D02*
X124750000Y-88750000D01*
X110000000Y-88750000D02*
X110000000Y-89000000D01*
X131250000Y-85750000D02*
X131250000Y-86000000D01*
X131250000Y-81500000D02*
X131250000Y-81750000D01*
X131250000Y-80750000D02*
X131250000Y-81000000D01*
X117500000Y-88750000D02*
X117250000Y-88750000D01*
%TD*%
%TA.AperFunction,Conductor*%
%TO.N,GND_PI*%
G36*
X129943039Y-70619685D02*
G01*
X129988794Y-70672489D01*
X130000000Y-70724000D01*
X130000000Y-71755760D01*
X129980315Y-71822799D01*
X129927511Y-71868554D01*
X129858353Y-71878498D01*
X129794797Y-71849473D01*
X129758069Y-71794079D01*
X129757750Y-71793098D01*
X129756211Y-71788361D01*
X129756210Y-71788360D01*
X129756211Y-71788360D01*
X129727740Y-71732484D01*
X129673996Y-71627006D01*
X129660396Y-71608287D01*
X129567558Y-71480505D01*
X129567554Y-71480500D01*
X129439499Y-71352445D01*
X129439494Y-71352441D01*
X129292997Y-71246006D01*
X129292996Y-71246005D01*
X129292994Y-71246004D01*
X129241300Y-71219664D01*
X129131639Y-71163788D01*
X129131636Y-71163787D01*
X128959410Y-71107829D01*
X128780551Y-71079500D01*
X128780546Y-71079500D01*
X128599454Y-71079500D01*
X128599449Y-71079500D01*
X128420589Y-71107829D01*
X128248363Y-71163787D01*
X128248360Y-71163788D01*
X128087002Y-71246006D01*
X127940505Y-71352441D01*
X127940500Y-71352445D01*
X127812445Y-71480500D01*
X127812441Y-71480505D01*
X127706006Y-71627002D01*
X127623788Y-71788360D01*
X127623787Y-71788363D01*
X127567829Y-71960589D01*
X127542473Y-72120678D01*
X127512544Y-72183813D01*
X127453232Y-72220744D01*
X127383369Y-72219746D01*
X127325137Y-72181136D01*
X127297527Y-72120678D01*
X127281067Y-72016759D01*
X127272171Y-71960591D01*
X127236067Y-71849473D01*
X127216212Y-71788363D01*
X127216211Y-71788360D01*
X127187740Y-71732484D01*
X127133996Y-71627006D01*
X127120396Y-71608287D01*
X127027558Y-71480505D01*
X127027554Y-71480500D01*
X126899499Y-71352445D01*
X126899494Y-71352441D01*
X126752997Y-71246006D01*
X126752996Y-71246005D01*
X126752994Y-71246004D01*
X126701300Y-71219664D01*
X126591639Y-71163788D01*
X126591636Y-71163787D01*
X126419410Y-71107829D01*
X126240551Y-71079500D01*
X126240546Y-71079500D01*
X126059454Y-71079500D01*
X126059449Y-71079500D01*
X125880589Y-71107829D01*
X125708363Y-71163787D01*
X125708360Y-71163788D01*
X125547002Y-71246006D01*
X125400505Y-71352441D01*
X125400500Y-71352445D01*
X125272445Y-71480500D01*
X125272441Y-71480505D01*
X125166006Y-71627002D01*
X125083788Y-71788360D01*
X125083787Y-71788363D01*
X125027829Y-71960589D01*
X125002473Y-72120678D01*
X124972544Y-72183813D01*
X124913232Y-72220744D01*
X124843369Y-72219746D01*
X124785137Y-72181136D01*
X124757527Y-72120678D01*
X124741067Y-72016759D01*
X124732171Y-71960591D01*
X124696067Y-71849473D01*
X124676212Y-71788363D01*
X124676211Y-71788360D01*
X124647740Y-71732484D01*
X124593996Y-71627006D01*
X124580396Y-71608287D01*
X124487558Y-71480505D01*
X124487554Y-71480500D01*
X124359499Y-71352445D01*
X124359494Y-71352441D01*
X124212997Y-71246006D01*
X124212996Y-71246005D01*
X124212994Y-71246004D01*
X124161300Y-71219664D01*
X124051639Y-71163788D01*
X124051636Y-71163787D01*
X123879410Y-71107829D01*
X123700551Y-71079500D01*
X123700546Y-71079500D01*
X123519454Y-71079500D01*
X123519449Y-71079500D01*
X123340589Y-71107829D01*
X123168363Y-71163787D01*
X123168360Y-71163788D01*
X123007002Y-71246006D01*
X122860505Y-71352441D01*
X122860500Y-71352445D01*
X122732445Y-71480500D01*
X122732441Y-71480505D01*
X122626006Y-71627002D01*
X122543788Y-71788360D01*
X122543787Y-71788363D01*
X122487829Y-71960589D01*
X122462473Y-72120678D01*
X122432544Y-72183813D01*
X122373232Y-72220744D01*
X122303369Y-72219746D01*
X122245137Y-72181136D01*
X122217527Y-72120678D01*
X122201067Y-72016759D01*
X122192171Y-71960591D01*
X122156067Y-71849473D01*
X122136212Y-71788363D01*
X122136211Y-71788360D01*
X122107740Y-71732484D01*
X122053996Y-71627006D01*
X122040396Y-71608287D01*
X121947558Y-71480505D01*
X121947554Y-71480500D01*
X121819499Y-71352445D01*
X121819494Y-71352441D01*
X121672997Y-71246006D01*
X121672996Y-71246005D01*
X121672994Y-71246004D01*
X121621300Y-71219664D01*
X121511639Y-71163788D01*
X121511636Y-71163787D01*
X121339410Y-71107829D01*
X121160551Y-71079500D01*
X121160546Y-71079500D01*
X120979454Y-71079500D01*
X120979449Y-71079500D01*
X120800589Y-71107829D01*
X120628363Y-71163787D01*
X120628360Y-71163788D01*
X120467002Y-71246006D01*
X120320505Y-71352441D01*
X120320500Y-71352445D01*
X120192445Y-71480500D01*
X120192441Y-71480505D01*
X120086006Y-71627002D01*
X120003788Y-71788360D01*
X120003787Y-71788363D01*
X119947829Y-71960589D01*
X119922473Y-72120678D01*
X119892544Y-72183813D01*
X119833232Y-72220744D01*
X119763369Y-72219746D01*
X119705137Y-72181136D01*
X119677527Y-72120678D01*
X119661067Y-72016759D01*
X119652171Y-71960591D01*
X119616067Y-71849473D01*
X119596212Y-71788363D01*
X119596211Y-71788360D01*
X119567740Y-71732484D01*
X119513996Y-71627006D01*
X119500396Y-71608287D01*
X119407558Y-71480505D01*
X119407554Y-71480500D01*
X119279499Y-71352445D01*
X119279494Y-71352441D01*
X119132997Y-71246006D01*
X119132996Y-71246005D01*
X119132994Y-71246004D01*
X119081300Y-71219664D01*
X118971639Y-71163788D01*
X118971636Y-71163787D01*
X118799410Y-71107829D01*
X118620551Y-71079500D01*
X118620546Y-71079500D01*
X118439454Y-71079500D01*
X118439449Y-71079500D01*
X118260589Y-71107829D01*
X118088363Y-71163787D01*
X118088360Y-71163788D01*
X117927002Y-71246006D01*
X117780505Y-71352441D01*
X117780500Y-71352445D01*
X117652445Y-71480500D01*
X117652441Y-71480505D01*
X117546006Y-71627002D01*
X117463788Y-71788360D01*
X117463787Y-71788363D01*
X117407829Y-71960589D01*
X117382473Y-72120678D01*
X117352544Y-72183813D01*
X117293232Y-72220744D01*
X117223369Y-72219746D01*
X117165137Y-72181136D01*
X117137527Y-72120678D01*
X117121067Y-72016759D01*
X117112171Y-71960591D01*
X117076067Y-71849473D01*
X117056212Y-71788363D01*
X117056211Y-71788360D01*
X117027740Y-71732484D01*
X116973996Y-71627006D01*
X116960396Y-71608287D01*
X116867558Y-71480505D01*
X116867554Y-71480500D01*
X116739499Y-71352445D01*
X116739494Y-71352441D01*
X116592997Y-71246006D01*
X116592996Y-71246005D01*
X116592994Y-71246004D01*
X116541300Y-71219664D01*
X116431639Y-71163788D01*
X116431636Y-71163787D01*
X116259410Y-71107829D01*
X116080551Y-71079500D01*
X116080546Y-71079500D01*
X115899454Y-71079500D01*
X115899449Y-71079500D01*
X115720589Y-71107829D01*
X115548363Y-71163787D01*
X115548360Y-71163788D01*
X115387002Y-71246006D01*
X115240505Y-71352441D01*
X115240500Y-71352445D01*
X115112445Y-71480500D01*
X115112441Y-71480505D01*
X115006006Y-71627002D01*
X114923788Y-71788360D01*
X114923787Y-71788363D01*
X114867829Y-71960589D01*
X114839500Y-72139448D01*
X114839500Y-72320551D01*
X114867829Y-72499410D01*
X114923787Y-72671636D01*
X114923788Y-72671639D01*
X115006006Y-72832997D01*
X115112441Y-72979494D01*
X115112445Y-72979499D01*
X115240500Y-73107554D01*
X115240505Y-73107558D01*
X115368287Y-73200396D01*
X115387006Y-73213996D01*
X115492484Y-73267740D01*
X115548360Y-73296211D01*
X115548363Y-73296212D01*
X115634476Y-73324191D01*
X115720591Y-73352171D01*
X115793639Y-73363740D01*
X115880678Y-73377527D01*
X115943813Y-73407456D01*
X115980744Y-73466768D01*
X115979746Y-73536631D01*
X115941136Y-73594863D01*
X115880678Y-73622473D01*
X115720589Y-73647829D01*
X115548363Y-73703787D01*
X115548360Y-73703788D01*
X115387002Y-73786006D01*
X115240505Y-73892441D01*
X115240500Y-73892445D01*
X115112445Y-74020500D01*
X115112441Y-74020505D01*
X115006006Y-74167002D01*
X114923788Y-74328360D01*
X114923787Y-74328363D01*
X114867829Y-74500589D01*
X114842473Y-74660678D01*
X114812544Y-74723813D01*
X114753232Y-74760744D01*
X114683369Y-74759746D01*
X114625137Y-74721136D01*
X114597527Y-74660678D01*
X114578832Y-74542649D01*
X114572171Y-74500591D01*
X114536067Y-74389473D01*
X114516212Y-74328363D01*
X114516211Y-74328360D01*
X114487740Y-74272484D01*
X114433996Y-74167006D01*
X114420396Y-74148287D01*
X114327558Y-74020505D01*
X114327554Y-74020500D01*
X114199499Y-73892445D01*
X114199494Y-73892441D01*
X114052997Y-73786006D01*
X114052996Y-73786005D01*
X114052994Y-73786004D01*
X113976906Y-73747235D01*
X113891639Y-73703788D01*
X113891636Y-73703787D01*
X113719410Y-73647829D01*
X113540551Y-73619500D01*
X113540546Y-73619500D01*
X113359454Y-73619500D01*
X113359449Y-73619500D01*
X113180589Y-73647829D01*
X113008363Y-73703787D01*
X113008360Y-73703788D01*
X112847002Y-73786006D01*
X112700505Y-73892441D01*
X112700500Y-73892445D01*
X112572445Y-74020500D01*
X112572441Y-74020505D01*
X112466006Y-74167002D01*
X112383788Y-74328360D01*
X112383787Y-74328363D01*
X112327829Y-74500589D01*
X112302473Y-74660678D01*
X112272544Y-74723813D01*
X112213232Y-74760744D01*
X112143369Y-74759746D01*
X112085137Y-74721136D01*
X112057527Y-74660678D01*
X112038832Y-74542649D01*
X112032171Y-74500591D01*
X111996067Y-74389473D01*
X111976212Y-74328363D01*
X111976211Y-74328360D01*
X111947740Y-74272484D01*
X111893996Y-74167006D01*
X111880396Y-74148287D01*
X111787558Y-74020505D01*
X111787554Y-74020500D01*
X111659499Y-73892445D01*
X111659494Y-73892441D01*
X111512997Y-73786006D01*
X111512996Y-73786005D01*
X111512994Y-73786004D01*
X111436906Y-73747235D01*
X111351639Y-73703788D01*
X111351636Y-73703787D01*
X111179410Y-73647829D01*
X111019321Y-73622473D01*
X110956186Y-73592544D01*
X110919255Y-73533232D01*
X110920253Y-73463370D01*
X110958863Y-73405137D01*
X111019321Y-73377527D01*
X111089425Y-73366422D01*
X111179409Y-73352171D01*
X111351639Y-73296211D01*
X111512994Y-73213996D01*
X111659501Y-73107553D01*
X111787553Y-72979501D01*
X111893996Y-72832994D01*
X111976211Y-72671639D01*
X112032171Y-72499409D01*
X112046765Y-72407259D01*
X112060500Y-72320551D01*
X112060500Y-72139448D01*
X112041067Y-72016759D01*
X112032171Y-71960591D01*
X111996067Y-71849473D01*
X111976212Y-71788363D01*
X111976211Y-71788360D01*
X111947740Y-71732484D01*
X111893996Y-71627006D01*
X111880396Y-71608287D01*
X111787558Y-71480505D01*
X111787554Y-71480500D01*
X111659499Y-71352445D01*
X111659494Y-71352441D01*
X111512997Y-71246006D01*
X111512996Y-71246005D01*
X111512994Y-71246004D01*
X111461300Y-71219664D01*
X111351639Y-71163788D01*
X111351636Y-71163787D01*
X111179410Y-71107829D01*
X111000551Y-71079500D01*
X111000546Y-71079500D01*
X110819454Y-71079500D01*
X110819449Y-71079500D01*
X110640589Y-71107829D01*
X110468363Y-71163787D01*
X110468360Y-71163788D01*
X110307002Y-71246006D01*
X110160505Y-71352441D01*
X110160500Y-71352445D01*
X110032445Y-71480500D01*
X110032441Y-71480505D01*
X109926006Y-71627002D01*
X109843788Y-71788360D01*
X109843787Y-71788363D01*
X109787829Y-71960589D01*
X109762473Y-72120678D01*
X109732544Y-72183813D01*
X109673232Y-72220744D01*
X109603369Y-72219746D01*
X109545137Y-72181136D01*
X109517527Y-72120678D01*
X109501067Y-72016759D01*
X109492171Y-71960591D01*
X109456067Y-71849473D01*
X109436212Y-71788363D01*
X109436211Y-71788360D01*
X109407740Y-71732484D01*
X109353996Y-71627006D01*
X109340396Y-71608287D01*
X109247558Y-71480505D01*
X109247554Y-71480500D01*
X109119499Y-71352445D01*
X109119494Y-71352441D01*
X108972997Y-71246006D01*
X108972996Y-71246005D01*
X108972994Y-71246004D01*
X108921300Y-71219664D01*
X108811639Y-71163788D01*
X108811636Y-71163787D01*
X108639410Y-71107829D01*
X108460551Y-71079500D01*
X108460546Y-71079500D01*
X108279454Y-71079500D01*
X108279449Y-71079500D01*
X108100589Y-71107829D01*
X107928363Y-71163787D01*
X107928360Y-71163788D01*
X107767002Y-71246006D01*
X107620505Y-71352441D01*
X107620500Y-71352445D01*
X107492445Y-71480500D01*
X107492441Y-71480505D01*
X107386006Y-71627002D01*
X107303788Y-71788360D01*
X107303787Y-71788363D01*
X107247829Y-71960589D01*
X107219500Y-72139448D01*
X107219500Y-72320551D01*
X107247829Y-72499410D01*
X107303787Y-72671636D01*
X107303788Y-72671639D01*
X107386006Y-72832997D01*
X107492441Y-72979494D01*
X107492445Y-72979499D01*
X107620500Y-73107554D01*
X107620505Y-73107558D01*
X107748287Y-73200396D01*
X107767006Y-73213996D01*
X107872484Y-73267740D01*
X107928360Y-73296211D01*
X107928363Y-73296212D01*
X108014476Y-73324191D01*
X108100591Y-73352171D01*
X108204716Y-73368662D01*
X108232270Y-73373027D01*
X108295405Y-73402956D01*
X108332336Y-73462268D01*
X108331338Y-73532130D01*
X108292728Y-73590363D01*
X108228765Y-73618477D01*
X108212872Y-73619500D01*
X107475143Y-73619500D01*
X107475117Y-73619502D01*
X107450012Y-73622413D01*
X107450008Y-73622415D01*
X107347235Y-73667793D01*
X107267794Y-73747234D01*
X107222415Y-73850006D01*
X107222415Y-73850008D01*
X107219500Y-73875131D01*
X107219500Y-75664856D01*
X107219502Y-75664882D01*
X107222413Y-75689987D01*
X107222415Y-75689991D01*
X107267793Y-75792764D01*
X107267794Y-75792765D01*
X107347235Y-75872206D01*
X107450009Y-75917585D01*
X107475135Y-75920500D01*
X109264864Y-75920499D01*
X109264879Y-75920497D01*
X109264882Y-75920497D01*
X109289987Y-75917586D01*
X109289988Y-75917585D01*
X109289991Y-75917585D01*
X109392765Y-75872206D01*
X109472206Y-75792765D01*
X109517585Y-75689991D01*
X109520500Y-75664865D01*
X109520499Y-74927125D01*
X109540183Y-74860089D01*
X109592987Y-74814334D01*
X109662146Y-74804390D01*
X109725702Y-74833415D01*
X109763476Y-74892193D01*
X109766972Y-74907729D01*
X109787829Y-75039410D01*
X109843787Y-75211636D01*
X109843788Y-75211639D01*
X109926006Y-75372997D01*
X110032441Y-75519494D01*
X110032445Y-75519499D01*
X110160500Y-75647554D01*
X110160505Y-75647558D01*
X110288287Y-75740396D01*
X110307006Y-75753996D01*
X110383094Y-75792765D01*
X110468360Y-75836211D01*
X110468363Y-75836212D01*
X110554476Y-75864191D01*
X110640591Y-75892171D01*
X110723429Y-75905291D01*
X110819449Y-75920500D01*
X110819454Y-75920500D01*
X111000551Y-75920500D01*
X111087259Y-75906765D01*
X111179409Y-75892171D01*
X111351639Y-75836211D01*
X111512994Y-75753996D01*
X111659501Y-75647553D01*
X111787553Y-75519501D01*
X111893996Y-75372994D01*
X111976211Y-75211639D01*
X112032171Y-75039409D01*
X112048328Y-74937399D01*
X112057527Y-74879321D01*
X112087456Y-74816186D01*
X112146768Y-74779255D01*
X112216630Y-74780253D01*
X112274863Y-74818863D01*
X112302473Y-74879321D01*
X112327829Y-75039410D01*
X112383787Y-75211636D01*
X112383788Y-75211639D01*
X112466006Y-75372997D01*
X112572441Y-75519494D01*
X112572445Y-75519499D01*
X112700500Y-75647554D01*
X112700505Y-75647558D01*
X112828287Y-75740396D01*
X112847006Y-75753996D01*
X112923094Y-75792765D01*
X113008360Y-75836211D01*
X113008363Y-75836212D01*
X113094476Y-75864191D01*
X113180591Y-75892171D01*
X113263429Y-75905291D01*
X113359449Y-75920500D01*
X113359454Y-75920500D01*
X113540551Y-75920500D01*
X113627259Y-75906765D01*
X113719409Y-75892171D01*
X113891639Y-75836211D01*
X114052994Y-75753996D01*
X114199501Y-75647553D01*
X114327553Y-75519501D01*
X114433996Y-75372994D01*
X114516211Y-75211639D01*
X114572171Y-75039409D01*
X114588328Y-74937399D01*
X114597527Y-74879321D01*
X114627456Y-74816186D01*
X114686768Y-74779255D01*
X114756630Y-74780253D01*
X114814863Y-74818863D01*
X114842473Y-74879321D01*
X114867829Y-75039410D01*
X114923787Y-75211636D01*
X114923788Y-75211639D01*
X115006006Y-75372997D01*
X115112441Y-75519494D01*
X115112445Y-75519499D01*
X115240500Y-75647554D01*
X115240505Y-75647558D01*
X115368287Y-75740396D01*
X115387006Y-75753996D01*
X115463094Y-75792765D01*
X115548360Y-75836211D01*
X115548363Y-75836212D01*
X115634476Y-75864191D01*
X115720591Y-75892171D01*
X115803429Y-75905291D01*
X115899449Y-75920500D01*
X115899454Y-75920500D01*
X116080551Y-75920500D01*
X116167259Y-75906765D01*
X116259409Y-75892171D01*
X116431639Y-75836211D01*
X116592994Y-75753996D01*
X116739501Y-75647553D01*
X116867553Y-75519501D01*
X116973996Y-75372994D01*
X117056211Y-75211639D01*
X117112171Y-75039409D01*
X117128328Y-74937399D01*
X117137527Y-74879321D01*
X117167456Y-74816186D01*
X117226768Y-74779255D01*
X117296630Y-74780253D01*
X117354863Y-74818863D01*
X117382473Y-74879321D01*
X117407829Y-75039410D01*
X117463787Y-75211636D01*
X117463788Y-75211639D01*
X117546006Y-75372997D01*
X117652441Y-75519494D01*
X117652445Y-75519499D01*
X117780500Y-75647554D01*
X117780505Y-75647558D01*
X117908287Y-75740396D01*
X117927006Y-75753996D01*
X118003094Y-75792765D01*
X118088360Y-75836211D01*
X118088363Y-75836212D01*
X118174476Y-75864191D01*
X118260591Y-75892171D01*
X118343429Y-75905291D01*
X118439449Y-75920500D01*
X118439454Y-75920500D01*
X118620551Y-75920500D01*
X118707259Y-75906765D01*
X118799409Y-75892171D01*
X118971639Y-75836211D01*
X119132994Y-75753996D01*
X119279501Y-75647553D01*
X119407553Y-75519501D01*
X119513996Y-75372994D01*
X119596211Y-75211639D01*
X119652171Y-75039409D01*
X119668328Y-74937399D01*
X119677527Y-74879321D01*
X119707456Y-74816186D01*
X119766768Y-74779255D01*
X119836630Y-74780253D01*
X119894863Y-74818863D01*
X119922473Y-74879321D01*
X119947829Y-75039410D01*
X120003787Y-75211636D01*
X120003788Y-75211639D01*
X120086006Y-75372997D01*
X120192441Y-75519494D01*
X120192445Y-75519499D01*
X120320500Y-75647554D01*
X120320505Y-75647558D01*
X120448287Y-75740396D01*
X120467006Y-75753996D01*
X120543094Y-75792765D01*
X120628360Y-75836211D01*
X120628363Y-75836212D01*
X120714476Y-75864191D01*
X120800591Y-75892171D01*
X120883429Y-75905291D01*
X120979449Y-75920500D01*
X120979454Y-75920500D01*
X121160551Y-75920500D01*
X121247259Y-75906765D01*
X121339409Y-75892171D01*
X121511639Y-75836211D01*
X121672994Y-75753996D01*
X121819501Y-75647553D01*
X121947553Y-75519501D01*
X122053996Y-75372994D01*
X122136211Y-75211639D01*
X122192171Y-75039409D01*
X122208328Y-74937399D01*
X122217527Y-74879321D01*
X122247456Y-74816186D01*
X122306768Y-74779255D01*
X122376630Y-74780253D01*
X122434863Y-74818863D01*
X122462473Y-74879321D01*
X122487829Y-75039410D01*
X122543787Y-75211636D01*
X122543788Y-75211639D01*
X122626006Y-75372997D01*
X122732441Y-75519494D01*
X122732445Y-75519499D01*
X122860500Y-75647554D01*
X122860505Y-75647558D01*
X122988287Y-75740396D01*
X123007006Y-75753996D01*
X123083094Y-75792765D01*
X123168360Y-75836211D01*
X123168363Y-75836212D01*
X123254476Y-75864191D01*
X123340591Y-75892171D01*
X123423429Y-75905291D01*
X123519449Y-75920500D01*
X123519454Y-75920500D01*
X123700551Y-75920500D01*
X123787259Y-75906765D01*
X123879409Y-75892171D01*
X124051639Y-75836211D01*
X124212994Y-75753996D01*
X124359501Y-75647553D01*
X124487553Y-75519501D01*
X124593996Y-75372994D01*
X124676211Y-75211639D01*
X124732171Y-75039409D01*
X124748328Y-74937399D01*
X124757527Y-74879321D01*
X124787456Y-74816186D01*
X124846768Y-74779255D01*
X124916630Y-74780253D01*
X124974863Y-74818863D01*
X125002473Y-74879321D01*
X125027829Y-75039410D01*
X125083787Y-75211636D01*
X125083788Y-75211639D01*
X125166006Y-75372997D01*
X125272441Y-75519494D01*
X125272445Y-75519499D01*
X125400500Y-75647554D01*
X125400505Y-75647558D01*
X125528287Y-75740396D01*
X125547006Y-75753996D01*
X125623094Y-75792765D01*
X125708360Y-75836211D01*
X125708363Y-75836212D01*
X125794476Y-75864191D01*
X125880591Y-75892171D01*
X125963429Y-75905291D01*
X126059449Y-75920500D01*
X126059454Y-75920500D01*
X126240551Y-75920500D01*
X126327259Y-75906765D01*
X126419409Y-75892171D01*
X126591639Y-75836211D01*
X126752994Y-75753996D01*
X126899501Y-75647553D01*
X127027553Y-75519501D01*
X127133996Y-75372994D01*
X127216211Y-75211639D01*
X127272171Y-75039409D01*
X127288328Y-74937399D01*
X127297527Y-74879321D01*
X127327456Y-74816186D01*
X127386768Y-74779255D01*
X127456630Y-74780253D01*
X127514863Y-74818863D01*
X127542473Y-74879321D01*
X127567829Y-75039410D01*
X127623787Y-75211636D01*
X127623788Y-75211639D01*
X127706006Y-75372997D01*
X127812441Y-75519494D01*
X127812445Y-75519499D01*
X127940500Y-75647554D01*
X127940505Y-75647558D01*
X128068287Y-75740396D01*
X128087006Y-75753996D01*
X128163094Y-75792765D01*
X128248360Y-75836211D01*
X128248363Y-75836212D01*
X128334476Y-75864191D01*
X128420591Y-75892171D01*
X128503429Y-75905291D01*
X128599449Y-75920500D01*
X128599454Y-75920500D01*
X128780551Y-75920500D01*
X128867259Y-75906765D01*
X128959409Y-75892171D01*
X129131639Y-75836211D01*
X129292994Y-75753996D01*
X129439501Y-75647553D01*
X129567553Y-75519501D01*
X129673996Y-75372994D01*
X129756211Y-75211639D01*
X129758068Y-75205922D01*
X129797504Y-75148247D01*
X129861862Y-75121048D01*
X129930709Y-75132960D01*
X129982186Y-75180203D01*
X130000000Y-75244239D01*
X130000000Y-85708784D01*
X129980315Y-85775823D01*
X129927511Y-85821578D01*
X129858353Y-85831522D01*
X129794797Y-85802497D01*
X129758959Y-85749740D01*
X129752793Y-85732118D01*
X129672150Y-85622850D01*
X129562882Y-85542207D01*
X129562880Y-85542206D01*
X129434700Y-85497353D01*
X129404270Y-85494500D01*
X129404266Y-85494500D01*
X128604057Y-85494500D01*
X127224361Y-85494500D01*
X127157322Y-85474815D01*
X127136684Y-85458185D01*
X127074035Y-85395536D01*
X127074034Y-85395535D01*
X127074033Y-85395534D01*
X126926553Y-85296990D01*
X126926540Y-85296983D01*
X126762667Y-85229106D01*
X126762658Y-85229103D01*
X126588694Y-85194500D01*
X126588691Y-85194500D01*
X126411309Y-85194500D01*
X126411306Y-85194500D01*
X126237341Y-85229103D01*
X126237332Y-85229106D01*
X126073459Y-85296983D01*
X126073448Y-85296989D01*
X125969162Y-85366671D01*
X125902485Y-85387548D01*
X125835105Y-85369063D01*
X125812591Y-85351249D01*
X125716930Y-85255588D01*
X125716928Y-85255586D01*
X125576788Y-85153768D01*
X125422445Y-85075127D01*
X125257701Y-85021598D01*
X125257699Y-85021597D01*
X125257698Y-85021597D01*
X125126271Y-85000781D01*
X125086611Y-84994500D01*
X124913389Y-84994500D01*
X124873728Y-85000781D01*
X124742302Y-85021597D01*
X124577552Y-85075128D01*
X124423211Y-85153768D01*
X124376923Y-85187399D01*
X124283072Y-85255586D01*
X124283070Y-85255588D01*
X124283069Y-85255588D01*
X124160588Y-85378069D01*
X124160588Y-85378070D01*
X124160586Y-85378072D01*
X124147899Y-85395534D01*
X124058768Y-85518211D01*
X123980128Y-85672552D01*
X123926597Y-85837302D01*
X123899500Y-86008389D01*
X123899500Y-86181611D01*
X123926598Y-86352701D01*
X123980127Y-86517445D01*
X124058768Y-86671788D01*
X124160586Y-86811928D01*
X124283072Y-86934414D01*
X124372797Y-86999603D01*
X124423213Y-87036233D01*
X124430636Y-87040015D01*
X124481432Y-87087989D01*
X124498228Y-87155810D01*
X124475691Y-87221945D01*
X124420976Y-87265397D01*
X124374342Y-87274500D01*
X110599500Y-87274500D01*
X110532461Y-87254815D01*
X110486706Y-87202011D01*
X110475500Y-87150500D01*
X110475500Y-85068827D01*
X110495185Y-85001788D01*
X110543204Y-84958343D01*
X110576788Y-84941232D01*
X110716928Y-84839414D01*
X110839414Y-84716928D01*
X110941232Y-84576788D01*
X111019873Y-84422445D01*
X111073402Y-84257701D01*
X111100500Y-84086611D01*
X111100500Y-83913389D01*
X111073402Y-83742299D01*
X111019873Y-83577555D01*
X110941232Y-83423212D01*
X110839414Y-83283072D01*
X110716928Y-83160586D01*
X110576788Y-83058768D01*
X110422445Y-82980127D01*
X110257701Y-82926598D01*
X110257699Y-82926597D01*
X110257698Y-82926597D01*
X110126271Y-82905781D01*
X110086611Y-82899500D01*
X109913389Y-82899500D01*
X109873728Y-82905781D01*
X109742302Y-82926597D01*
X109577552Y-82980128D01*
X109423211Y-83058768D01*
X109343256Y-83116859D01*
X109283072Y-83160586D01*
X109283070Y-83160588D01*
X109283069Y-83160588D01*
X109160588Y-83283069D01*
X109160588Y-83283070D01*
X109160586Y-83283072D01*
X109116859Y-83343256D01*
X109058768Y-83423211D01*
X108980128Y-83577552D01*
X108926597Y-83742302D01*
X108899500Y-83913389D01*
X108899500Y-84086611D01*
X108926598Y-84257701D01*
X108980127Y-84422445D01*
X109058768Y-84576788D01*
X109160586Y-84716928D01*
X109283072Y-84839414D01*
X109362186Y-84896894D01*
X109423207Y-84941229D01*
X109423209Y-84941230D01*
X109423212Y-84941232D01*
X109456795Y-84958343D01*
X109507590Y-85006315D01*
X109524500Y-85068827D01*
X109524500Y-85187399D01*
X109524500Y-85437399D01*
X109524500Y-85687399D01*
X109524500Y-85937399D01*
X109524500Y-86187399D01*
X109524500Y-86437399D01*
X109524500Y-86687399D01*
X109524500Y-86937399D01*
X109524500Y-87187399D01*
X109524500Y-87437399D01*
X109524500Y-87812601D01*
X109556905Y-87933536D01*
X109616843Y-88037354D01*
X109619504Y-88041962D01*
X109619506Y-88041965D01*
X109708036Y-88130495D01*
X109729025Y-88142613D01*
X109777240Y-88193180D01*
X109790462Y-88261788D01*
X109764494Y-88326652D01*
X109729025Y-88357387D01*
X109708036Y-88369504D01*
X109619506Y-88458034D01*
X109619504Y-88458037D01*
X109556905Y-88566463D01*
X109524500Y-88687400D01*
X109524500Y-92931171D01*
X109504815Y-92998210D01*
X109456797Y-93041655D01*
X109423211Y-93058768D01*
X109343256Y-93116859D01*
X109283072Y-93160586D01*
X109283070Y-93160588D01*
X109283069Y-93160588D01*
X109160588Y-93283069D01*
X109160588Y-93283070D01*
X109160586Y-93283072D01*
X109116859Y-93343256D01*
X109058768Y-93423211D01*
X108980128Y-93577552D01*
X108926597Y-93742302D01*
X108899500Y-93913389D01*
X108899500Y-94086611D01*
X108926598Y-94257701D01*
X108980127Y-94422445D01*
X109058768Y-94576788D01*
X109160586Y-94716928D01*
X109283072Y-94839414D01*
X109423212Y-94941232D01*
X109577555Y-95019873D01*
X109742299Y-95073402D01*
X109913389Y-95100500D01*
X109913390Y-95100500D01*
X110086610Y-95100500D01*
X110086611Y-95100500D01*
X110257701Y-95073402D01*
X110422445Y-95019873D01*
X110576788Y-94941232D01*
X110716928Y-94839414D01*
X110839414Y-94716928D01*
X110941232Y-94576788D01*
X111019873Y-94422445D01*
X111073402Y-94257701D01*
X111100500Y-94086611D01*
X111100500Y-93913389D01*
X111073402Y-93742299D01*
X111019873Y-93577555D01*
X110941232Y-93423212D01*
X110839414Y-93283072D01*
X110716928Y-93160586D01*
X110576788Y-93058768D01*
X110543203Y-93041655D01*
X110492408Y-92993680D01*
X110475500Y-92931171D01*
X110475500Y-89349500D01*
X110495185Y-89282461D01*
X110547989Y-89236706D01*
X110599500Y-89225500D01*
X110687399Y-89225500D01*
X110937399Y-89225500D01*
X111187399Y-89225500D01*
X111437399Y-89225500D01*
X111687399Y-89225500D01*
X111937399Y-89225500D01*
X112187399Y-89225500D01*
X112437399Y-89225500D01*
X112687399Y-89225500D01*
X112937399Y-89225500D01*
X113187399Y-89225500D01*
X113437399Y-89225500D01*
X113687399Y-89225500D01*
X113937399Y-89225500D01*
X114187399Y-89225500D01*
X114437399Y-89225500D01*
X114687399Y-89225500D01*
X114937399Y-89225500D01*
X115187399Y-89225500D01*
X115437399Y-89225500D01*
X115687399Y-89225500D01*
X115937399Y-89225500D01*
X116187399Y-89225500D01*
X116437399Y-89225500D01*
X116687399Y-89225500D01*
X116937399Y-89225500D01*
X117187399Y-89225500D01*
X117437399Y-89225500D01*
X117687399Y-89225500D01*
X117937399Y-89225500D01*
X118187399Y-89225500D01*
X118437399Y-89225500D01*
X118687399Y-89225500D01*
X118937399Y-89225500D01*
X119187399Y-89225500D01*
X119437399Y-89225500D01*
X119687399Y-89225500D01*
X119937399Y-89225500D01*
X120187399Y-89225500D01*
X120437399Y-89225500D01*
X120687399Y-89225500D01*
X120937399Y-89225500D01*
X121187399Y-89225500D01*
X121437399Y-89225500D01*
X121687399Y-89225500D01*
X121937399Y-89225500D01*
X122187399Y-89225500D01*
X122437399Y-89225500D01*
X122687399Y-89225500D01*
X122937399Y-89225500D01*
X123187399Y-89225500D01*
X123437399Y-89225500D01*
X123687399Y-89225500D01*
X123937399Y-89225500D01*
X124187399Y-89225500D01*
X124437399Y-89225500D01*
X124687399Y-89225500D01*
X124937399Y-89225500D01*
X125187399Y-89225500D01*
X125437399Y-89225500D01*
X125687399Y-89225500D01*
X125937399Y-89225500D01*
X126187399Y-89225500D01*
X126437399Y-89225500D01*
X126687399Y-89225500D01*
X126937399Y-89225500D01*
X127187399Y-89225500D01*
X127437399Y-89225500D01*
X127573810Y-89225500D01*
X127607871Y-89231288D01*
X127607927Y-89231036D01*
X127613317Y-89232213D01*
X127614769Y-89232460D01*
X127615301Y-89232646D01*
X127621387Y-89233216D01*
X127645730Y-89235500D01*
X127645734Y-89235500D01*
X129404270Y-89235500D01*
X129434699Y-89232646D01*
X129434701Y-89232646D01*
X129498790Y-89210219D01*
X129562882Y-89187793D01*
X129672150Y-89107150D01*
X129732140Y-89025866D01*
X129787788Y-88983616D01*
X129831910Y-88975500D01*
X129876000Y-88975500D01*
X129943039Y-88995185D01*
X129988794Y-89047989D01*
X130000000Y-89099500D01*
X130000000Y-99276000D01*
X129980315Y-99343039D01*
X129927511Y-99388794D01*
X129876000Y-99400000D01*
X100724000Y-99400000D01*
X100656961Y-99380315D01*
X100611206Y-99327511D01*
X100600000Y-99276000D01*
X100600000Y-73374038D01*
X101899500Y-73374038D01*
X101899500Y-73625962D01*
X101906126Y-73667794D01*
X101938910Y-73874785D01*
X102016760Y-74114383D01*
X102095413Y-74268747D01*
X102125789Y-74328363D01*
X102131132Y-74338848D01*
X102279201Y-74542649D01*
X102279205Y-74542654D01*
X102457345Y-74720794D01*
X102457350Y-74720798D01*
X102592326Y-74818863D01*
X102661155Y-74868870D01*
X102775493Y-74927128D01*
X102885616Y-74983239D01*
X102885618Y-74983239D01*
X102885621Y-74983241D01*
X103125215Y-75061090D01*
X103374038Y-75100500D01*
X103374039Y-75100500D01*
X103625961Y-75100500D01*
X103625962Y-75100500D01*
X103874785Y-75061090D01*
X104114379Y-74983241D01*
X104338845Y-74868870D01*
X104542656Y-74720793D01*
X104720793Y-74542656D01*
X104868870Y-74338845D01*
X104983241Y-74114379D01*
X105061090Y-73874785D01*
X105100500Y-73625962D01*
X105100500Y-73374038D01*
X105061090Y-73125215D01*
X104983241Y-72885621D01*
X104983239Y-72885618D01*
X104983239Y-72885616D01*
X104890822Y-72704239D01*
X104868870Y-72661155D01*
X104751355Y-72499409D01*
X104720798Y-72457350D01*
X104720794Y-72457345D01*
X104542654Y-72279205D01*
X104542649Y-72279201D01*
X104338848Y-72131132D01*
X104338847Y-72131131D01*
X104338845Y-72131130D01*
X104268747Y-72095413D01*
X104114383Y-72016760D01*
X103874785Y-71938910D01*
X103625962Y-71899500D01*
X103374038Y-71899500D01*
X103249626Y-71919205D01*
X103125214Y-71938910D01*
X102885616Y-72016760D01*
X102661151Y-72131132D01*
X102457350Y-72279201D01*
X102457345Y-72279205D01*
X102279205Y-72457345D01*
X102279201Y-72457350D01*
X102131132Y-72661151D01*
X102016760Y-72885616D01*
X101938910Y-73125214D01*
X101902964Y-73352170D01*
X101899500Y-73374038D01*
X100600000Y-73374038D01*
X100600000Y-70724000D01*
X100619685Y-70656961D01*
X100672489Y-70611206D01*
X100724000Y-70600000D01*
X129876000Y-70600000D01*
X129943039Y-70619685D01*
G37*
%TD.AperFunction*%
%TD*%
%TA.AperFunction,Conductor*%
%TO.N,GND_A*%
G36*
X164343039Y-78019685D02*
G01*
X164388794Y-78072489D01*
X164400000Y-78124000D01*
X164400000Y-99276000D01*
X164380315Y-99343039D01*
X164327511Y-99388794D01*
X164276000Y-99400000D01*
X132124000Y-99400000D01*
X132056961Y-99380315D01*
X132011206Y-99327511D01*
X132000000Y-99276000D01*
X132000000Y-89021215D01*
X132019685Y-88954176D01*
X132072489Y-88908421D01*
X132141647Y-88898477D01*
X132205203Y-88927502D01*
X132241040Y-88980259D01*
X132247207Y-88997882D01*
X132327850Y-89107150D01*
X132437118Y-89187793D01*
X132479845Y-89202744D01*
X132565299Y-89232646D01*
X132595730Y-89235500D01*
X132595734Y-89235500D01*
X134354270Y-89235500D01*
X134374554Y-89233597D01*
X134384699Y-89232646D01*
X134385231Y-89232460D01*
X134386682Y-89232213D01*
X134392073Y-89231036D01*
X134392128Y-89231288D01*
X134426190Y-89225500D01*
X134437399Y-89225500D01*
X134650500Y-89225500D01*
X134717539Y-89245185D01*
X134763294Y-89297989D01*
X134774500Y-89349500D01*
X134774500Y-89437399D01*
X134774500Y-89687399D01*
X134774500Y-89937399D01*
X134774500Y-90187399D01*
X134774500Y-90437399D01*
X134774500Y-90687399D01*
X134774500Y-90937399D01*
X134774500Y-91187399D01*
X134774500Y-91437399D01*
X134774500Y-91687399D01*
X134774500Y-91937399D01*
X134774500Y-92187399D01*
X134774500Y-92437399D01*
X134774500Y-92687399D01*
X134774500Y-92937399D01*
X134774500Y-93187399D01*
X134774500Y-93437399D01*
X134774500Y-93687399D01*
X134774500Y-93937399D01*
X134774500Y-94062601D01*
X134806905Y-94183536D01*
X134869505Y-94291964D01*
X134958036Y-94380495D01*
X135066464Y-94443095D01*
X135187399Y-94475500D01*
X135437399Y-94475500D01*
X135687399Y-94475500D01*
X135937399Y-94475500D01*
X136187399Y-94475500D01*
X136437399Y-94475500D01*
X136687399Y-94475500D01*
X136937399Y-94475500D01*
X137187399Y-94475500D01*
X137437399Y-94475500D01*
X137687399Y-94475500D01*
X137931173Y-94475500D01*
X137998212Y-94495185D01*
X138041656Y-94543204D01*
X138058479Y-94576220D01*
X138058769Y-94576790D01*
X138058770Y-94576792D01*
X138101100Y-94635053D01*
X138160586Y-94716928D01*
X138283072Y-94839414D01*
X138423212Y-94941232D01*
X138577555Y-95019873D01*
X138742299Y-95073402D01*
X138913389Y-95100500D01*
X138913390Y-95100500D01*
X139086610Y-95100500D01*
X139086611Y-95100500D01*
X139257701Y-95073402D01*
X139422445Y-95019873D01*
X139576788Y-94941232D01*
X139716928Y-94839414D01*
X139839414Y-94716928D01*
X139941232Y-94576788D01*
X140019873Y-94422445D01*
X140073402Y-94257701D01*
X140100500Y-94086611D01*
X140100500Y-93913389D01*
X145519500Y-93913389D01*
X145519500Y-94086611D01*
X145546598Y-94257701D01*
X145600127Y-94422445D01*
X145678768Y-94576788D01*
X145780586Y-94716928D01*
X145903072Y-94839414D01*
X146043212Y-94941232D01*
X146197555Y-95019873D01*
X146362299Y-95073402D01*
X146533389Y-95100500D01*
X146533390Y-95100500D01*
X146706610Y-95100500D01*
X146706611Y-95100500D01*
X146877701Y-95073402D01*
X147042445Y-95019873D01*
X147196788Y-94941232D01*
X147336928Y-94839414D01*
X147459414Y-94716928D01*
X147561232Y-94576788D01*
X147639873Y-94422445D01*
X147693402Y-94257701D01*
X147720500Y-94086611D01*
X147720500Y-93913389D01*
X147693402Y-93742299D01*
X147639873Y-93577555D01*
X147561232Y-93423212D01*
X147459414Y-93283072D01*
X147336928Y-93160586D01*
X147196788Y-93058768D01*
X147043205Y-92980514D01*
X146992409Y-92932540D01*
X146975500Y-92870029D01*
X146975500Y-91856900D01*
X153349500Y-91856900D01*
X153349500Y-94143091D01*
X153360123Y-94231562D01*
X153415639Y-94372342D01*
X153415640Y-94372344D01*
X153507077Y-94492922D01*
X153627655Y-94584359D01*
X153627658Y-94584361D01*
X153768436Y-94639876D01*
X153856901Y-94650500D01*
X156143098Y-94650499D01*
X156231564Y-94639876D01*
X156372342Y-94584361D01*
X156492922Y-94492922D01*
X156584361Y-94372342D01*
X156639876Y-94231564D01*
X156650500Y-94143099D01*
X156650499Y-91856902D01*
X156639876Y-91768436D01*
X156584361Y-91627658D01*
X156584359Y-91627655D01*
X156492922Y-91507077D01*
X156372344Y-91415640D01*
X156372342Y-91415639D01*
X156231564Y-91360124D01*
X156231561Y-91360123D01*
X156143099Y-91349500D01*
X153856908Y-91349500D01*
X153768437Y-91360123D01*
X153627657Y-91415639D01*
X153627655Y-91415640D01*
X153507077Y-91507077D01*
X153415640Y-91627655D01*
X153415639Y-91627658D01*
X153392081Y-91687399D01*
X153360124Y-91768437D01*
X153360123Y-91768438D01*
X153349500Y-91856900D01*
X146975500Y-91856900D01*
X146975500Y-88910097D01*
X153349500Y-88910097D01*
X153349500Y-89169902D01*
X153390140Y-89426493D01*
X153470422Y-89673576D01*
X153551534Y-89832764D01*
X153588366Y-89905051D01*
X153741069Y-90115229D01*
X153924771Y-90298931D01*
X154134949Y-90451634D01*
X154282445Y-90526787D01*
X154366423Y-90569577D01*
X154366425Y-90569577D01*
X154366428Y-90569579D01*
X154613507Y-90649860D01*
X154745706Y-90670797D01*
X154870098Y-90690500D01*
X154870103Y-90690500D01*
X155129902Y-90690500D01*
X155243298Y-90672539D01*
X155386493Y-90649860D01*
X155633572Y-90569579D01*
X155865051Y-90451634D01*
X156075229Y-90298931D01*
X156258931Y-90115229D01*
X156411634Y-89905051D01*
X156529579Y-89673572D01*
X156609860Y-89426493D01*
X156640562Y-89232646D01*
X156650500Y-89169902D01*
X156650500Y-88910097D01*
X156628947Y-88774021D01*
X156609860Y-88653507D01*
X156529579Y-88406428D01*
X156529577Y-88406425D01*
X156529577Y-88406423D01*
X156461144Y-88272118D01*
X156411634Y-88174949D01*
X156258931Y-87964771D01*
X156075229Y-87781069D01*
X156075225Y-87781066D01*
X155865054Y-87628368D01*
X155865053Y-87628367D01*
X155865051Y-87628366D01*
X155792764Y-87591534D01*
X155633576Y-87510422D01*
X155386493Y-87430140D01*
X155129902Y-87389500D01*
X155129897Y-87389500D01*
X154870103Y-87389500D01*
X154870098Y-87389500D01*
X154613506Y-87430140D01*
X154366423Y-87510422D01*
X154134945Y-87628368D01*
X153924774Y-87781066D01*
X153924768Y-87781071D01*
X153741071Y-87964768D01*
X153741066Y-87964774D01*
X153588368Y-88174945D01*
X153470422Y-88406423D01*
X153390140Y-88653506D01*
X153349500Y-88910097D01*
X146975500Y-88910097D01*
X146975500Y-87349500D01*
X146995185Y-87282461D01*
X147047989Y-87236706D01*
X147099500Y-87225500D01*
X150312599Y-87225500D01*
X150312601Y-87225500D01*
X150433536Y-87193095D01*
X150541964Y-87130495D01*
X150630495Y-87041964D01*
X150693095Y-86933536D01*
X150725500Y-86812601D01*
X150725500Y-86437399D01*
X150725500Y-86187399D01*
X150725500Y-85937399D01*
X150725500Y-85687399D01*
X150725500Y-85599500D01*
X150745185Y-85532461D01*
X150797989Y-85486706D01*
X150849500Y-85475500D01*
X150937399Y-85475500D01*
X151187399Y-85475500D01*
X151437399Y-85475500D01*
X151687399Y-85475500D01*
X151937399Y-85475500D01*
X152187399Y-85475500D01*
X152437399Y-85475500D01*
X152687399Y-85475500D01*
X152937399Y-85475500D01*
X153187399Y-85475500D01*
X153302975Y-85475500D01*
X153370014Y-85495185D01*
X153415769Y-85547989D01*
X153420906Y-85561182D01*
X153470419Y-85713569D01*
X153524040Y-85818805D01*
X153586420Y-85941232D01*
X153588368Y-85945054D01*
X153737633Y-86150500D01*
X153741069Y-86155229D01*
X153924771Y-86338931D01*
X154134949Y-86491634D01*
X154281808Y-86566463D01*
X154366423Y-86609577D01*
X154366425Y-86609577D01*
X154366428Y-86609579D01*
X154613507Y-86689860D01*
X154745706Y-86710797D01*
X154870098Y-86730500D01*
X154870103Y-86730500D01*
X155129902Y-86730500D01*
X155243298Y-86712539D01*
X155386493Y-86689860D01*
X155633572Y-86609579D01*
X155865051Y-86491634D01*
X156075229Y-86338931D01*
X156258931Y-86155229D01*
X156411634Y-85945051D01*
X156529579Y-85713572D01*
X156609860Y-85466493D01*
X156642929Y-85257701D01*
X156650500Y-85209902D01*
X156650500Y-84950097D01*
X156617588Y-84742302D01*
X156609860Y-84693507D01*
X156529579Y-84446428D01*
X156529577Y-84446425D01*
X156529577Y-84446423D01*
X156486787Y-84362445D01*
X156411634Y-84214949D01*
X156258931Y-84004771D01*
X156075229Y-83821069D01*
X155865051Y-83668366D01*
X155792764Y-83631534D01*
X155633576Y-83550422D01*
X155386493Y-83470140D01*
X155129902Y-83429500D01*
X155129897Y-83429500D01*
X154870103Y-83429500D01*
X154870098Y-83429500D01*
X154613506Y-83470140D01*
X154366423Y-83550422D01*
X154134945Y-83668368D01*
X153924774Y-83821066D01*
X153924768Y-83821071D01*
X153741071Y-84004768D01*
X153741066Y-84004774D01*
X153588368Y-84214945D01*
X153470417Y-84446434D01*
X153469789Y-84447952D01*
X153469395Y-84448440D01*
X153468209Y-84450769D01*
X153467719Y-84450519D01*
X153425949Y-84502356D01*
X153359655Y-84524421D01*
X153355228Y-84524500D01*
X153312601Y-84524500D01*
X153062601Y-84524500D01*
X152812601Y-84524500D01*
X152562601Y-84524500D01*
X152312601Y-84524500D01*
X152062601Y-84524500D01*
X151812601Y-84524500D01*
X151562601Y-84524500D01*
X151312601Y-84524500D01*
X151062601Y-84524500D01*
X150812601Y-84524500D01*
X150562601Y-84524500D01*
X150312601Y-84524500D01*
X150187399Y-84524500D01*
X150106775Y-84546103D01*
X150066463Y-84556905D01*
X149958037Y-84619503D01*
X149871268Y-84706273D01*
X149809944Y-84739757D01*
X149740253Y-84734773D01*
X149684319Y-84692901D01*
X149665658Y-84656913D01*
X149639873Y-84577555D01*
X149561232Y-84423212D01*
X149459414Y-84283072D01*
X149336928Y-84160586D01*
X149196788Y-84058768D01*
X149042445Y-83980127D01*
X148877701Y-83926598D01*
X148877699Y-83926597D01*
X148877698Y-83926597D01*
X148746271Y-83905781D01*
X148706611Y-83899500D01*
X148533389Y-83899500D01*
X148493728Y-83905781D01*
X148362302Y-83926597D01*
X148197552Y-83980128D01*
X148043211Y-84058768D01*
X147963256Y-84116859D01*
X147903072Y-84160586D01*
X147903070Y-84160588D01*
X147903069Y-84160588D01*
X147780588Y-84283069D01*
X147780588Y-84283070D01*
X147780586Y-84283072D01*
X147736859Y-84343256D01*
X147678768Y-84423211D01*
X147600128Y-84577552D01*
X147546597Y-84742302D01*
X147519500Y-84913389D01*
X147519500Y-85086610D01*
X147542068Y-85229103D01*
X147546598Y-85257701D01*
X147600127Y-85422445D01*
X147678768Y-85576788D01*
X147780586Y-85716928D01*
X147903072Y-85839414D01*
X148043212Y-85941232D01*
X148197555Y-86019873D01*
X148236630Y-86032569D01*
X148294306Y-86072007D01*
X148321504Y-86136365D01*
X148309589Y-86205212D01*
X148262345Y-86256687D01*
X148198312Y-86274500D01*
X148062601Y-86274500D01*
X147812601Y-86274500D01*
X147562601Y-86274500D01*
X147312601Y-86274500D01*
X147062601Y-86274500D01*
X146812601Y-86274500D01*
X146562601Y-86274500D01*
X146437399Y-86274500D01*
X146356775Y-86296103D01*
X146316463Y-86306905D01*
X146208037Y-86369504D01*
X146208034Y-86369506D01*
X146119506Y-86458034D01*
X146119504Y-86458037D01*
X146056905Y-86566463D01*
X146024500Y-86687400D01*
X146024500Y-93009181D01*
X146004815Y-93076220D01*
X145973387Y-93109498D01*
X145903072Y-93160585D01*
X145780588Y-93283069D01*
X145780588Y-93283070D01*
X145780586Y-93283072D01*
X145736859Y-93343256D01*
X145678768Y-93423211D01*
X145600128Y-93577552D01*
X145546597Y-93742302D01*
X145519500Y-93913389D01*
X140100500Y-93913389D01*
X140073402Y-93742299D01*
X140019873Y-93577555D01*
X139941232Y-93423212D01*
X139839414Y-93283072D01*
X139716928Y-93160586D01*
X139576788Y-93058768D01*
X139422445Y-92980127D01*
X139257701Y-92926598D01*
X139257699Y-92926597D01*
X139257698Y-92926597D01*
X139126271Y-92905781D01*
X139086611Y-92899500D01*
X138913389Y-92899500D01*
X138873728Y-92905781D01*
X138742302Y-92926597D01*
X138577552Y-92980128D01*
X138423211Y-93058768D01*
X138399191Y-93076220D01*
X138283072Y-93160586D01*
X138283070Y-93160588D01*
X138283069Y-93160588D01*
X138160588Y-93283069D01*
X138160588Y-93283070D01*
X138160586Y-93283072D01*
X138135040Y-93318232D01*
X138058770Y-93423207D01*
X138058769Y-93423209D01*
X138053230Y-93434079D01*
X138041656Y-93456795D01*
X137993685Y-93507590D01*
X137931173Y-93524500D01*
X135849500Y-93524500D01*
X135782461Y-93504815D01*
X135736706Y-93452011D01*
X135725500Y-93400500D01*
X135725500Y-88687400D01*
X135725500Y-88687399D01*
X135693095Y-88566464D01*
X135630495Y-88458036D01*
X135609640Y-88437181D01*
X135576155Y-88375858D01*
X135581139Y-88306166D01*
X135623011Y-88250233D01*
X135688475Y-88225816D01*
X135697321Y-88225500D01*
X138812599Y-88225500D01*
X138812601Y-88225500D01*
X138933536Y-88193095D01*
X139041964Y-88130495D01*
X139130495Y-88041964D01*
X139193095Y-87933536D01*
X139225500Y-87812601D01*
X139225500Y-87437399D01*
X139225500Y-87187399D01*
X139225500Y-86937399D01*
X139225500Y-86687399D01*
X139225500Y-86437399D01*
X139225500Y-86187399D01*
X139225500Y-85937399D01*
X139225500Y-85687399D01*
X139225500Y-85599500D01*
X139245185Y-85532461D01*
X139297989Y-85486706D01*
X139349500Y-85475500D01*
X139437399Y-85475500D01*
X139687399Y-85475500D01*
X139931173Y-85475500D01*
X139998212Y-85495185D01*
X140041656Y-85543204D01*
X140058345Y-85575958D01*
X140058769Y-85576790D01*
X140058770Y-85576792D01*
X140069817Y-85591996D01*
X140160586Y-85716928D01*
X140283072Y-85839414D01*
X140423212Y-85941232D01*
X140577555Y-86019873D01*
X140742299Y-86073402D01*
X140913389Y-86100500D01*
X140913390Y-86100500D01*
X141086610Y-86100500D01*
X141086611Y-86100500D01*
X141257701Y-86073402D01*
X141422445Y-86019873D01*
X141576788Y-85941232D01*
X141716928Y-85839414D01*
X141839414Y-85716928D01*
X141941232Y-85576788D01*
X142019873Y-85422445D01*
X142073402Y-85257701D01*
X142100500Y-85086611D01*
X142100500Y-84913389D01*
X142073402Y-84742299D01*
X142019873Y-84577555D01*
X141941232Y-84423212D01*
X141839414Y-84283072D01*
X141716928Y-84160586D01*
X141576788Y-84058768D01*
X141422445Y-83980127D01*
X141257701Y-83926598D01*
X141257699Y-83926597D01*
X141257698Y-83926597D01*
X141126271Y-83905781D01*
X141086611Y-83899500D01*
X140913389Y-83899500D01*
X140873728Y-83905781D01*
X140742302Y-83926597D01*
X140577552Y-83980128D01*
X140423211Y-84058768D01*
X140343256Y-84116859D01*
X140283072Y-84160586D01*
X140283070Y-84160588D01*
X140283069Y-84160588D01*
X140160588Y-84283069D01*
X140160588Y-84283070D01*
X140160586Y-84283072D01*
X140135040Y-84318232D01*
X140058770Y-84423207D01*
X140058769Y-84423209D01*
X140053230Y-84434079D01*
X140041656Y-84456795D01*
X139993685Y-84507590D01*
X139931173Y-84524500D01*
X139812601Y-84524500D01*
X139562601Y-84524500D01*
X139312601Y-84524500D01*
X139062601Y-84524500D01*
X138812601Y-84524500D01*
X138687399Y-84524500D01*
X138606775Y-84546103D01*
X138566463Y-84556905D01*
X138458037Y-84619504D01*
X138458034Y-84619506D01*
X138369506Y-84708034D01*
X138369504Y-84708037D01*
X138306905Y-84816463D01*
X138274500Y-84937400D01*
X138274500Y-85673311D01*
X138254815Y-85740350D01*
X138202011Y-85786105D01*
X138132853Y-85796049D01*
X138069297Y-85767024D01*
X138032569Y-85711630D01*
X138019873Y-85672555D01*
X138019871Y-85672552D01*
X138019871Y-85672550D01*
X137941231Y-85518211D01*
X137839414Y-85378072D01*
X137716928Y-85255586D01*
X137576788Y-85153768D01*
X137422445Y-85075127D01*
X137257701Y-85021598D01*
X137257699Y-85021597D01*
X137257698Y-85021597D01*
X137126271Y-85000781D01*
X137086611Y-84994500D01*
X136913389Y-84994500D01*
X136873728Y-85000781D01*
X136742302Y-85021597D01*
X136577552Y-85075128D01*
X136423211Y-85153768D01*
X136376923Y-85187399D01*
X136283072Y-85255586D01*
X136283070Y-85255588D01*
X136283068Y-85255589D01*
X136187406Y-85351250D01*
X136126083Y-85384734D01*
X136056391Y-85379749D01*
X136030835Y-85366670D01*
X135926553Y-85296990D01*
X135926540Y-85296983D01*
X135762667Y-85229106D01*
X135762658Y-85229103D01*
X135588694Y-85194500D01*
X135588691Y-85194500D01*
X135411309Y-85194500D01*
X135411306Y-85194500D01*
X135237341Y-85229103D01*
X135237332Y-85229106D01*
X135073459Y-85296983D01*
X135073446Y-85296990D01*
X134925966Y-85395534D01*
X134899056Y-85422445D01*
X134863318Y-85458182D01*
X134801998Y-85491666D01*
X134775639Y-85494500D01*
X132595730Y-85494500D01*
X132565300Y-85497353D01*
X132565298Y-85497353D01*
X132437119Y-85542206D01*
X132437117Y-85542207D01*
X132327850Y-85622850D01*
X132247207Y-85732117D01*
X132241041Y-85749740D01*
X132200319Y-85806516D01*
X132135366Y-85832262D01*
X132066804Y-85818805D01*
X132016402Y-85770417D01*
X132000000Y-85708784D01*
X132000000Y-78124000D01*
X132019685Y-78056961D01*
X132072489Y-78011206D01*
X132124000Y-78000000D01*
X164276000Y-78000000D01*
X164343039Y-78019685D01*
G37*
%TD.AperFunction*%
%TD*%
M02*
