%TF.GenerationSoftware,KiCad,Pcbnew,10.0.7*%
%TF.CreationDate,2026-10-09T18:04:37+02:00*%
%TF.ProjectId,gpio-interface,6770696f-2d69-46e7-9465-72666163652e,C prototype*%
%TF.SameCoordinates,Original*%
%TF.FileFunction,Copper,L2,Bot*%
%TF.FilePolarity,Positive*%
%FSLAX46Y46*%
G04 Gerber Fmt 4.6, Leading zero omitted, Abs format (unit mm)*
G04 Created by KiCad (PCBNEW 10.0.7) date 2026-10-09 18:04:37*
%MOMM*%
%LPD*%
G01*
G04 APERTURE LIST*
G04 Aperture macros list*
%AMRoundRect*
0 Rectangle with rounded corners*
0 $1 Rounding radius*
0 $2 $3 $4 $5 $6 $7 $8 $9 X,Y pos of 4 corners*
0 Add a 4 corners polygon primitive as box body*
4,1,4,$2,$3,$4,$5,$6,$7,$8,$9,$2,$3,0*
0 Add four circle primitives for the rounded corners*
1,1,$1+$1,$2,$3*
1,1,$1+$1,$4,$5*
1,1,$1+$1,$6,$7*
1,1,$1+$1,$8,$9*
0 Add four rect primitives between the rounded corners*
20,1,$1+$1,$2,$3,$4,$5,0*
20,1,$1+$1,$4,$5,$6,$7,0*
20,1,$1+$1,$6,$7,$8,$9,0*
20,1,$1+$1,$8,$9,$2,$3,0*%
G04 Aperture macros list end*
%TA.AperFunction,ComponentPad*%
%ADD10C,1.600000*%
%TD*%
%TA.AperFunction,ComponentPad*%
%ADD11RoundRect,0.250001X1.099999X-1.099999X1.099999X1.099999X-1.099999X1.099999X-1.099999X-1.099999X0*%
%TD*%
%TA.AperFunction,ComponentPad*%
%ADD12C,2.700000*%
%TD*%
%TA.AperFunction,ComponentPad*%
%ADD13R,1.700000X1.700000*%
%TD*%
%TA.AperFunction,ComponentPad*%
%ADD14C,1.700000*%
%TD*%
%TA.AperFunction,ViaPad*%
%ADD15C,1.200000*%
%TD*%
%TA.AperFunction,Conductor*%
%ADD16C,0.350000*%
%TD*%
G04 APERTURE END LIST*
D10*
%TO.P,R3,1*%
%TO.N,DATA_RAW*%
X141000000Y-85000000D03*
%TO.P,R3,2*%
%TO.N,DATA_5V*%
X148620000Y-85000000D03*
%TD*%
%TO.P,R2,1*%
%TO.N,SCLK_3V3*%
X110000000Y-94000000D03*
%TO.P,R2,2*%
%TO.N,GND_PI*%
X117620000Y-94000000D03*
%TD*%
%TO.P,C1,1*%
%TO.N,+3V3_PI*%
X125000000Y-86095000D03*
%TO.P,C1,2*%
%TO.N,GND_PI*%
X125000000Y-91095000D03*
%TD*%
%TO.P,R4,1*%
%TO.N,CLOCK_RAW*%
X139000000Y-94000000D03*
%TO.P,R4,2*%
%TO.N,CLOCK_5V*%
X146620000Y-94000000D03*
%TD*%
%TO.P,C2,1*%
%TO.N,+5V_A*%
X137000000Y-86095000D03*
%TO.P,C2,2*%
%TO.N,GND_A*%
X137000000Y-91095000D03*
%TD*%
%TO.P,R1,1*%
%TO.N,MOSI_3V3*%
X110000000Y-84000000D03*
%TO.P,R1,2*%
%TO.N,GND_PI*%
X117620000Y-84000000D03*
%TD*%
D11*
%TO.P,J3,1*%
%TO.N,+5V_A*%
X155000000Y-93000000D03*
D12*
%TO.P,J3,2*%
%TO.N,DATA_5V*%
X155000000Y-89040000D03*
%TO.P,J3,3*%
%TO.N,CLOCK_5V*%
X155000000Y-85080000D03*
%TO.P,J3,4*%
%TO.N,GND_A*%
X155000000Y-81120000D03*
%TD*%
D13*
%TO.P,J1,1*%
%TO.N,+3V3_PI*%
X108370000Y-74770000D03*
D14*
%TO.P,J1,2*%
%TO.N,unconnected-(J1-Pad2)*%
X108370000Y-72230000D03*
%TO.P,J1,3*%
%TO.N,unconnected-(J1-Pad3)*%
X110910000Y-74770000D03*
%TO.P,J1,4*%
%TO.N,unconnected-(J1-Pad4)*%
X110910000Y-72230000D03*
%TO.P,J1,5*%
%TO.N,unconnected-(J1-Pad5)*%
X113450000Y-74770000D03*
%TO.P,J1,6*%
%TO.N,GND_PI*%
X113450000Y-72230000D03*
%TO.P,J1,7*%
%TO.N,unconnected-(J1-Pad7)*%
X115990000Y-74770000D03*
%TO.P,J1,8*%
%TO.N,unconnected-(J1-Pad8)*%
X115990000Y-72230000D03*
%TO.P,J1,9*%
%TO.N,unconnected-(J1-Pad9)*%
X118530000Y-74770000D03*
%TO.P,J1,10*%
%TO.N,unconnected-(J1-Pad10)*%
X118530000Y-72230000D03*
%TO.P,J1,11*%
%TO.N,unconnected-(J1-Pad11)*%
X121070000Y-74770000D03*
%TO.P,J1,12*%
%TO.N,unconnected-(J1-Pad12)*%
X121070000Y-72230000D03*
%TO.P,J1,13*%
%TO.N,unconnected-(J1-Pad13)*%
X123610000Y-74770000D03*
%TO.P,J1,14*%
%TO.N,unconnected-(J1-Pad14)*%
X123610000Y-72230000D03*
%TO.P,J1,15*%
%TO.N,unconnected-(J1-Pad15)*%
X126150000Y-74770000D03*
%TO.P,J1,16*%
%TO.N,unconnected-(J1-Pad16)*%
X126150000Y-72230000D03*
%TO.P,J1,17*%
%TO.N,unconnected-(J1-Pad17)*%
X128690000Y-74770000D03*
%TO.P,J1,18*%
%TO.N,unconnected-(J1-Pad18)*%
X128690000Y-72230000D03*
%TO.P,J1,19*%
%TO.N,MOSI_3V3*%
X131230000Y-74770000D03*
%TO.P,J1,20*%
%TO.N,unconnected-(J1-Pad20)*%
X131230000Y-72230000D03*
%TO.P,J1,21*%
%TO.N,unconnected-(J1-Pad21)*%
X133770000Y-74770000D03*
%TO.P,J1,22*%
%TO.N,unconnected-(J1-Pad22)*%
X133770000Y-72230000D03*
%TO.P,J1,23*%
%TO.N,SCLK_3V3*%
X136310000Y-74770000D03*
%TO.P,J1,24*%
%TO.N,unconnected-(J1-Pad24)*%
X136310000Y-72230000D03*
%TO.P,J1,25*%
%TO.N,unconnected-(J1-Pad25)*%
X138850000Y-74770000D03*
%TO.P,J1,26*%
%TO.N,unconnected-(J1-Pad26)*%
X138850000Y-72230000D03*
%TO.P,J1,27*%
%TO.N,unconnected-(J1-Pad27)*%
X141390000Y-74770000D03*
%TO.P,J1,28*%
%TO.N,unconnected-(J1-Pad28)*%
X141390000Y-72230000D03*
%TO.P,J1,29*%
%TO.N,unconnected-(J1-Pad29)*%
X143930000Y-74770000D03*
%TO.P,J1,30*%
%TO.N,unconnected-(J1-Pad30)*%
X143930000Y-72230000D03*
%TO.P,J1,31*%
%TO.N,unconnected-(J1-Pad31)*%
X146470000Y-74770000D03*
%TO.P,J1,32*%
%TO.N,unconnected-(J1-Pad32)*%
X146470000Y-72230000D03*
%TO.P,J1,33*%
%TO.N,unconnected-(J1-Pad33)*%
X149010000Y-74770000D03*
%TO.P,J1,34*%
%TO.N,unconnected-(J1-Pad34)*%
X149010000Y-72230000D03*
%TO.P,J1,35*%
%TO.N,unconnected-(J1-Pad35)*%
X151550000Y-74770000D03*
%TO.P,J1,36*%
%TO.N,unconnected-(J1-Pad36)*%
X151550000Y-72230000D03*
%TO.P,J1,37*%
%TO.N,unconnected-(J1-Pad37)*%
X154090000Y-74770000D03*
%TO.P,J1,38*%
%TO.N,unconnected-(J1-Pad38)*%
X154090000Y-72230000D03*
%TO.P,J1,39*%
%TO.N,unconnected-(J1-Pad39)*%
X156630000Y-74770000D03*
%TO.P,J1,40*%
%TO.N,unconnected-(J1-Pad40)*%
X156630000Y-72230000D03*
%TD*%
D15*
%TO.N,+3V3_PI*%
X126500000Y-86095000D03*
%TO.N,+5V_A*%
X135500000Y-86095000D03*
%TD*%
%TO.N,DATA_5V*%
D16*
X153250000Y-89000000D02*
X153000000Y-89000000D01*
X148500000Y-86750000D02*
X148500000Y-86500000D01*
X152750000Y-89000000D02*
X152500000Y-89000000D01*
X154500000Y-89000000D02*
X154250000Y-89000000D01*
X148500000Y-85500000D02*
X148500000Y-85250000D01*
X148500000Y-88500000D02*
X148500000Y-88250000D01*
X150000000Y-89000000D02*
X149750000Y-89000000D01*
X150500000Y-89000000D02*
X150250000Y-89000000D01*
X148500000Y-87250000D02*
X148500000Y-87000000D01*
X149000000Y-89000000D02*
X148750000Y-89000000D01*
X148500000Y-88750000D02*
X148500000Y-88500000D01*
X154250000Y-89000000D02*
X154000000Y-89000000D01*
X148500000Y-85750000D02*
X148500000Y-85500000D01*
X148750000Y-89000000D02*
X148500000Y-89000000D01*
X148500000Y-86000000D02*
X148500000Y-85750000D01*
X152000000Y-89000000D02*
X151750000Y-89000000D01*
X154750000Y-89000000D02*
X154500000Y-89000000D01*
X148500000Y-88000000D02*
X148500000Y-87750000D01*
X148500000Y-87750000D02*
X148500000Y-87500000D01*
X154000000Y-89000000D02*
X153750000Y-89000000D01*
X151250000Y-89000000D02*
X151000000Y-89000000D01*
X148500000Y-86250000D02*
X148500000Y-86000000D01*
X148500000Y-86500000D02*
X148500000Y-86250000D01*
X153500000Y-89000000D02*
X153250000Y-89000000D01*
X148500000Y-89000000D02*
X148500000Y-88750000D01*
X151750000Y-89000000D02*
X151500000Y-89000000D01*
X151000000Y-89000000D02*
X150750000Y-89000000D01*
X151500000Y-89000000D02*
X151250000Y-89000000D01*
X152500000Y-89000000D02*
X152250000Y-89000000D01*
X152250000Y-89000000D02*
X152000000Y-89000000D01*
X148500000Y-85000000D02*
X148620000Y-85000000D01*
X149500000Y-89000000D02*
X149250000Y-89000000D01*
X150250000Y-89000000D02*
X150000000Y-89000000D01*
X153000000Y-89000000D02*
X152750000Y-89000000D01*
X148500000Y-88250000D02*
X148500000Y-88000000D01*
X155000000Y-89040000D02*
X155000000Y-89000000D01*
X153750000Y-89000000D02*
X153500000Y-89000000D01*
X149250000Y-89000000D02*
X149000000Y-89000000D01*
X155000000Y-89000000D02*
X154750000Y-89000000D01*
X148500000Y-87000000D02*
X148500000Y-86750000D01*
X148500000Y-87500000D02*
X148500000Y-87250000D01*
X149750000Y-89000000D02*
X149500000Y-89000000D01*
X148500000Y-85250000D02*
X148500000Y-85000000D01*
X150750000Y-89000000D02*
X150500000Y-89000000D01*
%TD*%
%TA.AperFunction,Conductor*%
%TO.N,+5V_A*%
G36*
X164343039Y-78019685D02*
G01*
X164388794Y-78072489D01*
X164400000Y-78124000D01*
X164400000Y-99276000D01*
X164380315Y-99343039D01*
X164327511Y-99388794D01*
X164276000Y-99400000D01*
X132124000Y-99400000D01*
X132056961Y-99380315D01*
X132011206Y-99327511D01*
X132000000Y-99276000D01*
X132000000Y-93913389D01*
X137899500Y-93913389D01*
X137899500Y-94086611D01*
X137926598Y-94257701D01*
X137980127Y-94422445D01*
X138058768Y-94576788D01*
X138160586Y-94716928D01*
X138283072Y-94839414D01*
X138423212Y-94941232D01*
X138577555Y-95019873D01*
X138742299Y-95073402D01*
X138913389Y-95100500D01*
X138913390Y-95100500D01*
X139086610Y-95100500D01*
X139086611Y-95100500D01*
X139257701Y-95073402D01*
X139422445Y-95019873D01*
X139576788Y-94941232D01*
X139716928Y-94839414D01*
X139839414Y-94716928D01*
X139941232Y-94576788D01*
X140019873Y-94422445D01*
X140073402Y-94257701D01*
X140100500Y-94086611D01*
X140100500Y-93913389D01*
X145519500Y-93913389D01*
X145519500Y-94086611D01*
X145546598Y-94257701D01*
X145600127Y-94422445D01*
X145678768Y-94576788D01*
X145780586Y-94716928D01*
X145903072Y-94839414D01*
X146043212Y-94941232D01*
X146197555Y-95019873D01*
X146362299Y-95073402D01*
X146533389Y-95100500D01*
X146533390Y-95100500D01*
X146706610Y-95100500D01*
X146706611Y-95100500D01*
X146877701Y-95073402D01*
X147042445Y-95019873D01*
X147196788Y-94941232D01*
X147336928Y-94839414D01*
X147459414Y-94716928D01*
X147561232Y-94576788D01*
X147639873Y-94422445D01*
X147693402Y-94257701D01*
X147720500Y-94086611D01*
X147720500Y-93913389D01*
X147693402Y-93742299D01*
X147639873Y-93577555D01*
X147561232Y-93423212D01*
X147459414Y-93283072D01*
X147336928Y-93160586D01*
X147196788Y-93058768D01*
X147042445Y-92980127D01*
X146877701Y-92926598D01*
X146877699Y-92926597D01*
X146877698Y-92926597D01*
X146746271Y-92905781D01*
X146706611Y-92899500D01*
X146533389Y-92899500D01*
X146493728Y-92905781D01*
X146362302Y-92926597D01*
X146197552Y-92980128D01*
X146043211Y-93058768D01*
X145963256Y-93116859D01*
X145903072Y-93160586D01*
X145903070Y-93160588D01*
X145903069Y-93160588D01*
X145780588Y-93283069D01*
X145780588Y-93283070D01*
X145780586Y-93283072D01*
X145736859Y-93343256D01*
X145678768Y-93423211D01*
X145600128Y-93577552D01*
X145546597Y-93742302D01*
X145519500Y-93913389D01*
X140100500Y-93913389D01*
X140073402Y-93742299D01*
X140019873Y-93577555D01*
X139941232Y-93423212D01*
X139839414Y-93283072D01*
X139716928Y-93160586D01*
X139576788Y-93058768D01*
X139422445Y-92980127D01*
X139257701Y-92926598D01*
X139257699Y-92926597D01*
X139257698Y-92926597D01*
X139126271Y-92905781D01*
X139086611Y-92899500D01*
X138913389Y-92899500D01*
X138873728Y-92905781D01*
X138742302Y-92926597D01*
X138577552Y-92980128D01*
X138423211Y-93058768D01*
X138343256Y-93116859D01*
X138283072Y-93160586D01*
X138283070Y-93160588D01*
X138283069Y-93160588D01*
X138160588Y-93283069D01*
X138160588Y-93283070D01*
X138160586Y-93283072D01*
X138116859Y-93343256D01*
X138058768Y-93423211D01*
X137980128Y-93577552D01*
X137926597Y-93742302D01*
X137899500Y-93913389D01*
X132000000Y-93913389D01*
X132000000Y-91008389D01*
X135899500Y-91008389D01*
X135899500Y-91181611D01*
X135926598Y-91352701D01*
X135980127Y-91517445D01*
X136058768Y-91671788D01*
X136160586Y-91811928D01*
X136283072Y-91934414D01*
X136423212Y-92036232D01*
X136577555Y-92114873D01*
X136742299Y-92168402D01*
X136913389Y-92195500D01*
X136913390Y-92195500D01*
X137086610Y-92195500D01*
X137086611Y-92195500D01*
X137257701Y-92168402D01*
X137422445Y-92114873D01*
X137576788Y-92036232D01*
X137716928Y-91934414D01*
X137839414Y-91811928D01*
X137941232Y-91671788D01*
X138019873Y-91517445D01*
X138073402Y-91352701D01*
X138100500Y-91181611D01*
X138100500Y-91008389D01*
X138073402Y-90837299D01*
X138019873Y-90672555D01*
X137941232Y-90518212D01*
X137839414Y-90378072D01*
X137716928Y-90255586D01*
X137576788Y-90153768D01*
X137422445Y-90075127D01*
X137257701Y-90021598D01*
X137257699Y-90021597D01*
X137257698Y-90021597D01*
X137126271Y-90000781D01*
X137086611Y-89994500D01*
X136913389Y-89994500D01*
X136873728Y-90000781D01*
X136742302Y-90021597D01*
X136577552Y-90075128D01*
X136423211Y-90153768D01*
X136343256Y-90211859D01*
X136283072Y-90255586D01*
X136283070Y-90255588D01*
X136283069Y-90255588D01*
X136160588Y-90378069D01*
X136160588Y-90378070D01*
X136160586Y-90378072D01*
X136116859Y-90438256D01*
X136058768Y-90518211D01*
X135980128Y-90672552D01*
X135926597Y-90837302D01*
X135899500Y-91008389D01*
X132000000Y-91008389D01*
X132000000Y-84913389D01*
X139899500Y-84913389D01*
X139899500Y-85086610D01*
X139919026Y-85209897D01*
X139926598Y-85257701D01*
X139980127Y-85422445D01*
X140058768Y-85576788D01*
X140160586Y-85716928D01*
X140283072Y-85839414D01*
X140423212Y-85941232D01*
X140577555Y-86019873D01*
X140742299Y-86073402D01*
X140913389Y-86100500D01*
X140913390Y-86100500D01*
X141086610Y-86100500D01*
X141086611Y-86100500D01*
X141257701Y-86073402D01*
X141422445Y-86019873D01*
X141576788Y-85941232D01*
X141716928Y-85839414D01*
X141839414Y-85716928D01*
X141941232Y-85576788D01*
X142019873Y-85422445D01*
X142073402Y-85257701D01*
X142100500Y-85086611D01*
X142100500Y-84913389D01*
X147519500Y-84913389D01*
X147519500Y-85086610D01*
X147539026Y-85209897D01*
X147546598Y-85257701D01*
X147600127Y-85422445D01*
X147678768Y-85576788D01*
X147780586Y-85716928D01*
X147780588Y-85716930D01*
X147903075Y-85839417D01*
X147973384Y-85890498D01*
X148016051Y-85945827D01*
X148024500Y-85990817D01*
X148024500Y-86187399D01*
X148024500Y-86437399D01*
X148024500Y-86687399D01*
X148024500Y-86937399D01*
X148024500Y-87187399D01*
X148024500Y-87437399D01*
X148024500Y-87687399D01*
X148024500Y-87937399D01*
X148024500Y-88187399D01*
X148024500Y-88437399D01*
X148024500Y-88687399D01*
X148024500Y-89062601D01*
X148056905Y-89183536D01*
X148119505Y-89291964D01*
X148208036Y-89380495D01*
X148316464Y-89443095D01*
X148437399Y-89475500D01*
X148562601Y-89475500D01*
X148687399Y-89475500D01*
X148937399Y-89475500D01*
X149187399Y-89475500D01*
X149437399Y-89475500D01*
X149687399Y-89475500D01*
X149937399Y-89475500D01*
X150187399Y-89475500D01*
X150437399Y-89475500D01*
X150687399Y-89475500D01*
X150937399Y-89475500D01*
X151187399Y-89475500D01*
X151437399Y-89475500D01*
X151687399Y-89475500D01*
X151937399Y-89475500D01*
X152187399Y-89475500D01*
X152437399Y-89475500D01*
X152687399Y-89475500D01*
X152937399Y-89475500D01*
X153187399Y-89475500D01*
X153315972Y-89475500D01*
X153383011Y-89495185D01*
X153428766Y-89547989D01*
X153433903Y-89561181D01*
X153470422Y-89673576D01*
X153551534Y-89832764D01*
X153588366Y-89905051D01*
X153741069Y-90115229D01*
X153924771Y-90298931D01*
X154134949Y-90451634D01*
X154265613Y-90518211D01*
X154366423Y-90569577D01*
X154366425Y-90569577D01*
X154366428Y-90569579D01*
X154613507Y-90649860D01*
X154745706Y-90670797D01*
X154870098Y-90690500D01*
X154870103Y-90690500D01*
X155129902Y-90690500D01*
X155243298Y-90672539D01*
X155386493Y-90649860D01*
X155633572Y-90569579D01*
X155865051Y-90451634D01*
X156075229Y-90298931D01*
X156258931Y-90115229D01*
X156411634Y-89905051D01*
X156529579Y-89673572D01*
X156609860Y-89426493D01*
X156632539Y-89283298D01*
X156650500Y-89169902D01*
X156650500Y-88910097D01*
X156628947Y-88774021D01*
X156609860Y-88653507D01*
X156529579Y-88406428D01*
X156529577Y-88406425D01*
X156529577Y-88406423D01*
X156486787Y-88322445D01*
X156411634Y-88174949D01*
X156258931Y-87964771D01*
X156075229Y-87781069D01*
X155865051Y-87628366D01*
X155792764Y-87591534D01*
X155633576Y-87510422D01*
X155386493Y-87430140D01*
X155129902Y-87389500D01*
X155129897Y-87389500D01*
X154870103Y-87389500D01*
X154870098Y-87389500D01*
X154613506Y-87430140D01*
X154366423Y-87510422D01*
X154134945Y-87628368D01*
X153924774Y-87781066D01*
X153924768Y-87781071D01*
X153741071Y-87964768D01*
X153741066Y-87964774D01*
X153588368Y-88174945D01*
X153470422Y-88406423D01*
X153459897Y-88438819D01*
X153420459Y-88496494D01*
X153356100Y-88523692D01*
X153341966Y-88524500D01*
X149099500Y-88524500D01*
X149032461Y-88504815D01*
X148986706Y-88452011D01*
X148975500Y-88400500D01*
X148975500Y-86129970D01*
X148995185Y-86062931D01*
X149043206Y-86019485D01*
X149196786Y-85941233D01*
X149196785Y-85941233D01*
X149196788Y-85941232D01*
X149336928Y-85839414D01*
X149459414Y-85716928D01*
X149561232Y-85576788D01*
X149639873Y-85422445D01*
X149693402Y-85257701D01*
X149720500Y-85086611D01*
X149720500Y-84950097D01*
X153349500Y-84950097D01*
X153349500Y-85209902D01*
X153390140Y-85466493D01*
X153470422Y-85713576D01*
X153551534Y-85872764D01*
X153588366Y-85945051D01*
X153741069Y-86155229D01*
X153924771Y-86338931D01*
X154134949Y-86491634D01*
X154282445Y-86566787D01*
X154366423Y-86609577D01*
X154366425Y-86609577D01*
X154366428Y-86609579D01*
X154613507Y-86689860D01*
X154745706Y-86710797D01*
X154870098Y-86730500D01*
X154870103Y-86730500D01*
X155129902Y-86730500D01*
X155243298Y-86712539D01*
X155386493Y-86689860D01*
X155633572Y-86609579D01*
X155865051Y-86491634D01*
X156075229Y-86338931D01*
X156258931Y-86155229D01*
X156411634Y-85945051D01*
X156529579Y-85713572D01*
X156609860Y-85466493D01*
X156642929Y-85257701D01*
X156650500Y-85209902D01*
X156650500Y-84950097D01*
X156617588Y-84742302D01*
X156609860Y-84693507D01*
X156529579Y-84446428D01*
X156529577Y-84446425D01*
X156529577Y-84446423D01*
X156486787Y-84362445D01*
X156411634Y-84214949D01*
X156258931Y-84004771D01*
X156075229Y-83821069D01*
X155865051Y-83668366D01*
X155792764Y-83631534D01*
X155633576Y-83550422D01*
X155386493Y-83470140D01*
X155129902Y-83429500D01*
X155129897Y-83429500D01*
X154870103Y-83429500D01*
X154870098Y-83429500D01*
X154613506Y-83470140D01*
X154366423Y-83550422D01*
X154134945Y-83668368D01*
X153924774Y-83821066D01*
X153924768Y-83821071D01*
X153741071Y-84004768D01*
X153741066Y-84004774D01*
X153588368Y-84214945D01*
X153470422Y-84446423D01*
X153390140Y-84693506D01*
X153349500Y-84950097D01*
X149720500Y-84950097D01*
X149720500Y-84913389D01*
X149693402Y-84742299D01*
X149639873Y-84577555D01*
X149561232Y-84423212D01*
X149459414Y-84283072D01*
X149336928Y-84160586D01*
X149196788Y-84058768D01*
X149042445Y-83980127D01*
X148877701Y-83926598D01*
X148877699Y-83926597D01*
X148877698Y-83926597D01*
X148746271Y-83905781D01*
X148706611Y-83899500D01*
X148533389Y-83899500D01*
X148493728Y-83905781D01*
X148362302Y-83926597D01*
X148197552Y-83980128D01*
X148043211Y-84058768D01*
X147963256Y-84116859D01*
X147903072Y-84160586D01*
X147903070Y-84160588D01*
X147903069Y-84160588D01*
X147780588Y-84283069D01*
X147780588Y-84283070D01*
X147780586Y-84283072D01*
X147736859Y-84343256D01*
X147678768Y-84423211D01*
X147600128Y-84577552D01*
X147546597Y-84742302D01*
X147519500Y-84913389D01*
X142100500Y-84913389D01*
X142073402Y-84742299D01*
X142019873Y-84577555D01*
X141941232Y-84423212D01*
X141839414Y-84283072D01*
X141716928Y-84160586D01*
X141576788Y-84058768D01*
X141422445Y-83980127D01*
X141257701Y-83926598D01*
X141257699Y-83926597D01*
X141257698Y-83926597D01*
X141126271Y-83905781D01*
X141086611Y-83899500D01*
X140913389Y-83899500D01*
X140873728Y-83905781D01*
X140742302Y-83926597D01*
X140577552Y-83980128D01*
X140423211Y-84058768D01*
X140343256Y-84116859D01*
X140283072Y-84160586D01*
X140283070Y-84160588D01*
X140283069Y-84160588D01*
X140160588Y-84283069D01*
X140160588Y-84283070D01*
X140160586Y-84283072D01*
X140116859Y-84343256D01*
X140058768Y-84423211D01*
X139980128Y-84577552D01*
X139926597Y-84742302D01*
X139899500Y-84913389D01*
X132000000Y-84913389D01*
X132000000Y-80990097D01*
X153349500Y-80990097D01*
X153349500Y-81249902D01*
X153390140Y-81506493D01*
X153470422Y-81753576D01*
X153551534Y-81912764D01*
X153588366Y-81985051D01*
X153741069Y-82195229D01*
X153924771Y-82378931D01*
X154134949Y-82531634D01*
X154282445Y-82606787D01*
X154366423Y-82649577D01*
X154366425Y-82649577D01*
X154366428Y-82649579D01*
X154613507Y-82729860D01*
X154745706Y-82750797D01*
X154870098Y-82770500D01*
X154870103Y-82770500D01*
X155129902Y-82770500D01*
X155243298Y-82752539D01*
X155386493Y-82729860D01*
X155633572Y-82649579D01*
X155865051Y-82531634D01*
X156075229Y-82378931D01*
X156258931Y-82195229D01*
X156411634Y-81985051D01*
X156529579Y-81753572D01*
X156609860Y-81506493D01*
X156632539Y-81363298D01*
X156650500Y-81249902D01*
X156650500Y-80990097D01*
X156628947Y-80854021D01*
X156609860Y-80733507D01*
X156529579Y-80486428D01*
X156529577Y-80486425D01*
X156529577Y-80486423D01*
X156486787Y-80402445D01*
X156411634Y-80254949D01*
X156258931Y-80044771D01*
X156075229Y-79861069D01*
X155865051Y-79708366D01*
X155792764Y-79671534D01*
X155633576Y-79590422D01*
X155386493Y-79510140D01*
X155129902Y-79469500D01*
X155129897Y-79469500D01*
X154870103Y-79469500D01*
X154870098Y-79469500D01*
X154613506Y-79510140D01*
X154366423Y-79590422D01*
X154134945Y-79708368D01*
X153924774Y-79861066D01*
X153924768Y-79861071D01*
X153741071Y-80044768D01*
X153741066Y-80044774D01*
X153588368Y-80254945D01*
X153470422Y-80486423D01*
X153390140Y-80733506D01*
X153349500Y-80990097D01*
X132000000Y-80990097D01*
X132000000Y-78124000D01*
X132019685Y-78056961D01*
X132072489Y-78011206D01*
X132124000Y-78000000D01*
X164276000Y-78000000D01*
X164343039Y-78019685D01*
G37*
%TD.AperFunction*%
%TD*%
%TA.AperFunction,Conductor*%
%TO.N,+3V3_PI*%
G36*
X129943039Y-70619685D02*
G01*
X129988794Y-70672489D01*
X130000000Y-70724000D01*
X130000000Y-71755760D01*
X129980315Y-71822799D01*
X129927511Y-71868554D01*
X129858353Y-71878498D01*
X129794797Y-71849473D01*
X129758069Y-71794079D01*
X129757750Y-71793098D01*
X129756211Y-71788361D01*
X129756210Y-71788360D01*
X129756211Y-71788360D01*
X129727740Y-71732484D01*
X129673996Y-71627006D01*
X129660396Y-71608287D01*
X129567558Y-71480505D01*
X129567554Y-71480500D01*
X129439499Y-71352445D01*
X129439494Y-71352441D01*
X129292997Y-71246006D01*
X129292996Y-71246005D01*
X129292994Y-71246004D01*
X129241300Y-71219664D01*
X129131639Y-71163788D01*
X129131636Y-71163787D01*
X128959410Y-71107829D01*
X128780551Y-71079500D01*
X128780546Y-71079500D01*
X128599454Y-71079500D01*
X128599449Y-71079500D01*
X128420589Y-71107829D01*
X128248363Y-71163787D01*
X128248360Y-71163788D01*
X128087002Y-71246006D01*
X127940505Y-71352441D01*
X127940500Y-71352445D01*
X127812445Y-71480500D01*
X127812441Y-71480505D01*
X127706006Y-71627002D01*
X127623788Y-71788360D01*
X127623787Y-71788363D01*
X127567829Y-71960589D01*
X127542473Y-72120678D01*
X127512544Y-72183813D01*
X127453232Y-72220744D01*
X127383369Y-72219746D01*
X127325137Y-72181136D01*
X127297527Y-72120678D01*
X127281067Y-72016759D01*
X127272171Y-71960591D01*
X127236067Y-71849473D01*
X127216212Y-71788363D01*
X127216211Y-71788360D01*
X127187740Y-71732484D01*
X127133996Y-71627006D01*
X127120396Y-71608287D01*
X127027558Y-71480505D01*
X127027554Y-71480500D01*
X126899499Y-71352445D01*
X126899494Y-71352441D01*
X126752997Y-71246006D01*
X126752996Y-71246005D01*
X126752994Y-71246004D01*
X126701300Y-71219664D01*
X126591639Y-71163788D01*
X126591636Y-71163787D01*
X126419410Y-71107829D01*
X126240551Y-71079500D01*
X126240546Y-71079500D01*
X126059454Y-71079500D01*
X126059449Y-71079500D01*
X125880589Y-71107829D01*
X125708363Y-71163787D01*
X125708360Y-71163788D01*
X125547002Y-71246006D01*
X125400505Y-71352441D01*
X125400500Y-71352445D01*
X125272445Y-71480500D01*
X125272441Y-71480505D01*
X125166006Y-71627002D01*
X125083788Y-71788360D01*
X125083787Y-71788363D01*
X125027829Y-71960589D01*
X125002473Y-72120678D01*
X124972544Y-72183813D01*
X124913232Y-72220744D01*
X124843369Y-72219746D01*
X124785137Y-72181136D01*
X124757527Y-72120678D01*
X124741067Y-72016759D01*
X124732171Y-71960591D01*
X124696067Y-71849473D01*
X124676212Y-71788363D01*
X124676211Y-71788360D01*
X124647740Y-71732484D01*
X124593996Y-71627006D01*
X124580396Y-71608287D01*
X124487558Y-71480505D01*
X124487554Y-71480500D01*
X124359499Y-71352445D01*
X124359494Y-71352441D01*
X124212997Y-71246006D01*
X124212996Y-71246005D01*
X124212994Y-71246004D01*
X124161300Y-71219664D01*
X124051639Y-71163788D01*
X124051636Y-71163787D01*
X123879410Y-71107829D01*
X123700551Y-71079500D01*
X123700546Y-71079500D01*
X123519454Y-71079500D01*
X123519449Y-71079500D01*
X123340589Y-71107829D01*
X123168363Y-71163787D01*
X123168360Y-71163788D01*
X123007002Y-71246006D01*
X122860505Y-71352441D01*
X122860500Y-71352445D01*
X122732445Y-71480500D01*
X122732441Y-71480505D01*
X122626006Y-71627002D01*
X122543788Y-71788360D01*
X122543787Y-71788363D01*
X122487829Y-71960589D01*
X122462473Y-72120678D01*
X122432544Y-72183813D01*
X122373232Y-72220744D01*
X122303369Y-72219746D01*
X122245137Y-72181136D01*
X122217527Y-72120678D01*
X122201067Y-72016759D01*
X122192171Y-71960591D01*
X122156067Y-71849473D01*
X122136212Y-71788363D01*
X122136211Y-71788360D01*
X122107740Y-71732484D01*
X122053996Y-71627006D01*
X122040396Y-71608287D01*
X121947558Y-71480505D01*
X121947554Y-71480500D01*
X121819499Y-71352445D01*
X121819494Y-71352441D01*
X121672997Y-71246006D01*
X121672996Y-71246005D01*
X121672994Y-71246004D01*
X121621300Y-71219664D01*
X121511639Y-71163788D01*
X121511636Y-71163787D01*
X121339410Y-71107829D01*
X121160551Y-71079500D01*
X121160546Y-71079500D01*
X120979454Y-71079500D01*
X120979449Y-71079500D01*
X120800589Y-71107829D01*
X120628363Y-71163787D01*
X120628360Y-71163788D01*
X120467002Y-71246006D01*
X120320505Y-71352441D01*
X120320500Y-71352445D01*
X120192445Y-71480500D01*
X120192441Y-71480505D01*
X120086006Y-71627002D01*
X120003788Y-71788360D01*
X120003787Y-71788363D01*
X119947829Y-71960589D01*
X119922473Y-72120678D01*
X119892544Y-72183813D01*
X119833232Y-72220744D01*
X119763369Y-72219746D01*
X119705137Y-72181136D01*
X119677527Y-72120678D01*
X119661067Y-72016759D01*
X119652171Y-71960591D01*
X119616067Y-71849473D01*
X119596212Y-71788363D01*
X119596211Y-71788360D01*
X119567740Y-71732484D01*
X119513996Y-71627006D01*
X119500396Y-71608287D01*
X119407558Y-71480505D01*
X119407554Y-71480500D01*
X119279499Y-71352445D01*
X119279494Y-71352441D01*
X119132997Y-71246006D01*
X119132996Y-71246005D01*
X119132994Y-71246004D01*
X119081300Y-71219664D01*
X118971639Y-71163788D01*
X118971636Y-71163787D01*
X118799410Y-71107829D01*
X118620551Y-71079500D01*
X118620546Y-71079500D01*
X118439454Y-71079500D01*
X118439449Y-71079500D01*
X118260589Y-71107829D01*
X118088363Y-71163787D01*
X118088360Y-71163788D01*
X117927002Y-71246006D01*
X117780505Y-71352441D01*
X117780500Y-71352445D01*
X117652445Y-71480500D01*
X117652441Y-71480505D01*
X117546006Y-71627002D01*
X117463788Y-71788360D01*
X117463787Y-71788363D01*
X117407829Y-71960589D01*
X117382473Y-72120678D01*
X117352544Y-72183813D01*
X117293232Y-72220744D01*
X117223369Y-72219746D01*
X117165137Y-72181136D01*
X117137527Y-72120678D01*
X117121067Y-72016759D01*
X117112171Y-71960591D01*
X117076067Y-71849473D01*
X117056212Y-71788363D01*
X117056211Y-71788360D01*
X117027740Y-71732484D01*
X116973996Y-71627006D01*
X116960396Y-71608287D01*
X116867558Y-71480505D01*
X116867554Y-71480500D01*
X116739499Y-71352445D01*
X116739494Y-71352441D01*
X116592997Y-71246006D01*
X116592996Y-71246005D01*
X116592994Y-71246004D01*
X116541300Y-71219664D01*
X116431639Y-71163788D01*
X116431636Y-71163787D01*
X116259410Y-71107829D01*
X116080551Y-71079500D01*
X116080546Y-71079500D01*
X115899454Y-71079500D01*
X115899449Y-71079500D01*
X115720589Y-71107829D01*
X115548363Y-71163787D01*
X115548360Y-71163788D01*
X115387002Y-71246006D01*
X115240505Y-71352441D01*
X115240500Y-71352445D01*
X115112445Y-71480500D01*
X115112441Y-71480505D01*
X115006006Y-71627002D01*
X114923788Y-71788360D01*
X114923787Y-71788363D01*
X114867829Y-71960589D01*
X114842473Y-72120678D01*
X114812544Y-72183813D01*
X114753232Y-72220744D01*
X114683369Y-72219746D01*
X114625137Y-72181136D01*
X114597527Y-72120678D01*
X114581067Y-72016759D01*
X114572171Y-71960591D01*
X114536067Y-71849473D01*
X114516212Y-71788363D01*
X114516211Y-71788360D01*
X114487740Y-71732484D01*
X114433996Y-71627006D01*
X114420396Y-71608287D01*
X114327558Y-71480505D01*
X114327554Y-71480500D01*
X114199499Y-71352445D01*
X114199494Y-71352441D01*
X114052997Y-71246006D01*
X114052996Y-71246005D01*
X114052994Y-71246004D01*
X114001300Y-71219664D01*
X113891639Y-71163788D01*
X113891636Y-71163787D01*
X113719410Y-71107829D01*
X113540551Y-71079500D01*
X113540546Y-71079500D01*
X113359454Y-71079500D01*
X113359449Y-71079500D01*
X113180589Y-71107829D01*
X113008363Y-71163787D01*
X113008360Y-71163788D01*
X112847002Y-71246006D01*
X112700505Y-71352441D01*
X112700500Y-71352445D01*
X112572445Y-71480500D01*
X112572441Y-71480505D01*
X112466006Y-71627002D01*
X112383788Y-71788360D01*
X112383787Y-71788363D01*
X112327829Y-71960589D01*
X112302473Y-72120678D01*
X112272544Y-72183813D01*
X112213232Y-72220744D01*
X112143369Y-72219746D01*
X112085137Y-72181136D01*
X112057527Y-72120678D01*
X112041067Y-72016759D01*
X112032171Y-71960591D01*
X111996067Y-71849473D01*
X111976212Y-71788363D01*
X111976211Y-71788360D01*
X111947740Y-71732484D01*
X111893996Y-71627006D01*
X111880396Y-71608287D01*
X111787558Y-71480505D01*
X111787554Y-71480500D01*
X111659499Y-71352445D01*
X111659494Y-71352441D01*
X111512997Y-71246006D01*
X111512996Y-71246005D01*
X111512994Y-71246004D01*
X111461300Y-71219664D01*
X111351639Y-71163788D01*
X111351636Y-71163787D01*
X111179410Y-71107829D01*
X111000551Y-71079500D01*
X111000546Y-71079500D01*
X110819454Y-71079500D01*
X110819449Y-71079500D01*
X110640589Y-71107829D01*
X110468363Y-71163787D01*
X110468360Y-71163788D01*
X110307002Y-71246006D01*
X110160505Y-71352441D01*
X110160500Y-71352445D01*
X110032445Y-71480500D01*
X110032441Y-71480505D01*
X109926006Y-71627002D01*
X109843788Y-71788360D01*
X109843787Y-71788363D01*
X109787829Y-71960589D01*
X109762473Y-72120678D01*
X109732544Y-72183813D01*
X109673232Y-72220744D01*
X109603369Y-72219746D01*
X109545137Y-72181136D01*
X109517527Y-72120678D01*
X109501067Y-72016759D01*
X109492171Y-71960591D01*
X109456067Y-71849473D01*
X109436212Y-71788363D01*
X109436211Y-71788360D01*
X109407740Y-71732484D01*
X109353996Y-71627006D01*
X109340396Y-71608287D01*
X109247558Y-71480505D01*
X109247554Y-71480500D01*
X109119499Y-71352445D01*
X109119494Y-71352441D01*
X108972997Y-71246006D01*
X108972996Y-71246005D01*
X108972994Y-71246004D01*
X108921300Y-71219664D01*
X108811639Y-71163788D01*
X108811636Y-71163787D01*
X108639410Y-71107829D01*
X108460551Y-71079500D01*
X108460546Y-71079500D01*
X108279454Y-71079500D01*
X108279449Y-71079500D01*
X108100589Y-71107829D01*
X107928363Y-71163787D01*
X107928360Y-71163788D01*
X107767002Y-71246006D01*
X107620505Y-71352441D01*
X107620500Y-71352445D01*
X107492445Y-71480500D01*
X107492441Y-71480505D01*
X107386006Y-71627002D01*
X107303788Y-71788360D01*
X107303787Y-71788363D01*
X107247829Y-71960589D01*
X107219500Y-72139448D01*
X107219500Y-72320551D01*
X107247829Y-72499410D01*
X107303787Y-72671636D01*
X107303788Y-72671639D01*
X107386006Y-72832997D01*
X107492441Y-72979494D01*
X107492445Y-72979499D01*
X107620500Y-73107554D01*
X107620505Y-73107558D01*
X107748287Y-73200396D01*
X107767006Y-73213996D01*
X107872484Y-73267740D01*
X107928360Y-73296211D01*
X107928363Y-73296212D01*
X108014476Y-73324191D01*
X108100591Y-73352171D01*
X108183429Y-73365291D01*
X108279449Y-73380500D01*
X108279454Y-73380500D01*
X108460551Y-73380500D01*
X108547259Y-73366765D01*
X108639409Y-73352171D01*
X108811639Y-73296211D01*
X108972994Y-73213996D01*
X109119501Y-73107553D01*
X109247553Y-72979501D01*
X109353996Y-72832994D01*
X109436211Y-72671639D01*
X109492171Y-72499409D01*
X109506422Y-72409425D01*
X109517527Y-72339321D01*
X109547456Y-72276186D01*
X109606768Y-72239255D01*
X109676630Y-72240253D01*
X109734863Y-72278863D01*
X109762473Y-72339321D01*
X109787829Y-72499410D01*
X109843787Y-72671636D01*
X109843788Y-72671639D01*
X109926006Y-72832997D01*
X110032441Y-72979494D01*
X110032445Y-72979499D01*
X110160500Y-73107554D01*
X110160505Y-73107558D01*
X110288287Y-73200396D01*
X110307006Y-73213996D01*
X110412484Y-73267740D01*
X110468360Y-73296211D01*
X110468363Y-73296212D01*
X110554476Y-73324191D01*
X110640591Y-73352171D01*
X110713639Y-73363740D01*
X110800678Y-73377527D01*
X110863813Y-73407456D01*
X110900744Y-73466768D01*
X110899746Y-73536631D01*
X110861136Y-73594863D01*
X110800678Y-73622473D01*
X110640589Y-73647829D01*
X110468363Y-73703787D01*
X110468360Y-73703788D01*
X110307002Y-73786006D01*
X110160505Y-73892441D01*
X110160500Y-73892445D01*
X110032445Y-74020500D01*
X110032441Y-74020505D01*
X109926006Y-74167002D01*
X109843788Y-74328360D01*
X109843787Y-74328363D01*
X109787829Y-74500589D01*
X109759500Y-74679448D01*
X109759500Y-74860551D01*
X109787829Y-75039410D01*
X109843787Y-75211636D01*
X109843788Y-75211639D01*
X109926006Y-75372997D01*
X110032441Y-75519494D01*
X110032445Y-75519499D01*
X110160500Y-75647554D01*
X110160505Y-75647558D01*
X110288287Y-75740396D01*
X110307006Y-75753996D01*
X110412484Y-75807740D01*
X110468360Y-75836211D01*
X110468363Y-75836212D01*
X110554476Y-75864191D01*
X110640591Y-75892171D01*
X110723429Y-75905291D01*
X110819449Y-75920500D01*
X110819454Y-75920500D01*
X111000551Y-75920500D01*
X111087259Y-75906765D01*
X111179409Y-75892171D01*
X111351639Y-75836211D01*
X111512994Y-75753996D01*
X111659501Y-75647553D01*
X111787553Y-75519501D01*
X111893996Y-75372994D01*
X111976211Y-75211639D01*
X112032171Y-75039409D01*
X112046422Y-74949425D01*
X112057527Y-74879321D01*
X112087456Y-74816186D01*
X112146768Y-74779255D01*
X112216630Y-74780253D01*
X112274863Y-74818863D01*
X112302473Y-74879321D01*
X112327829Y-75039410D01*
X112383787Y-75211636D01*
X112383788Y-75211639D01*
X112466006Y-75372997D01*
X112572441Y-75519494D01*
X112572445Y-75519499D01*
X112700500Y-75647554D01*
X112700505Y-75647558D01*
X112828287Y-75740396D01*
X112847006Y-75753996D01*
X112952484Y-75807740D01*
X113008360Y-75836211D01*
X113008363Y-75836212D01*
X113094476Y-75864191D01*
X113180591Y-75892171D01*
X113263429Y-75905291D01*
X113359449Y-75920500D01*
X113359454Y-75920500D01*
X113540551Y-75920500D01*
X113627259Y-75906765D01*
X113719409Y-75892171D01*
X113891639Y-75836211D01*
X114052994Y-75753996D01*
X114199501Y-75647553D01*
X114327553Y-75519501D01*
X114433996Y-75372994D01*
X114516211Y-75211639D01*
X114572171Y-75039409D01*
X114586422Y-74949425D01*
X114597527Y-74879321D01*
X114627456Y-74816186D01*
X114686768Y-74779255D01*
X114756630Y-74780253D01*
X114814863Y-74818863D01*
X114842473Y-74879321D01*
X114867829Y-75039410D01*
X114923787Y-75211636D01*
X114923788Y-75211639D01*
X115006006Y-75372997D01*
X115112441Y-75519494D01*
X115112445Y-75519499D01*
X115240500Y-75647554D01*
X115240505Y-75647558D01*
X115368287Y-75740396D01*
X115387006Y-75753996D01*
X115492484Y-75807740D01*
X115548360Y-75836211D01*
X115548363Y-75836212D01*
X115634476Y-75864191D01*
X115720591Y-75892171D01*
X115803429Y-75905291D01*
X115899449Y-75920500D01*
X115899454Y-75920500D01*
X116080551Y-75920500D01*
X116167259Y-75906765D01*
X116259409Y-75892171D01*
X116431639Y-75836211D01*
X116592994Y-75753996D01*
X116739501Y-75647553D01*
X116867553Y-75519501D01*
X116973996Y-75372994D01*
X117056211Y-75211639D01*
X117112171Y-75039409D01*
X117126422Y-74949425D01*
X117137527Y-74879321D01*
X117167456Y-74816186D01*
X117226768Y-74779255D01*
X117296630Y-74780253D01*
X117354863Y-74818863D01*
X117382473Y-74879321D01*
X117407829Y-75039410D01*
X117463787Y-75211636D01*
X117463788Y-75211639D01*
X117546006Y-75372997D01*
X117652441Y-75519494D01*
X117652445Y-75519499D01*
X117780500Y-75647554D01*
X117780505Y-75647558D01*
X117908287Y-75740396D01*
X117927006Y-75753996D01*
X118032484Y-75807740D01*
X118088360Y-75836211D01*
X118088363Y-75836212D01*
X118174476Y-75864191D01*
X118260591Y-75892171D01*
X118343429Y-75905291D01*
X118439449Y-75920500D01*
X118439454Y-75920500D01*
X118620551Y-75920500D01*
X118707259Y-75906765D01*
X118799409Y-75892171D01*
X118971639Y-75836211D01*
X119132994Y-75753996D01*
X119279501Y-75647553D01*
X119407553Y-75519501D01*
X119513996Y-75372994D01*
X119596211Y-75211639D01*
X119652171Y-75039409D01*
X119666422Y-74949425D01*
X119677527Y-74879321D01*
X119707456Y-74816186D01*
X119766768Y-74779255D01*
X119836630Y-74780253D01*
X119894863Y-74818863D01*
X119922473Y-74879321D01*
X119947829Y-75039410D01*
X120003787Y-75211636D01*
X120003788Y-75211639D01*
X120086006Y-75372997D01*
X120192441Y-75519494D01*
X120192445Y-75519499D01*
X120320500Y-75647554D01*
X120320505Y-75647558D01*
X120448287Y-75740396D01*
X120467006Y-75753996D01*
X120572484Y-75807740D01*
X120628360Y-75836211D01*
X120628363Y-75836212D01*
X120714476Y-75864191D01*
X120800591Y-75892171D01*
X120883429Y-75905291D01*
X120979449Y-75920500D01*
X120979454Y-75920500D01*
X121160551Y-75920500D01*
X121247259Y-75906765D01*
X121339409Y-75892171D01*
X121511639Y-75836211D01*
X121672994Y-75753996D01*
X121819501Y-75647553D01*
X121947553Y-75519501D01*
X122053996Y-75372994D01*
X122136211Y-75211639D01*
X122192171Y-75039409D01*
X122206422Y-74949425D01*
X122217527Y-74879321D01*
X122247456Y-74816186D01*
X122306768Y-74779255D01*
X122376630Y-74780253D01*
X122434863Y-74818863D01*
X122462473Y-74879321D01*
X122487829Y-75039410D01*
X122543787Y-75211636D01*
X122543788Y-75211639D01*
X122626006Y-75372997D01*
X122732441Y-75519494D01*
X122732445Y-75519499D01*
X122860500Y-75647554D01*
X122860505Y-75647558D01*
X122988287Y-75740396D01*
X123007006Y-75753996D01*
X123112484Y-75807740D01*
X123168360Y-75836211D01*
X123168363Y-75836212D01*
X123254476Y-75864191D01*
X123340591Y-75892171D01*
X123423429Y-75905291D01*
X123519449Y-75920500D01*
X123519454Y-75920500D01*
X123700551Y-75920500D01*
X123787259Y-75906765D01*
X123879409Y-75892171D01*
X124051639Y-75836211D01*
X124212994Y-75753996D01*
X124359501Y-75647553D01*
X124487553Y-75519501D01*
X124593996Y-75372994D01*
X124676211Y-75211639D01*
X124732171Y-75039409D01*
X124746422Y-74949425D01*
X124757527Y-74879321D01*
X124787456Y-74816186D01*
X124846768Y-74779255D01*
X124916630Y-74780253D01*
X124974863Y-74818863D01*
X125002473Y-74879321D01*
X125027829Y-75039410D01*
X125083787Y-75211636D01*
X125083788Y-75211639D01*
X125166006Y-75372997D01*
X125272441Y-75519494D01*
X125272445Y-75519499D01*
X125400500Y-75647554D01*
X125400505Y-75647558D01*
X125528287Y-75740396D01*
X125547006Y-75753996D01*
X125652484Y-75807740D01*
X125708360Y-75836211D01*
X125708363Y-75836212D01*
X125794476Y-75864191D01*
X125880591Y-75892171D01*
X125963429Y-75905291D01*
X126059449Y-75920500D01*
X126059454Y-75920500D01*
X126240551Y-75920500D01*
X126327259Y-75906765D01*
X126419409Y-75892171D01*
X126591639Y-75836211D01*
X126752994Y-75753996D01*
X126899501Y-75647553D01*
X127027553Y-75519501D01*
X127133996Y-75372994D01*
X127216211Y-75211639D01*
X127272171Y-75039409D01*
X127286422Y-74949425D01*
X127297527Y-74879321D01*
X127327456Y-74816186D01*
X127386768Y-74779255D01*
X127456630Y-74780253D01*
X127514863Y-74818863D01*
X127542473Y-74879321D01*
X127567829Y-75039410D01*
X127623787Y-75211636D01*
X127623788Y-75211639D01*
X127706006Y-75372997D01*
X127812441Y-75519494D01*
X127812445Y-75519499D01*
X127940500Y-75647554D01*
X127940505Y-75647558D01*
X128068287Y-75740396D01*
X128087006Y-75753996D01*
X128192484Y-75807740D01*
X128248360Y-75836211D01*
X128248363Y-75836212D01*
X128334476Y-75864191D01*
X128420591Y-75892171D01*
X128503429Y-75905291D01*
X128599449Y-75920500D01*
X128599454Y-75920500D01*
X128780551Y-75920500D01*
X128867259Y-75906765D01*
X128959409Y-75892171D01*
X129131639Y-75836211D01*
X129292994Y-75753996D01*
X129439501Y-75647553D01*
X129567553Y-75519501D01*
X129673996Y-75372994D01*
X129756211Y-75211639D01*
X129758068Y-75205922D01*
X129797504Y-75148247D01*
X129861862Y-75121048D01*
X129930709Y-75132960D01*
X129982186Y-75180203D01*
X130000000Y-75244239D01*
X130000000Y-99276000D01*
X129980315Y-99343039D01*
X129927511Y-99388794D01*
X129876000Y-99400000D01*
X100724000Y-99400000D01*
X100656961Y-99380315D01*
X100611206Y-99327511D01*
X100600000Y-99276000D01*
X100600000Y-93913389D01*
X108899500Y-93913389D01*
X108899500Y-94086611D01*
X108926598Y-94257701D01*
X108980127Y-94422445D01*
X109058768Y-94576788D01*
X109160586Y-94716928D01*
X109283072Y-94839414D01*
X109423212Y-94941232D01*
X109577555Y-95019873D01*
X109742299Y-95073402D01*
X109913389Y-95100500D01*
X109913390Y-95100500D01*
X110086610Y-95100500D01*
X110086611Y-95100500D01*
X110257701Y-95073402D01*
X110422445Y-95019873D01*
X110576788Y-94941232D01*
X110716928Y-94839414D01*
X110839414Y-94716928D01*
X110941232Y-94576788D01*
X111019873Y-94422445D01*
X111073402Y-94257701D01*
X111100500Y-94086611D01*
X111100500Y-93913389D01*
X116519500Y-93913389D01*
X116519500Y-94086611D01*
X116546598Y-94257701D01*
X116600127Y-94422445D01*
X116678768Y-94576788D01*
X116780586Y-94716928D01*
X116903072Y-94839414D01*
X117043212Y-94941232D01*
X117197555Y-95019873D01*
X117362299Y-95073402D01*
X117533389Y-95100500D01*
X117533390Y-95100500D01*
X117706610Y-95100500D01*
X117706611Y-95100500D01*
X117877701Y-95073402D01*
X118042445Y-95019873D01*
X118196788Y-94941232D01*
X118336928Y-94839414D01*
X118459414Y-94716928D01*
X118561232Y-94576788D01*
X118639873Y-94422445D01*
X118693402Y-94257701D01*
X118720500Y-94086611D01*
X118720500Y-93913389D01*
X118693402Y-93742299D01*
X118639873Y-93577555D01*
X118561232Y-93423212D01*
X118459414Y-93283072D01*
X118336928Y-93160586D01*
X118196788Y-93058768D01*
X118042445Y-92980127D01*
X117877701Y-92926598D01*
X117877699Y-92926597D01*
X117877698Y-92926597D01*
X117746271Y-92905781D01*
X117706611Y-92899500D01*
X117533389Y-92899500D01*
X117493728Y-92905781D01*
X117362302Y-92926597D01*
X117197552Y-92980128D01*
X117043211Y-93058768D01*
X116963256Y-93116859D01*
X116903072Y-93160586D01*
X116903070Y-93160588D01*
X116903069Y-93160588D01*
X116780588Y-93283069D01*
X116780588Y-93283070D01*
X116780586Y-93283072D01*
X116736859Y-93343256D01*
X116678768Y-93423211D01*
X116600128Y-93577552D01*
X116546597Y-93742302D01*
X116519500Y-93913389D01*
X111100500Y-93913389D01*
X111073402Y-93742299D01*
X111019873Y-93577555D01*
X110941232Y-93423212D01*
X110839414Y-93283072D01*
X110716928Y-93160586D01*
X110576788Y-93058768D01*
X110422445Y-92980127D01*
X110257701Y-92926598D01*
X110257699Y-92926597D01*
X110257698Y-92926597D01*
X110126271Y-92905781D01*
X110086611Y-92899500D01*
X109913389Y-92899500D01*
X109873728Y-92905781D01*
X109742302Y-92926597D01*
X109577552Y-92980128D01*
X109423211Y-93058768D01*
X109343256Y-93116859D01*
X109283072Y-93160586D01*
X109283070Y-93160588D01*
X109283069Y-93160588D01*
X109160588Y-93283069D01*
X109160588Y-93283070D01*
X109160586Y-93283072D01*
X109116859Y-93343256D01*
X109058768Y-93423211D01*
X108980128Y-93577552D01*
X108926597Y-93742302D01*
X108899500Y-93913389D01*
X100600000Y-93913389D01*
X100600000Y-91008389D01*
X123899500Y-91008389D01*
X123899500Y-91181611D01*
X123926598Y-91352701D01*
X123980127Y-91517445D01*
X124058768Y-91671788D01*
X124160586Y-91811928D01*
X124283072Y-91934414D01*
X124423212Y-92036232D01*
X124577555Y-92114873D01*
X124742299Y-92168402D01*
X124913389Y-92195500D01*
X124913390Y-92195500D01*
X125086610Y-92195500D01*
X125086611Y-92195500D01*
X125257701Y-92168402D01*
X125422445Y-92114873D01*
X125576788Y-92036232D01*
X125716928Y-91934414D01*
X125839414Y-91811928D01*
X125941232Y-91671788D01*
X126019873Y-91517445D01*
X126073402Y-91352701D01*
X126100500Y-91181611D01*
X126100500Y-91008389D01*
X126073402Y-90837299D01*
X126019873Y-90672555D01*
X125941232Y-90518212D01*
X125839414Y-90378072D01*
X125716928Y-90255586D01*
X125576788Y-90153768D01*
X125422445Y-90075127D01*
X125257701Y-90021598D01*
X125257699Y-90021597D01*
X125257698Y-90021597D01*
X125126271Y-90000781D01*
X125086611Y-89994500D01*
X124913389Y-89994500D01*
X124873728Y-90000781D01*
X124742302Y-90021597D01*
X124577552Y-90075128D01*
X124423211Y-90153768D01*
X124343256Y-90211859D01*
X124283072Y-90255586D01*
X124283070Y-90255588D01*
X124283069Y-90255588D01*
X124160588Y-90378069D01*
X124160588Y-90378070D01*
X124160586Y-90378072D01*
X124116859Y-90438256D01*
X124058768Y-90518211D01*
X123980128Y-90672552D01*
X123926597Y-90837302D01*
X123899500Y-91008389D01*
X100600000Y-91008389D01*
X100600000Y-83913389D01*
X108899500Y-83913389D01*
X108899500Y-84086611D01*
X108926598Y-84257701D01*
X108980127Y-84422445D01*
X109058768Y-84576788D01*
X109160586Y-84716928D01*
X109283072Y-84839414D01*
X109423212Y-84941232D01*
X109577555Y-85019873D01*
X109742299Y-85073402D01*
X109913389Y-85100500D01*
X109913390Y-85100500D01*
X110086610Y-85100500D01*
X110086611Y-85100500D01*
X110257701Y-85073402D01*
X110422445Y-85019873D01*
X110576788Y-84941232D01*
X110716928Y-84839414D01*
X110839414Y-84716928D01*
X110941232Y-84576788D01*
X111019873Y-84422445D01*
X111073402Y-84257701D01*
X111100500Y-84086611D01*
X111100500Y-83913389D01*
X116519500Y-83913389D01*
X116519500Y-84086611D01*
X116546598Y-84257701D01*
X116600127Y-84422445D01*
X116678768Y-84576788D01*
X116780586Y-84716928D01*
X116903072Y-84839414D01*
X117043212Y-84941232D01*
X117197555Y-85019873D01*
X117362299Y-85073402D01*
X117533389Y-85100500D01*
X117533390Y-85100500D01*
X117706610Y-85100500D01*
X117706611Y-85100500D01*
X117877701Y-85073402D01*
X118042445Y-85019873D01*
X118196788Y-84941232D01*
X118336928Y-84839414D01*
X118459414Y-84716928D01*
X118561232Y-84576788D01*
X118639873Y-84422445D01*
X118693402Y-84257701D01*
X118720500Y-84086611D01*
X118720500Y-83913389D01*
X118693402Y-83742299D01*
X118639873Y-83577555D01*
X118561232Y-83423212D01*
X118459414Y-83283072D01*
X118336928Y-83160586D01*
X118196788Y-83058768D01*
X118042445Y-82980127D01*
X117877701Y-82926598D01*
X117877699Y-82926597D01*
X117877698Y-82926597D01*
X117746271Y-82905781D01*
X117706611Y-82899500D01*
X117533389Y-82899500D01*
X117493728Y-82905781D01*
X117362302Y-82926597D01*
X117197552Y-82980128D01*
X117043211Y-83058768D01*
X116963256Y-83116859D01*
X116903072Y-83160586D01*
X116903070Y-83160588D01*
X116903069Y-83160588D01*
X116780588Y-83283069D01*
X116780588Y-83283070D01*
X116780586Y-83283072D01*
X116736859Y-83343256D01*
X116678768Y-83423211D01*
X116600128Y-83577552D01*
X116546597Y-83742302D01*
X116519500Y-83913389D01*
X111100500Y-83913389D01*
X111073402Y-83742299D01*
X111019873Y-83577555D01*
X110941232Y-83423212D01*
X110839414Y-83283072D01*
X110716928Y-83160586D01*
X110576788Y-83058768D01*
X110422445Y-82980127D01*
X110257701Y-82926598D01*
X110257699Y-82926597D01*
X110257698Y-82926597D01*
X110126271Y-82905781D01*
X110086611Y-82899500D01*
X109913389Y-82899500D01*
X109873728Y-82905781D01*
X109742302Y-82926597D01*
X109577552Y-82980128D01*
X109423211Y-83058768D01*
X109343256Y-83116859D01*
X109283072Y-83160586D01*
X109283070Y-83160588D01*
X109283069Y-83160588D01*
X109160588Y-83283069D01*
X109160588Y-83283070D01*
X109160586Y-83283072D01*
X109116859Y-83343256D01*
X109058768Y-83423211D01*
X108980128Y-83577552D01*
X108926597Y-83742302D01*
X108899500Y-83913389D01*
X100600000Y-83913389D01*
X100600000Y-73374038D01*
X101899500Y-73374038D01*
X101899500Y-73625962D01*
X101911826Y-73703787D01*
X101938910Y-73874785D01*
X102016760Y-74114383D01*
X102095413Y-74268747D01*
X102125789Y-74328363D01*
X102131132Y-74338848D01*
X102279201Y-74542649D01*
X102279205Y-74542654D01*
X102457345Y-74720794D01*
X102457350Y-74720798D01*
X102592326Y-74818863D01*
X102661155Y-74868870D01*
X102804184Y-74941747D01*
X102885616Y-74983239D01*
X102885618Y-74983239D01*
X102885621Y-74983241D01*
X103125215Y-75061090D01*
X103374038Y-75100500D01*
X103374039Y-75100500D01*
X103625961Y-75100500D01*
X103625962Y-75100500D01*
X103874785Y-75061090D01*
X104114379Y-74983241D01*
X104338845Y-74868870D01*
X104542656Y-74720793D01*
X104720793Y-74542656D01*
X104868870Y-74338845D01*
X104983241Y-74114379D01*
X105061090Y-73874785D01*
X105100500Y-73625962D01*
X105100500Y-73374038D01*
X105061090Y-73125215D01*
X104983241Y-72885621D01*
X104983239Y-72885618D01*
X104983239Y-72885616D01*
X104890822Y-72704239D01*
X104868870Y-72661155D01*
X104751355Y-72499409D01*
X104720798Y-72457350D01*
X104720794Y-72457345D01*
X104542654Y-72279205D01*
X104542649Y-72279201D01*
X104338848Y-72131132D01*
X104338847Y-72131131D01*
X104338845Y-72131130D01*
X104268747Y-72095413D01*
X104114383Y-72016760D01*
X103874785Y-71938910D01*
X103625962Y-71899500D01*
X103374038Y-71899500D01*
X103249626Y-71919205D01*
X103125214Y-71938910D01*
X102885616Y-72016760D01*
X102661151Y-72131132D01*
X102457350Y-72279201D01*
X102457345Y-72279205D01*
X102279205Y-72457345D01*
X102279201Y-72457350D01*
X102131132Y-72661151D01*
X102016760Y-72885616D01*
X101938910Y-73125214D01*
X101902964Y-73352170D01*
X101899500Y-73374038D01*
X100600000Y-73374038D01*
X100600000Y-70724000D01*
X100619685Y-70656961D01*
X100672489Y-70611206D01*
X100724000Y-70600000D01*
X129876000Y-70600000D01*
X129943039Y-70619685D01*
G37*
%TD.AperFunction*%
%TD*%
M02*
