%TF.GenerationSoftware,KiCad,Pcbnew,10.0.7*%
%TF.CreationDate,2026-10-09T18:04:37+02:00*%
%TF.ProjectId,gpio-interface,6770696f-2d69-46e7-9465-72666163652e,C prototype*%
%TF.SameCoordinates,Original*%
%TF.FileFunction,Legend,Top*%
%TF.FilePolarity,Positive*%
%FSLAX46Y46*%
G04 Gerber Fmt 4.6, Leading zero omitted, Abs format (unit mm)*
G04 Created by KiCad (PCBNEW 10.0.7) date 2026-10-09 18:04:37*
%MOMM*%
%LPD*%
G01*
G04 APERTURE LIST*
%ADD10C,0.150000*%
%ADD11C,0.120000*%
G04 APERTURE END LIST*
D10*
X110476190Y-81862295D02*
X110209523Y-81481342D01*
X110019047Y-81862295D02*
X110019047Y-81062295D01*
X110019047Y-81062295D02*
X110323809Y-81062295D01*
X110323809Y-81062295D02*
X110399999Y-81100390D01*
X110399999Y-81100390D02*
X110438094Y-81138485D01*
X110438094Y-81138485D02*
X110476190Y-81214676D01*
X110476190Y-81214676D02*
X110476190Y-81328961D01*
X110476190Y-81328961D02*
X110438094Y-81405152D01*
X110438094Y-81405152D02*
X110399999Y-81443247D01*
X110399999Y-81443247D02*
X110323809Y-81481342D01*
X110323809Y-81481342D02*
X110019047Y-81481342D01*
X111238094Y-81862295D02*
X110780951Y-81862295D01*
X111009523Y-81862295D02*
X111009523Y-81062295D01*
X111009523Y-81062295D02*
X110933332Y-81176580D01*
X110933332Y-81176580D02*
X110857142Y-81252771D01*
X110857142Y-81252771D02*
X110780951Y-81290866D01*
X112609523Y-81862295D02*
X112152380Y-81862295D01*
X112380952Y-81862295D02*
X112380952Y-81062295D01*
X112380952Y-81062295D02*
X112304761Y-81176580D01*
X112304761Y-81176580D02*
X112228571Y-81252771D01*
X112228571Y-81252771D02*
X112152380Y-81290866D01*
X113104762Y-81062295D02*
X113180952Y-81062295D01*
X113180952Y-81062295D02*
X113257143Y-81100390D01*
X113257143Y-81100390D02*
X113295238Y-81138485D01*
X113295238Y-81138485D02*
X113333333Y-81214676D01*
X113333333Y-81214676D02*
X113371428Y-81367057D01*
X113371428Y-81367057D02*
X113371428Y-81557533D01*
X113371428Y-81557533D02*
X113333333Y-81709914D01*
X113333333Y-81709914D02*
X113295238Y-81786104D01*
X113295238Y-81786104D02*
X113257143Y-81824200D01*
X113257143Y-81824200D02*
X113180952Y-81862295D01*
X113180952Y-81862295D02*
X113104762Y-81862295D01*
X113104762Y-81862295D02*
X113028571Y-81824200D01*
X113028571Y-81824200D02*
X112990476Y-81786104D01*
X112990476Y-81786104D02*
X112952381Y-81709914D01*
X112952381Y-81709914D02*
X112914285Y-81557533D01*
X112914285Y-81557533D02*
X112914285Y-81367057D01*
X112914285Y-81367057D02*
X112952381Y-81214676D01*
X112952381Y-81214676D02*
X112990476Y-81138485D01*
X112990476Y-81138485D02*
X113028571Y-81100390D01*
X113028571Y-81100390D02*
X113104762Y-81062295D01*
X113714286Y-81862295D02*
X113714286Y-81062295D01*
X113790476Y-81557533D02*
X114019048Y-81862295D01*
X114019048Y-81328961D02*
X113714286Y-81633723D01*
X110476190Y-91862295D02*
X110209523Y-91481342D01*
X110019047Y-91862295D02*
X110019047Y-91062295D01*
X110019047Y-91062295D02*
X110323809Y-91062295D01*
X110323809Y-91062295D02*
X110399999Y-91100390D01*
X110399999Y-91100390D02*
X110438094Y-91138485D01*
X110438094Y-91138485D02*
X110476190Y-91214676D01*
X110476190Y-91214676D02*
X110476190Y-91328961D01*
X110476190Y-91328961D02*
X110438094Y-91405152D01*
X110438094Y-91405152D02*
X110399999Y-91443247D01*
X110399999Y-91443247D02*
X110323809Y-91481342D01*
X110323809Y-91481342D02*
X110019047Y-91481342D01*
X110780951Y-91138485D02*
X110819047Y-91100390D01*
X110819047Y-91100390D02*
X110895237Y-91062295D01*
X110895237Y-91062295D02*
X111085713Y-91062295D01*
X111085713Y-91062295D02*
X111161904Y-91100390D01*
X111161904Y-91100390D02*
X111199999Y-91138485D01*
X111199999Y-91138485D02*
X111238094Y-91214676D01*
X111238094Y-91214676D02*
X111238094Y-91290866D01*
X111238094Y-91290866D02*
X111199999Y-91405152D01*
X111199999Y-91405152D02*
X110742856Y-91862295D01*
X110742856Y-91862295D02*
X111238094Y-91862295D01*
X112609523Y-91862295D02*
X112152380Y-91862295D01*
X112380952Y-91862295D02*
X112380952Y-91062295D01*
X112380952Y-91062295D02*
X112304761Y-91176580D01*
X112304761Y-91176580D02*
X112228571Y-91252771D01*
X112228571Y-91252771D02*
X112152380Y-91290866D01*
X113104762Y-91062295D02*
X113180952Y-91062295D01*
X113180952Y-91062295D02*
X113257143Y-91100390D01*
X113257143Y-91100390D02*
X113295238Y-91138485D01*
X113295238Y-91138485D02*
X113333333Y-91214676D01*
X113333333Y-91214676D02*
X113371428Y-91367057D01*
X113371428Y-91367057D02*
X113371428Y-91557533D01*
X113371428Y-91557533D02*
X113333333Y-91709914D01*
X113333333Y-91709914D02*
X113295238Y-91786104D01*
X113295238Y-91786104D02*
X113257143Y-91824200D01*
X113257143Y-91824200D02*
X113180952Y-91862295D01*
X113180952Y-91862295D02*
X113104762Y-91862295D01*
X113104762Y-91862295D02*
X113028571Y-91824200D01*
X113028571Y-91824200D02*
X112990476Y-91786104D01*
X112990476Y-91786104D02*
X112952381Y-91709914D01*
X112952381Y-91709914D02*
X112914285Y-91557533D01*
X112914285Y-91557533D02*
X112914285Y-91367057D01*
X112914285Y-91367057D02*
X112952381Y-91214676D01*
X112952381Y-91214676D02*
X112990476Y-91138485D01*
X112990476Y-91138485D02*
X113028571Y-91100390D01*
X113028571Y-91100390D02*
X113104762Y-91062295D01*
X113714286Y-91862295D02*
X113714286Y-91062295D01*
X113790476Y-91557533D02*
X114019048Y-91862295D01*
X114019048Y-91328961D02*
X113714286Y-91633723D01*
X124866667Y-83286104D02*
X124828571Y-83324200D01*
X124828571Y-83324200D02*
X124714286Y-83362295D01*
X124714286Y-83362295D02*
X124638095Y-83362295D01*
X124638095Y-83362295D02*
X124523809Y-83324200D01*
X124523809Y-83324200D02*
X124447619Y-83248009D01*
X124447619Y-83248009D02*
X124409524Y-83171819D01*
X124409524Y-83171819D02*
X124371428Y-83019438D01*
X124371428Y-83019438D02*
X124371428Y-82905152D01*
X124371428Y-82905152D02*
X124409524Y-82752771D01*
X124409524Y-82752771D02*
X124447619Y-82676580D01*
X124447619Y-82676580D02*
X124523809Y-82600390D01*
X124523809Y-82600390D02*
X124638095Y-82562295D01*
X124638095Y-82562295D02*
X124714286Y-82562295D01*
X124714286Y-82562295D02*
X124828571Y-82600390D01*
X124828571Y-82600390D02*
X124866667Y-82638485D01*
X125628571Y-83362295D02*
X125171428Y-83362295D01*
X125400000Y-83362295D02*
X125400000Y-82562295D01*
X125400000Y-82562295D02*
X125323809Y-82676580D01*
X125323809Y-82676580D02*
X125247619Y-82752771D01*
X125247619Y-82752771D02*
X125171428Y-82790866D01*
X121790476Y-98362295D02*
X121790476Y-97562295D01*
X121790476Y-97562295D02*
X122095238Y-97562295D01*
X122095238Y-97562295D02*
X122171428Y-97600390D01*
X122171428Y-97600390D02*
X122209523Y-97638485D01*
X122209523Y-97638485D02*
X122247619Y-97714676D01*
X122247619Y-97714676D02*
X122247619Y-97828961D01*
X122247619Y-97828961D02*
X122209523Y-97905152D01*
X122209523Y-97905152D02*
X122171428Y-97943247D01*
X122171428Y-97943247D02*
X122095238Y-97981342D01*
X122095238Y-97981342D02*
X121790476Y-97981342D01*
X123047619Y-98362295D02*
X122780952Y-97981342D01*
X122590476Y-98362295D02*
X122590476Y-97562295D01*
X122590476Y-97562295D02*
X122895238Y-97562295D01*
X122895238Y-97562295D02*
X122971428Y-97600390D01*
X122971428Y-97600390D02*
X123009523Y-97638485D01*
X123009523Y-97638485D02*
X123047619Y-97714676D01*
X123047619Y-97714676D02*
X123047619Y-97828961D01*
X123047619Y-97828961D02*
X123009523Y-97905152D01*
X123009523Y-97905152D02*
X122971428Y-97943247D01*
X122971428Y-97943247D02*
X122895238Y-97981342D01*
X122895238Y-97981342D02*
X122590476Y-97981342D01*
X123542857Y-97981342D02*
X123542857Y-98362295D01*
X123276190Y-97562295D02*
X123542857Y-97981342D01*
X123542857Y-97981342D02*
X123809523Y-97562295D01*
X124038094Y-98324200D02*
X124152380Y-98362295D01*
X124152380Y-98362295D02*
X124342856Y-98362295D01*
X124342856Y-98362295D02*
X124419047Y-98324200D01*
X124419047Y-98324200D02*
X124457142Y-98286104D01*
X124457142Y-98286104D02*
X124495237Y-98209914D01*
X124495237Y-98209914D02*
X124495237Y-98133723D01*
X124495237Y-98133723D02*
X124457142Y-98057533D01*
X124457142Y-98057533D02*
X124419047Y-98019438D01*
X124419047Y-98019438D02*
X124342856Y-97981342D01*
X124342856Y-97981342D02*
X124190475Y-97943247D01*
X124190475Y-97943247D02*
X124114285Y-97905152D01*
X124114285Y-97905152D02*
X124076190Y-97867057D01*
X124076190Y-97867057D02*
X124038094Y-97790866D01*
X124038094Y-97790866D02*
X124038094Y-97714676D01*
X124038094Y-97714676D02*
X124076190Y-97638485D01*
X124076190Y-97638485D02*
X124114285Y-97600390D01*
X124114285Y-97600390D02*
X124190475Y-97562295D01*
X124190475Y-97562295D02*
X124380952Y-97562295D01*
X124380952Y-97562295D02*
X124495237Y-97600390D01*
X124838095Y-98362295D02*
X124838095Y-97562295D01*
X124838095Y-97562295D02*
X125104761Y-98133723D01*
X125104761Y-98133723D02*
X125371428Y-97562295D01*
X125371428Y-97562295D02*
X125371428Y-98362295D01*
X126780952Y-97600390D02*
X126704762Y-97562295D01*
X126704762Y-97562295D02*
X126590476Y-97562295D01*
X126590476Y-97562295D02*
X126476190Y-97600390D01*
X126476190Y-97600390D02*
X126400000Y-97676580D01*
X126400000Y-97676580D02*
X126361905Y-97752771D01*
X126361905Y-97752771D02*
X126323809Y-97905152D01*
X126323809Y-97905152D02*
X126323809Y-98019438D01*
X126323809Y-98019438D02*
X126361905Y-98171819D01*
X126361905Y-98171819D02*
X126400000Y-98248009D01*
X126400000Y-98248009D02*
X126476190Y-98324200D01*
X126476190Y-98324200D02*
X126590476Y-98362295D01*
X126590476Y-98362295D02*
X126666667Y-98362295D01*
X126666667Y-98362295D02*
X126780952Y-98324200D01*
X126780952Y-98324200D02*
X126819048Y-98286104D01*
X126819048Y-98286104D02*
X126819048Y-98019438D01*
X126819048Y-98019438D02*
X126666667Y-98019438D01*
X127161905Y-98362295D02*
X127161905Y-97562295D01*
X127161905Y-97562295D02*
X127466667Y-97562295D01*
X127466667Y-97562295D02*
X127542857Y-97600390D01*
X127542857Y-97600390D02*
X127580952Y-97638485D01*
X127580952Y-97638485D02*
X127619048Y-97714676D01*
X127619048Y-97714676D02*
X127619048Y-97828961D01*
X127619048Y-97828961D02*
X127580952Y-97905152D01*
X127580952Y-97905152D02*
X127542857Y-97943247D01*
X127542857Y-97943247D02*
X127466667Y-97981342D01*
X127466667Y-97981342D02*
X127161905Y-97981342D01*
X127961905Y-98362295D02*
X127961905Y-97562295D01*
X128495238Y-97562295D02*
X128647619Y-97562295D01*
X128647619Y-97562295D02*
X128723809Y-97600390D01*
X128723809Y-97600390D02*
X128800000Y-97676580D01*
X128800000Y-97676580D02*
X128838095Y-97828961D01*
X128838095Y-97828961D02*
X128838095Y-98095628D01*
X128838095Y-98095628D02*
X128800000Y-98248009D01*
X128800000Y-98248009D02*
X128723809Y-98324200D01*
X128723809Y-98324200D02*
X128647619Y-98362295D01*
X128647619Y-98362295D02*
X128495238Y-98362295D01*
X128495238Y-98362295D02*
X128419047Y-98324200D01*
X128419047Y-98324200D02*
X128342857Y-98248009D01*
X128342857Y-98248009D02*
X128304761Y-98095628D01*
X128304761Y-98095628D02*
X128304761Y-97828961D01*
X128304761Y-97828961D02*
X128342857Y-97676580D01*
X128342857Y-97676580D02*
X128419047Y-97600390D01*
X128419047Y-97600390D02*
X128495238Y-97562295D01*
X130247619Y-98286104D02*
X130209523Y-98324200D01*
X130209523Y-98324200D02*
X130095238Y-98362295D01*
X130095238Y-98362295D02*
X130019047Y-98362295D01*
X130019047Y-98362295D02*
X129904761Y-98324200D01*
X129904761Y-98324200D02*
X129828571Y-98248009D01*
X129828571Y-98248009D02*
X129790476Y-98171819D01*
X129790476Y-98171819D02*
X129752380Y-98019438D01*
X129752380Y-98019438D02*
X129752380Y-97905152D01*
X129752380Y-97905152D02*
X129790476Y-97752771D01*
X129790476Y-97752771D02*
X129828571Y-97676580D01*
X129828571Y-97676580D02*
X129904761Y-97600390D01*
X129904761Y-97600390D02*
X130019047Y-97562295D01*
X130019047Y-97562295D02*
X130095238Y-97562295D01*
X130095238Y-97562295D02*
X130209523Y-97600390D01*
X130209523Y-97600390D02*
X130247619Y-97638485D01*
X126828571Y-95562295D02*
X126828571Y-96209914D01*
X126828571Y-96209914D02*
X126866666Y-96286104D01*
X126866666Y-96286104D02*
X126904761Y-96324200D01*
X126904761Y-96324200D02*
X126980952Y-96362295D01*
X126980952Y-96362295D02*
X127133333Y-96362295D01*
X127133333Y-96362295D02*
X127209523Y-96324200D01*
X127209523Y-96324200D02*
X127247618Y-96286104D01*
X127247618Y-96286104D02*
X127285714Y-96209914D01*
X127285714Y-96209914D02*
X127285714Y-95562295D01*
X128085713Y-96362295D02*
X127628570Y-96362295D01*
X127857142Y-96362295D02*
X127857142Y-95562295D01*
X127857142Y-95562295D02*
X127780951Y-95676580D01*
X127780951Y-95676580D02*
X127704761Y-95752771D01*
X127704761Y-95752771D02*
X127628570Y-95790866D01*
X129038095Y-96362295D02*
X129038095Y-95562295D01*
X129380951Y-96324200D02*
X129495237Y-96362295D01*
X129495237Y-96362295D02*
X129685713Y-96362295D01*
X129685713Y-96362295D02*
X129761904Y-96324200D01*
X129761904Y-96324200D02*
X129799999Y-96286104D01*
X129799999Y-96286104D02*
X129838094Y-96209914D01*
X129838094Y-96209914D02*
X129838094Y-96133723D01*
X129838094Y-96133723D02*
X129799999Y-96057533D01*
X129799999Y-96057533D02*
X129761904Y-96019438D01*
X129761904Y-96019438D02*
X129685713Y-95981342D01*
X129685713Y-95981342D02*
X129533332Y-95943247D01*
X129533332Y-95943247D02*
X129457142Y-95905152D01*
X129457142Y-95905152D02*
X129419047Y-95867057D01*
X129419047Y-95867057D02*
X129380951Y-95790866D01*
X129380951Y-95790866D02*
X129380951Y-95714676D01*
X129380951Y-95714676D02*
X129419047Y-95638485D01*
X129419047Y-95638485D02*
X129457142Y-95600390D01*
X129457142Y-95600390D02*
X129533332Y-95562295D01*
X129533332Y-95562295D02*
X129723809Y-95562295D01*
X129723809Y-95562295D02*
X129838094Y-95600390D01*
X130333333Y-95562295D02*
X130485714Y-95562295D01*
X130485714Y-95562295D02*
X130561904Y-95600390D01*
X130561904Y-95600390D02*
X130638095Y-95676580D01*
X130638095Y-95676580D02*
X130676190Y-95828961D01*
X130676190Y-95828961D02*
X130676190Y-96095628D01*
X130676190Y-96095628D02*
X130638095Y-96248009D01*
X130638095Y-96248009D02*
X130561904Y-96324200D01*
X130561904Y-96324200D02*
X130485714Y-96362295D01*
X130485714Y-96362295D02*
X130333333Y-96362295D01*
X130333333Y-96362295D02*
X130257142Y-96324200D01*
X130257142Y-96324200D02*
X130180952Y-96248009D01*
X130180952Y-96248009D02*
X130142856Y-96095628D01*
X130142856Y-96095628D02*
X130142856Y-95828961D01*
X130142856Y-95828961D02*
X130180952Y-95676580D01*
X130180952Y-95676580D02*
X130257142Y-95600390D01*
X130257142Y-95600390D02*
X130333333Y-95562295D01*
X130942856Y-95562295D02*
X131476190Y-95562295D01*
X131476190Y-95562295D02*
X131133332Y-96362295D01*
X131704761Y-95562295D02*
X132238095Y-95562295D01*
X132238095Y-95562295D02*
X131895237Y-96362295D01*
X132504761Y-95638485D02*
X132542857Y-95600390D01*
X132542857Y-95600390D02*
X132619047Y-95562295D01*
X132619047Y-95562295D02*
X132809523Y-95562295D01*
X132809523Y-95562295D02*
X132885714Y-95600390D01*
X132885714Y-95600390D02*
X132923809Y-95638485D01*
X132923809Y-95638485D02*
X132961904Y-95714676D01*
X132961904Y-95714676D02*
X132961904Y-95790866D01*
X132961904Y-95790866D02*
X132923809Y-95905152D01*
X132923809Y-95905152D02*
X132466666Y-96362295D01*
X132466666Y-96362295D02*
X132961904Y-96362295D01*
X133457143Y-95562295D02*
X133533333Y-95562295D01*
X133533333Y-95562295D02*
X133609524Y-95600390D01*
X133609524Y-95600390D02*
X133647619Y-95638485D01*
X133647619Y-95638485D02*
X133685714Y-95714676D01*
X133685714Y-95714676D02*
X133723809Y-95867057D01*
X133723809Y-95867057D02*
X133723809Y-96057533D01*
X133723809Y-96057533D02*
X133685714Y-96209914D01*
X133685714Y-96209914D02*
X133647619Y-96286104D01*
X133647619Y-96286104D02*
X133609524Y-96324200D01*
X133609524Y-96324200D02*
X133533333Y-96362295D01*
X133533333Y-96362295D02*
X133457143Y-96362295D01*
X133457143Y-96362295D02*
X133380952Y-96324200D01*
X133380952Y-96324200D02*
X133342857Y-96286104D01*
X133342857Y-96286104D02*
X133304762Y-96209914D01*
X133304762Y-96209914D02*
X133266666Y-96057533D01*
X133266666Y-96057533D02*
X133266666Y-95867057D01*
X133266666Y-95867057D02*
X133304762Y-95714676D01*
X133304762Y-95714676D02*
X133342857Y-95638485D01*
X133342857Y-95638485D02*
X133380952Y-95600390D01*
X133380952Y-95600390D02*
X133457143Y-95562295D01*
X134333333Y-95943247D02*
X134066667Y-95943247D01*
X134066667Y-96362295D02*
X134066667Y-95562295D01*
X134066667Y-95562295D02*
X134447619Y-95562295D01*
X134752381Y-96362295D02*
X134752381Y-95562295D01*
X134752381Y-95562295D02*
X134942857Y-95562295D01*
X134942857Y-95562295D02*
X135057143Y-95600390D01*
X135057143Y-95600390D02*
X135133333Y-95676580D01*
X135133333Y-95676580D02*
X135171428Y-95752771D01*
X135171428Y-95752771D02*
X135209524Y-95905152D01*
X135209524Y-95905152D02*
X135209524Y-96019438D01*
X135209524Y-96019438D02*
X135171428Y-96171819D01*
X135171428Y-96171819D02*
X135133333Y-96248009D01*
X135133333Y-96248009D02*
X135057143Y-96324200D01*
X135057143Y-96324200D02*
X134942857Y-96362295D01*
X134942857Y-96362295D02*
X134752381Y-96362295D01*
X136866667Y-83286104D02*
X136828571Y-83324200D01*
X136828571Y-83324200D02*
X136714286Y-83362295D01*
X136714286Y-83362295D02*
X136638095Y-83362295D01*
X136638095Y-83362295D02*
X136523809Y-83324200D01*
X136523809Y-83324200D02*
X136447619Y-83248009D01*
X136447619Y-83248009D02*
X136409524Y-83171819D01*
X136409524Y-83171819D02*
X136371428Y-83019438D01*
X136371428Y-83019438D02*
X136371428Y-82905152D01*
X136371428Y-82905152D02*
X136409524Y-82752771D01*
X136409524Y-82752771D02*
X136447619Y-82676580D01*
X136447619Y-82676580D02*
X136523809Y-82600390D01*
X136523809Y-82600390D02*
X136638095Y-82562295D01*
X136638095Y-82562295D02*
X136714286Y-82562295D01*
X136714286Y-82562295D02*
X136828571Y-82600390D01*
X136828571Y-82600390D02*
X136866667Y-82638485D01*
X137171428Y-82638485D02*
X137209524Y-82600390D01*
X137209524Y-82600390D02*
X137285714Y-82562295D01*
X137285714Y-82562295D02*
X137476190Y-82562295D01*
X137476190Y-82562295D02*
X137552381Y-82600390D01*
X137552381Y-82600390D02*
X137590476Y-82638485D01*
X137590476Y-82638485D02*
X137628571Y-82714676D01*
X137628571Y-82714676D02*
X137628571Y-82790866D01*
X137628571Y-82790866D02*
X137590476Y-82905152D01*
X137590476Y-82905152D02*
X137133333Y-83362295D01*
X137133333Y-83362295D02*
X137628571Y-83362295D01*
X140400000Y-82862295D02*
X140133333Y-82481342D01*
X139942857Y-82862295D02*
X139942857Y-82062295D01*
X139942857Y-82062295D02*
X140247619Y-82062295D01*
X140247619Y-82062295D02*
X140323809Y-82100390D01*
X140323809Y-82100390D02*
X140361904Y-82138485D01*
X140361904Y-82138485D02*
X140400000Y-82214676D01*
X140400000Y-82214676D02*
X140400000Y-82328961D01*
X140400000Y-82328961D02*
X140361904Y-82405152D01*
X140361904Y-82405152D02*
X140323809Y-82443247D01*
X140323809Y-82443247D02*
X140247619Y-82481342D01*
X140247619Y-82481342D02*
X139942857Y-82481342D01*
X140666666Y-82062295D02*
X141161904Y-82062295D01*
X141161904Y-82062295D02*
X140895238Y-82367057D01*
X140895238Y-82367057D02*
X141009523Y-82367057D01*
X141009523Y-82367057D02*
X141085714Y-82405152D01*
X141085714Y-82405152D02*
X141123809Y-82443247D01*
X141123809Y-82443247D02*
X141161904Y-82519438D01*
X141161904Y-82519438D02*
X141161904Y-82709914D01*
X141161904Y-82709914D02*
X141123809Y-82786104D01*
X141123809Y-82786104D02*
X141085714Y-82824200D01*
X141085714Y-82824200D02*
X141009523Y-82862295D01*
X141009523Y-82862295D02*
X140780952Y-82862295D01*
X140780952Y-82862295D02*
X140704761Y-82824200D01*
X140704761Y-82824200D02*
X140666666Y-82786104D01*
X142038095Y-82062295D02*
X142533333Y-82062295D01*
X142533333Y-82062295D02*
X142266667Y-82367057D01*
X142266667Y-82367057D02*
X142380952Y-82367057D01*
X142380952Y-82367057D02*
X142457143Y-82405152D01*
X142457143Y-82405152D02*
X142495238Y-82443247D01*
X142495238Y-82443247D02*
X142533333Y-82519438D01*
X142533333Y-82519438D02*
X142533333Y-82709914D01*
X142533333Y-82709914D02*
X142495238Y-82786104D01*
X142495238Y-82786104D02*
X142457143Y-82824200D01*
X142457143Y-82824200D02*
X142380952Y-82862295D01*
X142380952Y-82862295D02*
X142152381Y-82862295D01*
X142152381Y-82862295D02*
X142076190Y-82824200D01*
X142076190Y-82824200D02*
X142038095Y-82786104D01*
X142800000Y-82062295D02*
X143295238Y-82062295D01*
X143295238Y-82062295D02*
X143028572Y-82367057D01*
X143028572Y-82367057D02*
X143142857Y-82367057D01*
X143142857Y-82367057D02*
X143219048Y-82405152D01*
X143219048Y-82405152D02*
X143257143Y-82443247D01*
X143257143Y-82443247D02*
X143295238Y-82519438D01*
X143295238Y-82519438D02*
X143295238Y-82709914D01*
X143295238Y-82709914D02*
X143257143Y-82786104D01*
X143257143Y-82786104D02*
X143219048Y-82824200D01*
X143219048Y-82824200D02*
X143142857Y-82862295D01*
X143142857Y-82862295D02*
X142914286Y-82862295D01*
X142914286Y-82862295D02*
X142838095Y-82824200D01*
X142838095Y-82824200D02*
X142800000Y-82786104D01*
X144095239Y-82862295D02*
X143828572Y-82481342D01*
X143638096Y-82862295D02*
X143638096Y-82062295D01*
X143638096Y-82062295D02*
X143942858Y-82062295D01*
X143942858Y-82062295D02*
X144019048Y-82100390D01*
X144019048Y-82100390D02*
X144057143Y-82138485D01*
X144057143Y-82138485D02*
X144095239Y-82214676D01*
X144095239Y-82214676D02*
X144095239Y-82328961D01*
X144095239Y-82328961D02*
X144057143Y-82405152D01*
X144057143Y-82405152D02*
X144019048Y-82443247D01*
X144019048Y-82443247D02*
X143942858Y-82481342D01*
X143942858Y-82481342D02*
X143638096Y-82481342D01*
X140400000Y-91862295D02*
X140133333Y-91481342D01*
X139942857Y-91862295D02*
X139942857Y-91062295D01*
X139942857Y-91062295D02*
X140247619Y-91062295D01*
X140247619Y-91062295D02*
X140323809Y-91100390D01*
X140323809Y-91100390D02*
X140361904Y-91138485D01*
X140361904Y-91138485D02*
X140400000Y-91214676D01*
X140400000Y-91214676D02*
X140400000Y-91328961D01*
X140400000Y-91328961D02*
X140361904Y-91405152D01*
X140361904Y-91405152D02*
X140323809Y-91443247D01*
X140323809Y-91443247D02*
X140247619Y-91481342D01*
X140247619Y-91481342D02*
X139942857Y-91481342D01*
X141085714Y-91328961D02*
X141085714Y-91862295D01*
X140895238Y-91024200D02*
X140704761Y-91595628D01*
X140704761Y-91595628D02*
X141200000Y-91595628D01*
X142038095Y-91062295D02*
X142533333Y-91062295D01*
X142533333Y-91062295D02*
X142266667Y-91367057D01*
X142266667Y-91367057D02*
X142380952Y-91367057D01*
X142380952Y-91367057D02*
X142457143Y-91405152D01*
X142457143Y-91405152D02*
X142495238Y-91443247D01*
X142495238Y-91443247D02*
X142533333Y-91519438D01*
X142533333Y-91519438D02*
X142533333Y-91709914D01*
X142533333Y-91709914D02*
X142495238Y-91786104D01*
X142495238Y-91786104D02*
X142457143Y-91824200D01*
X142457143Y-91824200D02*
X142380952Y-91862295D01*
X142380952Y-91862295D02*
X142152381Y-91862295D01*
X142152381Y-91862295D02*
X142076190Y-91824200D01*
X142076190Y-91824200D02*
X142038095Y-91786104D01*
X142800000Y-91062295D02*
X143295238Y-91062295D01*
X143295238Y-91062295D02*
X143028572Y-91367057D01*
X143028572Y-91367057D02*
X143142857Y-91367057D01*
X143142857Y-91367057D02*
X143219048Y-91405152D01*
X143219048Y-91405152D02*
X143257143Y-91443247D01*
X143257143Y-91443247D02*
X143295238Y-91519438D01*
X143295238Y-91519438D02*
X143295238Y-91709914D01*
X143295238Y-91709914D02*
X143257143Y-91786104D01*
X143257143Y-91786104D02*
X143219048Y-91824200D01*
X143219048Y-91824200D02*
X143142857Y-91862295D01*
X143142857Y-91862295D02*
X142914286Y-91862295D01*
X142914286Y-91862295D02*
X142838095Y-91824200D01*
X142838095Y-91824200D02*
X142800000Y-91786104D01*
X144095239Y-91862295D02*
X143828572Y-91481342D01*
X143638096Y-91862295D02*
X143638096Y-91062295D01*
X143638096Y-91062295D02*
X143942858Y-91062295D01*
X143942858Y-91062295D02*
X144019048Y-91100390D01*
X144019048Y-91100390D02*
X144057143Y-91138485D01*
X144057143Y-91138485D02*
X144095239Y-91214676D01*
X144095239Y-91214676D02*
X144095239Y-91328961D01*
X144095239Y-91328961D02*
X144057143Y-91405152D01*
X144057143Y-91405152D02*
X144019048Y-91443247D01*
X144019048Y-91443247D02*
X143942858Y-91481342D01*
X143942858Y-91481342D02*
X143638096Y-91481342D01*
X153304761Y-76562295D02*
X153304761Y-77133723D01*
X153304761Y-77133723D02*
X153266666Y-77248009D01*
X153266666Y-77248009D02*
X153190475Y-77324200D01*
X153190475Y-77324200D02*
X153076190Y-77362295D01*
X153076190Y-77362295D02*
X152999999Y-77362295D01*
X153609523Y-76562295D02*
X154104761Y-76562295D01*
X154104761Y-76562295D02*
X153838095Y-76867057D01*
X153838095Y-76867057D02*
X153952380Y-76867057D01*
X153952380Y-76867057D02*
X154028571Y-76905152D01*
X154028571Y-76905152D02*
X154066666Y-76943247D01*
X154066666Y-76943247D02*
X154104761Y-77019438D01*
X154104761Y-77019438D02*
X154104761Y-77209914D01*
X154104761Y-77209914D02*
X154066666Y-77286104D01*
X154066666Y-77286104D02*
X154028571Y-77324200D01*
X154028571Y-77324200D02*
X153952380Y-77362295D01*
X153952380Y-77362295D02*
X153723809Y-77362295D01*
X153723809Y-77362295D02*
X153647618Y-77324200D01*
X153647618Y-77324200D02*
X153609523Y-77286104D01*
X154942857Y-76562295D02*
X155400000Y-76562295D01*
X155171428Y-77362295D02*
X155171428Y-76562295D01*
X155819048Y-76562295D02*
X155971429Y-76562295D01*
X155971429Y-76562295D02*
X156047619Y-76600390D01*
X156047619Y-76600390D02*
X156123810Y-76676580D01*
X156123810Y-76676580D02*
X156161905Y-76828961D01*
X156161905Y-76828961D02*
X156161905Y-77095628D01*
X156161905Y-77095628D02*
X156123810Y-77248009D01*
X156123810Y-77248009D02*
X156047619Y-77324200D01*
X156047619Y-77324200D02*
X155971429Y-77362295D01*
X155971429Y-77362295D02*
X155819048Y-77362295D01*
X155819048Y-77362295D02*
X155742857Y-77324200D01*
X155742857Y-77324200D02*
X155666667Y-77248009D01*
X155666667Y-77248009D02*
X155628571Y-77095628D01*
X155628571Y-77095628D02*
X155628571Y-76828961D01*
X155628571Y-76828961D02*
X155666667Y-76676580D01*
X155666667Y-76676580D02*
X155742857Y-76600390D01*
X155742857Y-76600390D02*
X155819048Y-76562295D01*
X156504762Y-77362295D02*
X156504762Y-76562295D01*
X156504762Y-76562295D02*
X156809524Y-76562295D01*
X156809524Y-76562295D02*
X156885714Y-76600390D01*
X156885714Y-76600390D02*
X156923809Y-76638485D01*
X156923809Y-76638485D02*
X156961905Y-76714676D01*
X156961905Y-76714676D02*
X156961905Y-76828961D01*
X156961905Y-76828961D02*
X156923809Y-76905152D01*
X156923809Y-76905152D02*
X156885714Y-76943247D01*
X156885714Y-76943247D02*
X156809524Y-76981342D01*
X156809524Y-76981342D02*
X156504762Y-76981342D01*
X162709523Y-80720390D02*
X162633333Y-80682295D01*
X162633333Y-80682295D02*
X162519047Y-80682295D01*
X162519047Y-80682295D02*
X162404761Y-80720390D01*
X162404761Y-80720390D02*
X162328571Y-80796580D01*
X162328571Y-80796580D02*
X162290476Y-80872771D01*
X162290476Y-80872771D02*
X162252380Y-81025152D01*
X162252380Y-81025152D02*
X162252380Y-81139438D01*
X162252380Y-81139438D02*
X162290476Y-81291819D01*
X162290476Y-81291819D02*
X162328571Y-81368009D01*
X162328571Y-81368009D02*
X162404761Y-81444200D01*
X162404761Y-81444200D02*
X162519047Y-81482295D01*
X162519047Y-81482295D02*
X162595238Y-81482295D01*
X162595238Y-81482295D02*
X162709523Y-81444200D01*
X162709523Y-81444200D02*
X162747619Y-81406104D01*
X162747619Y-81406104D02*
X162747619Y-81139438D01*
X162747619Y-81139438D02*
X162595238Y-81139438D01*
X162747619Y-85366104D02*
X162709523Y-85404200D01*
X162709523Y-85404200D02*
X162595238Y-85442295D01*
X162595238Y-85442295D02*
X162519047Y-85442295D01*
X162519047Y-85442295D02*
X162404761Y-85404200D01*
X162404761Y-85404200D02*
X162328571Y-85328009D01*
X162328571Y-85328009D02*
X162290476Y-85251819D01*
X162290476Y-85251819D02*
X162252380Y-85099438D01*
X162252380Y-85099438D02*
X162252380Y-84985152D01*
X162252380Y-84985152D02*
X162290476Y-84832771D01*
X162290476Y-84832771D02*
X162328571Y-84756580D01*
X162328571Y-84756580D02*
X162404761Y-84680390D01*
X162404761Y-84680390D02*
X162519047Y-84642295D01*
X162519047Y-84642295D02*
X162595238Y-84642295D01*
X162595238Y-84642295D02*
X162709523Y-84680390D01*
X162709523Y-84680390D02*
X162747619Y-84718485D01*
X162290476Y-89402295D02*
X162290476Y-88602295D01*
X162290476Y-88602295D02*
X162480952Y-88602295D01*
X162480952Y-88602295D02*
X162595238Y-88640390D01*
X162595238Y-88640390D02*
X162671428Y-88716580D01*
X162671428Y-88716580D02*
X162709523Y-88792771D01*
X162709523Y-88792771D02*
X162747619Y-88945152D01*
X162747619Y-88945152D02*
X162747619Y-89059438D01*
X162747619Y-89059438D02*
X162709523Y-89211819D01*
X162709523Y-89211819D02*
X162671428Y-89288009D01*
X162671428Y-89288009D02*
X162595238Y-89364200D01*
X162595238Y-89364200D02*
X162480952Y-89402295D01*
X162480952Y-89402295D02*
X162290476Y-89402295D01*
X162195238Y-93057533D02*
X162804762Y-93057533D01*
X162500000Y-93362295D02*
X162500000Y-92752771D01*
%TO.C,U1*%
D11*
X128940000Y-85440000D02*
X133060000Y-85440000D01*
X128940000Y-85535000D02*
X128940000Y-85440000D01*
X128940000Y-90560000D02*
X128940000Y-90465000D01*
X133060000Y-85440000D02*
X133060000Y-85535000D01*
X133060000Y-90465000D02*
X133060000Y-90560000D01*
X133060000Y-90560000D02*
X128940000Y-90560000D01*
X128400000Y-85530000D02*
X128160000Y-85200000D01*
X128640000Y-85200000D01*
X128400000Y-85530000D01*
G36*
X128400000Y-85530000D02*
G01*
X128160000Y-85200000D01*
X128640000Y-85200000D01*
X128400000Y-85530000D01*
G37*
%TO.C,R3*%
X141540000Y-83630000D02*
X148080000Y-83630000D01*
X141540000Y-83960000D02*
X141540000Y-83630000D01*
X141540000Y-86040000D02*
X141540000Y-86370000D01*
X141540000Y-86370000D02*
X148080000Y-86370000D01*
X148080000Y-83630000D02*
X148080000Y-83960000D01*
X148080000Y-86370000D02*
X148080000Y-86040000D01*
%TO.C,R2*%
X110540000Y-92630000D02*
X117080000Y-92630000D01*
X110540000Y-92960000D02*
X110540000Y-92630000D01*
X110540000Y-95040000D02*
X110540000Y-95370000D01*
X110540000Y-95370000D02*
X117080000Y-95370000D01*
X117080000Y-92630000D02*
X117080000Y-92960000D01*
X117080000Y-95370000D02*
X117080000Y-95040000D01*
%TO.C,C1*%
X123630000Y-85975000D02*
X123967000Y-85975000D01*
X123630000Y-91215000D02*
X123630000Y-85975000D01*
X123967000Y-91215000D02*
X123630000Y-91215000D01*
X126033000Y-85975000D02*
X126370000Y-85975000D01*
X126370000Y-85975000D02*
X126370000Y-91215000D01*
X126370000Y-91215000D02*
X126033000Y-91215000D01*
%TO.C,R4*%
X139540000Y-92630000D02*
X146080000Y-92630000D01*
X139540000Y-92960000D02*
X139540000Y-92630000D01*
X139540000Y-95040000D02*
X139540000Y-95370000D01*
X139540000Y-95370000D02*
X146080000Y-95370000D01*
X146080000Y-92630000D02*
X146080000Y-92960000D01*
X146080000Y-95370000D02*
X146080000Y-95040000D01*
%TO.C,C2*%
X135630000Y-85975000D02*
X135967000Y-85975000D01*
X135630000Y-91215000D02*
X135630000Y-85975000D01*
X135967000Y-91215000D02*
X135630000Y-91215000D01*
X138033000Y-85975000D02*
X138370000Y-85975000D01*
X138370000Y-85975000D02*
X138370000Y-91215000D01*
X138370000Y-91215000D02*
X138033000Y-91215000D01*
%TO.C,R1*%
X110540000Y-82630000D02*
X117080000Y-82630000D01*
X110540000Y-82960000D02*
X110540000Y-82630000D01*
X110540000Y-85040000D02*
X110540000Y-85370000D01*
X110540000Y-85370000D02*
X117080000Y-85370000D01*
X117080000Y-82630000D02*
X117080000Y-82960000D01*
X117080000Y-85370000D02*
X117080000Y-85040000D01*
%TO.C,J3*%
X151190000Y-80260000D02*
X152890000Y-80260000D01*
X151190000Y-93860000D02*
X151190000Y-80260000D01*
X152890000Y-79060000D02*
X159910000Y-79060000D01*
X152890000Y-80260000D02*
X152890000Y-79060000D01*
X152890000Y-93860000D02*
X151190000Y-93860000D01*
X152890000Y-95060000D02*
X152890000Y-93860000D01*
X154700000Y-95860000D02*
X155000000Y-95260000D01*
X155000000Y-95260000D02*
X155300000Y-95860000D01*
X155300000Y-95860000D02*
X154700000Y-95860000D01*
X159910000Y-79060000D02*
X159910000Y-95060000D01*
X159910000Y-95060000D02*
X152890000Y-95060000D01*
%TD*%
M02*
