%TF.GenerationSoftware,KiCad,Pcbnew,10.0.7*%
%TF.CreationDate,2026-10-09T18:04:39+02:00*%
%TF.ProjectId,power-distribution,706f7765-722d-4646-9973-747269627574,C prototype*%
%TF.SameCoordinates,Original*%
%TF.FileFunction,Copper,L2,Bot*%
%TF.FilePolarity,Positive*%
%FSLAX46Y46*%
G04 Gerber Fmt 4.6, Leading zero omitted, Abs format (unit mm)*
G04 Created by KiCad (PCBNEW 10.0.7) date 2026-10-09 18:04:39*
%MOMM*%
%LPD*%
G01*
G04 APERTURE LIST*
G04 Aperture macros list*
%AMRoundRect*
0 Rectangle with rounded corners*
0 $1 Rounding radius*
0 $2 $3 $4 $5 $6 $7 $8 $9 X,Y pos of 4 corners*
0 Add a 4 corners polygon primitive as box body*
4,1,4,$2,$3,$4,$5,$6,$7,$8,$9,$2,$3,0*
0 Add four circle primitives for the rounded corners*
1,1,$1+$1,$2,$3*
1,1,$1+$1,$4,$5*
1,1,$1+$1,$6,$7*
1,1,$1+$1,$8,$9*
0 Add four rect primitives between the rounded corners*
20,1,$1+$1,$2,$3,$4,$5,0*
20,1,$1+$1,$4,$5,$6,$7,0*
20,1,$1+$1,$6,$7,$8,$9,0*
20,1,$1+$1,$8,$9,$2,$3,0*%
G04 Aperture macros list end*
%TA.AperFunction,ComponentPad*%
%ADD10C,2.780000*%
%TD*%
%TA.AperFunction,ComponentPad*%
%ADD11RoundRect,0.750000X-0.750000X-0.750000X0.750000X-0.750000X0.750000X0.750000X-0.750000X0.750000X0*%
%TD*%
%TA.AperFunction,ComponentPad*%
%ADD12C,3.000000*%
%TD*%
%TA.AperFunction,ComponentPad*%
%ADD13RoundRect,0.250001X-1.099999X-1.099999X1.099999X-1.099999X1.099999X1.099999X-1.099999X1.099999X0*%
%TD*%
%TA.AperFunction,ComponentPad*%
%ADD14C,2.700000*%
%TD*%
%TA.AperFunction,ComponentPad*%
%ADD15RoundRect,0.250000X0.750000X-0.750000X0.750000X0.750000X-0.750000X0.750000X-0.750000X-0.750000X0*%
%TD*%
%TA.AperFunction,ComponentPad*%
%ADD16C,2.000000*%
%TD*%
G04 APERTURE END LIST*
D10*
%TO.P,F2,1*%
%TO.N,+5V_BUS*%
X145000000Y-130000000D03*
X145000000Y-133400000D03*
%TO.P,F2,2*%
%TO.N,+5V_A*%
X154920000Y-130000000D03*
X154920000Y-133400000D03*
%TD*%
D11*
%TO.P,J1,1*%
%TO.N,GND*%
X110000000Y-110000000D03*
D12*
%TO.P,J1,2*%
%TO.N,+5V_IN*%
X115000000Y-110000000D03*
%TD*%
D13*
%TO.P,J2,1*%
%TO.N,+5V_A*%
X162000000Y-130000000D03*
D14*
%TO.P,J2,2*%
%TO.N,GND*%
X165960000Y-130000000D03*
%TD*%
D10*
%TO.P,F1,1*%
%TO.N,+5V_IN*%
X125000000Y-110000000D03*
X125000000Y-113400000D03*
%TO.P,F1,2*%
%TO.N,+5V_BUS*%
X134920000Y-110000000D03*
X134920000Y-113400000D03*
%TD*%
D15*
%TO.P,C1,1*%
%TO.N,+5V_BUS*%
X122000000Y-160000000D03*
D16*
%TO.P,C1,2*%
%TO.N,GND*%
X122000000Y-155000000D03*
%TD*%
D10*
%TO.P,F3,1*%
%TO.N,+5V_BUS*%
X145000000Y-150000000D03*
X145000000Y-153400000D03*
%TO.P,F3,2*%
%TO.N,+5V_B*%
X154920000Y-150000000D03*
X154920000Y-153400000D03*
%TD*%
D13*
%TO.P,J3,1*%
%TO.N,+5V_B*%
X162000000Y-150000000D03*
D14*
%TO.P,J3,2*%
%TO.N,GND*%
X165960000Y-150000000D03*
%TD*%
%TA.AperFunction,Conductor*%
%TO.N,GND*%
G36*
X174343039Y-100619685D02*
G01*
X174388794Y-100672489D01*
X174400000Y-100724000D01*
X174400000Y-179276000D01*
X174380315Y-179343039D01*
X174327511Y-179388794D01*
X174276000Y-179400000D01*
X100724000Y-179400000D01*
X100656961Y-179380315D01*
X100611206Y-179327511D01*
X100600000Y-179276000D01*
X100600000Y-176374038D01*
X101899500Y-176374038D01*
X101899500Y-176625961D01*
X101938910Y-176874785D01*
X102016760Y-177114383D01*
X102131132Y-177338848D01*
X102279201Y-177542649D01*
X102279205Y-177542654D01*
X102457345Y-177720794D01*
X102457350Y-177720798D01*
X102635117Y-177849952D01*
X102661155Y-177868870D01*
X102804184Y-177941747D01*
X102885616Y-177983239D01*
X102885618Y-177983239D01*
X102885621Y-177983241D01*
X103125215Y-178061090D01*
X103374038Y-178100500D01*
X103374039Y-178100500D01*
X103625961Y-178100500D01*
X103625962Y-178100500D01*
X103874785Y-178061090D01*
X104114379Y-177983241D01*
X104338845Y-177868870D01*
X104542656Y-177720793D01*
X104720793Y-177542656D01*
X104868870Y-177338845D01*
X104983241Y-177114379D01*
X105061090Y-176874785D01*
X105100500Y-176625962D01*
X105100500Y-176374038D01*
X169899500Y-176374038D01*
X169899500Y-176625961D01*
X169938910Y-176874785D01*
X170016760Y-177114383D01*
X170131132Y-177338848D01*
X170279201Y-177542649D01*
X170279205Y-177542654D01*
X170457345Y-177720794D01*
X170457350Y-177720798D01*
X170635117Y-177849952D01*
X170661155Y-177868870D01*
X170804184Y-177941747D01*
X170885616Y-177983239D01*
X170885618Y-177983239D01*
X170885621Y-177983241D01*
X171125215Y-178061090D01*
X171374038Y-178100500D01*
X171374039Y-178100500D01*
X171625961Y-178100500D01*
X171625962Y-178100500D01*
X171874785Y-178061090D01*
X172114379Y-177983241D01*
X172338845Y-177868870D01*
X172542656Y-177720793D01*
X172720793Y-177542656D01*
X172868870Y-177338845D01*
X172983241Y-177114379D01*
X173061090Y-176874785D01*
X173100500Y-176625962D01*
X173100500Y-176374038D01*
X173061090Y-176125215D01*
X172983241Y-175885621D01*
X172983239Y-175885618D01*
X172983239Y-175885616D01*
X172941747Y-175804184D01*
X172868870Y-175661155D01*
X172849952Y-175635117D01*
X172720798Y-175457350D01*
X172720794Y-175457345D01*
X172542654Y-175279205D01*
X172542649Y-175279201D01*
X172338848Y-175131132D01*
X172338847Y-175131131D01*
X172338845Y-175131130D01*
X172268747Y-175095413D01*
X172114383Y-175016760D01*
X171874785Y-174938910D01*
X171625962Y-174899500D01*
X171374038Y-174899500D01*
X171249626Y-174919205D01*
X171125214Y-174938910D01*
X170885616Y-175016760D01*
X170661151Y-175131132D01*
X170457350Y-175279201D01*
X170457345Y-175279205D01*
X170279205Y-175457345D01*
X170279201Y-175457350D01*
X170131132Y-175661151D01*
X170016760Y-175885616D01*
X169938910Y-176125214D01*
X169899500Y-176374038D01*
X105100500Y-176374038D01*
X105061090Y-176125215D01*
X104983241Y-175885621D01*
X104983239Y-175885618D01*
X104983239Y-175885616D01*
X104941747Y-175804184D01*
X104868870Y-175661155D01*
X104849952Y-175635117D01*
X104720798Y-175457350D01*
X104720794Y-175457345D01*
X104542654Y-175279205D01*
X104542649Y-175279201D01*
X104338848Y-175131132D01*
X104338847Y-175131131D01*
X104338845Y-175131130D01*
X104268747Y-175095413D01*
X104114383Y-175016760D01*
X103874785Y-174938910D01*
X103625962Y-174899500D01*
X103374038Y-174899500D01*
X103249626Y-174919205D01*
X103125214Y-174938910D01*
X102885616Y-175016760D01*
X102661151Y-175131132D01*
X102457350Y-175279201D01*
X102457345Y-175279205D01*
X102279205Y-175457345D01*
X102279201Y-175457350D01*
X102131132Y-175661151D01*
X102016760Y-175885616D01*
X101938910Y-176125214D01*
X101899500Y-176374038D01*
X100600000Y-176374038D01*
X100600000Y-159206898D01*
X120699500Y-159206898D01*
X120699500Y-160793102D01*
X120705126Y-160839954D01*
X120710122Y-160881561D01*
X120765639Y-161022343D01*
X120857077Y-161142922D01*
X120977656Y-161234360D01*
X120977657Y-161234360D01*
X120977658Y-161234361D01*
X121118436Y-161289877D01*
X121206898Y-161300500D01*
X121206903Y-161300500D01*
X122793097Y-161300500D01*
X122793102Y-161300500D01*
X122881564Y-161289877D01*
X123022342Y-161234361D01*
X123142922Y-161142922D01*
X123234361Y-161022342D01*
X123289877Y-160881564D01*
X123300500Y-160793102D01*
X123300500Y-159206898D01*
X123289877Y-159118436D01*
X123234361Y-158977658D01*
X123234360Y-158977657D01*
X123234360Y-158977656D01*
X123142922Y-158857077D01*
X123022343Y-158765639D01*
X122881561Y-158710122D01*
X122835926Y-158704642D01*
X122793102Y-158699500D01*
X121206898Y-158699500D01*
X121167853Y-158704188D01*
X121118438Y-158710122D01*
X120977656Y-158765639D01*
X120857077Y-158857077D01*
X120765639Y-158977656D01*
X120710122Y-159118438D01*
X120704188Y-159167853D01*
X120699500Y-159206898D01*
X100600000Y-159206898D01*
X100600000Y-149889205D01*
X143309500Y-149889205D01*
X143309500Y-150110794D01*
X143309501Y-150110810D01*
X143338424Y-150330504D01*
X143395780Y-150544559D01*
X143480581Y-150749286D01*
X143480585Y-150749296D01*
X143591384Y-150941206D01*
X143726286Y-151117014D01*
X143726292Y-151117021D01*
X143882978Y-151273707D01*
X143882985Y-151273713D01*
X144058793Y-151408615D01*
X144250703Y-151519414D01*
X144250704Y-151519414D01*
X144250707Y-151519416D01*
X144410100Y-151585439D01*
X144464503Y-151629280D01*
X144486568Y-151695574D01*
X144469289Y-151763273D01*
X144418152Y-151810884D01*
X144410100Y-151814561D01*
X144250713Y-151880581D01*
X144250703Y-151880585D01*
X144058793Y-151991384D01*
X143882985Y-152126286D01*
X143882978Y-152126292D01*
X143726292Y-152282978D01*
X143726286Y-152282985D01*
X143591384Y-152458793D01*
X143480585Y-152650703D01*
X143480581Y-152650713D01*
X143395780Y-152855440D01*
X143338424Y-153069495D01*
X143309501Y-153289189D01*
X143309500Y-153289205D01*
X143309500Y-153510794D01*
X143309501Y-153510810D01*
X143338424Y-153730504D01*
X143395780Y-153944559D01*
X143480581Y-154149286D01*
X143480585Y-154149296D01*
X143591384Y-154341206D01*
X143726286Y-154517014D01*
X143726292Y-154517021D01*
X143882978Y-154673707D01*
X143882985Y-154673713D01*
X144058793Y-154808615D01*
X144250703Y-154919414D01*
X144250704Y-154919414D01*
X144250707Y-154919416D01*
X144455441Y-155004220D01*
X144669492Y-155061575D01*
X144889199Y-155090500D01*
X144889206Y-155090500D01*
X145110794Y-155090500D01*
X145110801Y-155090500D01*
X145330508Y-155061575D01*
X145544559Y-155004220D01*
X145749293Y-154919416D01*
X145941207Y-154808615D01*
X146117016Y-154673712D01*
X146273712Y-154517016D01*
X146408615Y-154341207D01*
X146519416Y-154149293D01*
X146604220Y-153944559D01*
X146661575Y-153730508D01*
X146690500Y-153510801D01*
X146690500Y-153289199D01*
X146661575Y-153069492D01*
X146604220Y-152855441D01*
X146519416Y-152650707D01*
X146408615Y-152458793D01*
X146273712Y-152282984D01*
X146273707Y-152282978D01*
X146117021Y-152126292D01*
X146117014Y-152126286D01*
X145941206Y-151991384D01*
X145749296Y-151880585D01*
X145749281Y-151880578D01*
X145589900Y-151814561D01*
X145535496Y-151770720D01*
X145513431Y-151704426D01*
X145530710Y-151636727D01*
X145581847Y-151589116D01*
X145589900Y-151585439D01*
X145749281Y-151519421D01*
X145749281Y-151519420D01*
X145749293Y-151519416D01*
X145941207Y-151408615D01*
X146117016Y-151273712D01*
X146273712Y-151117016D01*
X146408615Y-150941207D01*
X146519416Y-150749293D01*
X146604220Y-150544559D01*
X146661575Y-150330508D01*
X146690500Y-150110801D01*
X146690500Y-149889205D01*
X153229500Y-149889205D01*
X153229500Y-150110794D01*
X153229501Y-150110810D01*
X153258424Y-150330504D01*
X153315780Y-150544559D01*
X153400581Y-150749286D01*
X153400585Y-150749296D01*
X153511384Y-150941206D01*
X153646286Y-151117014D01*
X153646292Y-151117021D01*
X153802978Y-151273707D01*
X153802985Y-151273713D01*
X153978793Y-151408615D01*
X154170703Y-151519414D01*
X154170704Y-151519414D01*
X154170707Y-151519416D01*
X154330100Y-151585439D01*
X154384503Y-151629280D01*
X154406568Y-151695574D01*
X154389289Y-151763273D01*
X154338152Y-151810884D01*
X154330100Y-151814561D01*
X154170713Y-151880581D01*
X154170703Y-151880585D01*
X153978793Y-151991384D01*
X153802985Y-152126286D01*
X153802978Y-152126292D01*
X153646292Y-152282978D01*
X153646286Y-152282985D01*
X153511384Y-152458793D01*
X153400585Y-152650703D01*
X153400581Y-152650713D01*
X153315780Y-152855440D01*
X153258424Y-153069495D01*
X153229501Y-153289189D01*
X153229500Y-153289205D01*
X153229500Y-153510794D01*
X153229501Y-153510810D01*
X153258424Y-153730504D01*
X153315780Y-153944559D01*
X153400581Y-154149286D01*
X153400585Y-154149296D01*
X153511384Y-154341206D01*
X153646286Y-154517014D01*
X153646292Y-154517021D01*
X153802978Y-154673707D01*
X153802985Y-154673713D01*
X153978793Y-154808615D01*
X154170703Y-154919414D01*
X154170704Y-154919414D01*
X154170707Y-154919416D01*
X154375441Y-155004220D01*
X154589492Y-155061575D01*
X154809199Y-155090500D01*
X154809206Y-155090500D01*
X155030794Y-155090500D01*
X155030801Y-155090500D01*
X155250508Y-155061575D01*
X155464559Y-155004220D01*
X155669293Y-154919416D01*
X155861207Y-154808615D01*
X156037016Y-154673712D01*
X156193712Y-154517016D01*
X156328615Y-154341207D01*
X156439416Y-154149293D01*
X156524220Y-153944559D01*
X156581575Y-153730508D01*
X156610500Y-153510801D01*
X156610500Y-153289199D01*
X156581575Y-153069492D01*
X156524220Y-152855441D01*
X156439416Y-152650707D01*
X156328615Y-152458793D01*
X156193712Y-152282984D01*
X156193707Y-152282978D01*
X156037021Y-152126292D01*
X156037014Y-152126286D01*
X155861206Y-151991384D01*
X155669296Y-151880585D01*
X155669281Y-151880578D01*
X155509900Y-151814561D01*
X155455496Y-151770720D01*
X155433431Y-151704426D01*
X155450710Y-151636727D01*
X155501847Y-151589116D01*
X155509900Y-151585439D01*
X155669281Y-151519421D01*
X155669281Y-151519420D01*
X155669293Y-151519416D01*
X155861207Y-151408615D01*
X156037016Y-151273712D01*
X156193712Y-151117016D01*
X156328615Y-150941207D01*
X156439416Y-150749293D01*
X156524220Y-150544559D01*
X156581575Y-150330508D01*
X156610500Y-150110801D01*
X156610500Y-149889199D01*
X156581575Y-149669492D01*
X156524220Y-149455441D01*
X156439416Y-149250707D01*
X156328615Y-149058793D01*
X156193712Y-148882984D01*
X156193707Y-148882978D01*
X156167629Y-148856900D01*
X160349500Y-148856900D01*
X160349500Y-151143091D01*
X160360123Y-151231562D01*
X160415639Y-151372342D01*
X160415640Y-151372344D01*
X160507077Y-151492922D01*
X160627655Y-151584359D01*
X160627658Y-151584361D01*
X160768436Y-151639876D01*
X160856901Y-151650500D01*
X163143098Y-151650499D01*
X163231564Y-151639876D01*
X163372342Y-151584361D01*
X163492922Y-151492922D01*
X163584361Y-151372342D01*
X163639876Y-151231564D01*
X163650500Y-151143099D01*
X163650499Y-148856902D01*
X163639876Y-148768436D01*
X163584361Y-148627658D01*
X163584359Y-148627655D01*
X163492922Y-148507077D01*
X163372344Y-148415640D01*
X163372342Y-148415639D01*
X163231564Y-148360124D01*
X163231561Y-148360123D01*
X163143099Y-148349500D01*
X160856908Y-148349500D01*
X160768437Y-148360123D01*
X160627657Y-148415639D01*
X160627655Y-148415640D01*
X160507077Y-148507077D01*
X160415640Y-148627655D01*
X160360124Y-148768437D01*
X160360123Y-148768438D01*
X160349500Y-148856900D01*
X156167629Y-148856900D01*
X156037021Y-148726292D01*
X156037014Y-148726286D01*
X155861206Y-148591384D01*
X155669296Y-148480585D01*
X155669286Y-148480581D01*
X155464559Y-148395780D01*
X155250504Y-148338424D01*
X155030810Y-148309501D01*
X155030807Y-148309500D01*
X155030801Y-148309500D01*
X154809199Y-148309500D01*
X154809193Y-148309500D01*
X154809189Y-148309501D01*
X154589495Y-148338424D01*
X154375440Y-148395780D01*
X154170713Y-148480581D01*
X154170703Y-148480585D01*
X153978793Y-148591384D01*
X153802985Y-148726286D01*
X153802978Y-148726292D01*
X153646292Y-148882978D01*
X153646286Y-148882985D01*
X153511384Y-149058793D01*
X153400585Y-149250703D01*
X153400581Y-149250713D01*
X153315780Y-149455440D01*
X153258424Y-149669495D01*
X153229501Y-149889189D01*
X153229500Y-149889205D01*
X146690500Y-149889205D01*
X146690500Y-149889199D01*
X146661575Y-149669492D01*
X146604220Y-149455441D01*
X146519416Y-149250707D01*
X146408615Y-149058793D01*
X146273712Y-148882984D01*
X146273707Y-148882978D01*
X146117021Y-148726292D01*
X146117014Y-148726286D01*
X145941206Y-148591384D01*
X145749296Y-148480585D01*
X145749286Y-148480581D01*
X145544559Y-148395780D01*
X145330504Y-148338424D01*
X145110810Y-148309501D01*
X145110807Y-148309500D01*
X145110801Y-148309500D01*
X144889199Y-148309500D01*
X144889193Y-148309500D01*
X144889189Y-148309501D01*
X144669495Y-148338424D01*
X144455440Y-148395780D01*
X144250713Y-148480581D01*
X144250703Y-148480585D01*
X144058793Y-148591384D01*
X143882985Y-148726286D01*
X143882978Y-148726292D01*
X143726292Y-148882978D01*
X143726286Y-148882985D01*
X143591384Y-149058793D01*
X143480585Y-149250703D01*
X143480581Y-149250713D01*
X143395780Y-149455440D01*
X143338424Y-149669495D01*
X143309501Y-149889189D01*
X143309500Y-149889205D01*
X100600000Y-149889205D01*
X100600000Y-129889205D01*
X143309500Y-129889205D01*
X143309500Y-130110794D01*
X143309501Y-130110810D01*
X143338424Y-130330504D01*
X143395780Y-130544559D01*
X143480581Y-130749286D01*
X143480585Y-130749296D01*
X143591384Y-130941206D01*
X143726286Y-131117014D01*
X143726292Y-131117021D01*
X143882978Y-131273707D01*
X143882985Y-131273713D01*
X144058793Y-131408615D01*
X144250703Y-131519414D01*
X144250704Y-131519414D01*
X144250707Y-131519416D01*
X144410100Y-131585439D01*
X144464503Y-131629280D01*
X144486568Y-131695574D01*
X144469289Y-131763273D01*
X144418152Y-131810884D01*
X144410100Y-131814561D01*
X144250713Y-131880581D01*
X144250703Y-131880585D01*
X144058793Y-131991384D01*
X143882985Y-132126286D01*
X143882978Y-132126292D01*
X143726292Y-132282978D01*
X143726286Y-132282985D01*
X143591384Y-132458793D01*
X143480585Y-132650703D01*
X143480581Y-132650713D01*
X143395780Y-132855440D01*
X143338424Y-133069495D01*
X143309501Y-133289189D01*
X143309500Y-133289205D01*
X143309500Y-133510794D01*
X143309501Y-133510810D01*
X143338424Y-133730504D01*
X143395780Y-133944559D01*
X143480581Y-134149286D01*
X143480585Y-134149296D01*
X143591384Y-134341206D01*
X143726286Y-134517014D01*
X143726292Y-134517021D01*
X143882978Y-134673707D01*
X143882985Y-134673713D01*
X144058793Y-134808615D01*
X144250703Y-134919414D01*
X144250704Y-134919414D01*
X144250707Y-134919416D01*
X144455441Y-135004220D01*
X144669492Y-135061575D01*
X144889199Y-135090500D01*
X144889206Y-135090500D01*
X145110794Y-135090500D01*
X145110801Y-135090500D01*
X145330508Y-135061575D01*
X145544559Y-135004220D01*
X145749293Y-134919416D01*
X145941207Y-134808615D01*
X146117016Y-134673712D01*
X146273712Y-134517016D01*
X146408615Y-134341207D01*
X146519416Y-134149293D01*
X146604220Y-133944559D01*
X146661575Y-133730508D01*
X146690500Y-133510801D01*
X146690500Y-133289199D01*
X146661575Y-133069492D01*
X146604220Y-132855441D01*
X146519416Y-132650707D01*
X146408615Y-132458793D01*
X146273712Y-132282984D01*
X146273707Y-132282978D01*
X146117021Y-132126292D01*
X146117014Y-132126286D01*
X145941206Y-131991384D01*
X145749296Y-131880585D01*
X145749281Y-131880578D01*
X145589900Y-131814561D01*
X145535496Y-131770720D01*
X145513431Y-131704426D01*
X145530710Y-131636727D01*
X145581847Y-131589116D01*
X145589900Y-131585439D01*
X145749281Y-131519421D01*
X145749281Y-131519420D01*
X145749293Y-131519416D01*
X145941207Y-131408615D01*
X146117016Y-131273712D01*
X146273712Y-131117016D01*
X146408615Y-130941207D01*
X146519416Y-130749293D01*
X146604220Y-130544559D01*
X146661575Y-130330508D01*
X146690500Y-130110801D01*
X146690500Y-129889205D01*
X153229500Y-129889205D01*
X153229500Y-130110794D01*
X153229501Y-130110810D01*
X153258424Y-130330504D01*
X153315780Y-130544559D01*
X153400581Y-130749286D01*
X153400585Y-130749296D01*
X153511384Y-130941206D01*
X153646286Y-131117014D01*
X153646292Y-131117021D01*
X153802978Y-131273707D01*
X153802985Y-131273713D01*
X153978793Y-131408615D01*
X154170703Y-131519414D01*
X154170704Y-131519414D01*
X154170707Y-131519416D01*
X154330100Y-131585439D01*
X154384503Y-131629280D01*
X154406568Y-131695574D01*
X154389289Y-131763273D01*
X154338152Y-131810884D01*
X154330100Y-131814561D01*
X154170713Y-131880581D01*
X154170703Y-131880585D01*
X153978793Y-131991384D01*
X153802985Y-132126286D01*
X153802978Y-132126292D01*
X153646292Y-132282978D01*
X153646286Y-132282985D01*
X153511384Y-132458793D01*
X153400585Y-132650703D01*
X153400581Y-132650713D01*
X153315780Y-132855440D01*
X153258424Y-133069495D01*
X153229501Y-133289189D01*
X153229500Y-133289205D01*
X153229500Y-133510794D01*
X153229501Y-133510810D01*
X153258424Y-133730504D01*
X153315780Y-133944559D01*
X153400581Y-134149286D01*
X153400585Y-134149296D01*
X153511384Y-134341206D01*
X153646286Y-134517014D01*
X153646292Y-134517021D01*
X153802978Y-134673707D01*
X153802985Y-134673713D01*
X153978793Y-134808615D01*
X154170703Y-134919414D01*
X154170704Y-134919414D01*
X154170707Y-134919416D01*
X154375441Y-135004220D01*
X154589492Y-135061575D01*
X154809199Y-135090500D01*
X154809206Y-135090500D01*
X155030794Y-135090500D01*
X155030801Y-135090500D01*
X155250508Y-135061575D01*
X155464559Y-135004220D01*
X155669293Y-134919416D01*
X155861207Y-134808615D01*
X156037016Y-134673712D01*
X156193712Y-134517016D01*
X156328615Y-134341207D01*
X156439416Y-134149293D01*
X156524220Y-133944559D01*
X156581575Y-133730508D01*
X156610500Y-133510801D01*
X156610500Y-133289199D01*
X156581575Y-133069492D01*
X156524220Y-132855441D01*
X156439416Y-132650707D01*
X156328615Y-132458793D01*
X156193712Y-132282984D01*
X156193707Y-132282978D01*
X156037021Y-132126292D01*
X156037014Y-132126286D01*
X155861206Y-131991384D01*
X155669296Y-131880585D01*
X155669281Y-131880578D01*
X155509900Y-131814561D01*
X155455496Y-131770720D01*
X155433431Y-131704426D01*
X155450710Y-131636727D01*
X155501847Y-131589116D01*
X155509900Y-131585439D01*
X155669281Y-131519421D01*
X155669281Y-131519420D01*
X155669293Y-131519416D01*
X155861207Y-131408615D01*
X156037016Y-131273712D01*
X156193712Y-131117016D01*
X156328615Y-130941207D01*
X156439416Y-130749293D01*
X156524220Y-130544559D01*
X156581575Y-130330508D01*
X156610500Y-130110801D01*
X156610500Y-129889199D01*
X156581575Y-129669492D01*
X156524220Y-129455441D01*
X156439416Y-129250707D01*
X156328615Y-129058793D01*
X156193712Y-128882984D01*
X156193707Y-128882978D01*
X156167629Y-128856900D01*
X160349500Y-128856900D01*
X160349500Y-131143091D01*
X160360123Y-131231562D01*
X160415639Y-131372342D01*
X160415640Y-131372344D01*
X160507077Y-131492922D01*
X160627655Y-131584359D01*
X160627658Y-131584361D01*
X160768436Y-131639876D01*
X160856901Y-131650500D01*
X163143098Y-131650499D01*
X163231564Y-131639876D01*
X163372342Y-131584361D01*
X163492922Y-131492922D01*
X163584361Y-131372342D01*
X163639876Y-131231564D01*
X163650500Y-131143099D01*
X163650499Y-128856902D01*
X163639876Y-128768436D01*
X163584361Y-128627658D01*
X163584359Y-128627655D01*
X163492922Y-128507077D01*
X163372344Y-128415640D01*
X163372342Y-128415639D01*
X163231564Y-128360124D01*
X163231561Y-128360123D01*
X163143099Y-128349500D01*
X160856908Y-128349500D01*
X160768437Y-128360123D01*
X160627657Y-128415639D01*
X160627655Y-128415640D01*
X160507077Y-128507077D01*
X160415640Y-128627655D01*
X160360124Y-128768437D01*
X160360123Y-128768438D01*
X160349500Y-128856900D01*
X156167629Y-128856900D01*
X156037021Y-128726292D01*
X156037014Y-128726286D01*
X155861206Y-128591384D01*
X155669296Y-128480585D01*
X155669286Y-128480581D01*
X155464559Y-128395780D01*
X155250504Y-128338424D01*
X155030810Y-128309501D01*
X155030807Y-128309500D01*
X155030801Y-128309500D01*
X154809199Y-128309500D01*
X154809193Y-128309500D01*
X154809189Y-128309501D01*
X154589495Y-128338424D01*
X154375440Y-128395780D01*
X154170713Y-128480581D01*
X154170703Y-128480585D01*
X153978793Y-128591384D01*
X153802985Y-128726286D01*
X153802978Y-128726292D01*
X153646292Y-128882978D01*
X153646286Y-128882985D01*
X153511384Y-129058793D01*
X153400585Y-129250703D01*
X153400581Y-129250713D01*
X153315780Y-129455440D01*
X153258424Y-129669495D01*
X153229501Y-129889189D01*
X153229500Y-129889205D01*
X146690500Y-129889205D01*
X146690500Y-129889199D01*
X146661575Y-129669492D01*
X146604220Y-129455441D01*
X146519416Y-129250707D01*
X146408615Y-129058793D01*
X146273712Y-128882984D01*
X146273707Y-128882978D01*
X146117021Y-128726292D01*
X146117014Y-128726286D01*
X145941206Y-128591384D01*
X145749296Y-128480585D01*
X145749286Y-128480581D01*
X145544559Y-128395780D01*
X145330504Y-128338424D01*
X145110810Y-128309501D01*
X145110807Y-128309500D01*
X145110801Y-128309500D01*
X144889199Y-128309500D01*
X144889193Y-128309500D01*
X144889189Y-128309501D01*
X144669495Y-128338424D01*
X144455440Y-128395780D01*
X144250713Y-128480581D01*
X144250703Y-128480585D01*
X144058793Y-128591384D01*
X143882985Y-128726286D01*
X143882978Y-128726292D01*
X143726292Y-128882978D01*
X143726286Y-128882985D01*
X143591384Y-129058793D01*
X143480585Y-129250703D01*
X143480581Y-129250713D01*
X143395780Y-129455440D01*
X143338424Y-129669495D01*
X143309501Y-129889189D01*
X143309500Y-129889205D01*
X100600000Y-129889205D01*
X100600000Y-109881995D01*
X113199500Y-109881995D01*
X113199500Y-110118004D01*
X113199501Y-110118020D01*
X113230306Y-110352010D01*
X113291394Y-110579993D01*
X113381714Y-110798045D01*
X113381719Y-110798056D01*
X113452677Y-110920957D01*
X113499727Y-111002450D01*
X113499729Y-111002453D01*
X113499730Y-111002454D01*
X113643406Y-111189697D01*
X113643412Y-111189704D01*
X113810295Y-111356587D01*
X113810301Y-111356592D01*
X113997550Y-111500273D01*
X114128918Y-111576118D01*
X114201943Y-111618280D01*
X114201948Y-111618282D01*
X114201951Y-111618284D01*
X114420007Y-111708606D01*
X114647986Y-111769693D01*
X114881989Y-111800500D01*
X114881996Y-111800500D01*
X115118004Y-111800500D01*
X115118011Y-111800500D01*
X115352014Y-111769693D01*
X115579993Y-111708606D01*
X115798049Y-111618284D01*
X116002450Y-111500273D01*
X116189699Y-111356592D01*
X116356592Y-111189699D01*
X116500273Y-111002450D01*
X116618284Y-110798049D01*
X116708606Y-110579993D01*
X116769693Y-110352014D01*
X116800500Y-110118011D01*
X116800500Y-109889199D01*
X123309500Y-109889199D01*
X123309500Y-110110801D01*
X123338425Y-110330508D01*
X123344188Y-110352014D01*
X123395780Y-110544559D01*
X123480581Y-110749286D01*
X123480585Y-110749296D01*
X123591384Y-110941206D01*
X123726286Y-111117014D01*
X123726292Y-111117021D01*
X123882978Y-111273707D01*
X123882985Y-111273713D01*
X124058793Y-111408615D01*
X124250703Y-111519414D01*
X124250704Y-111519414D01*
X124250707Y-111519416D01*
X124410100Y-111585439D01*
X124464503Y-111629280D01*
X124486568Y-111695574D01*
X124469289Y-111763273D01*
X124418152Y-111810884D01*
X124410100Y-111814561D01*
X124250713Y-111880581D01*
X124250703Y-111880585D01*
X124058793Y-111991384D01*
X123882985Y-112126286D01*
X123882978Y-112126292D01*
X123726292Y-112282978D01*
X123726286Y-112282985D01*
X123591384Y-112458793D01*
X123480585Y-112650703D01*
X123480581Y-112650713D01*
X123395780Y-112855440D01*
X123338424Y-113069495D01*
X123309501Y-113289189D01*
X123309500Y-113289205D01*
X123309500Y-113510794D01*
X123309501Y-113510810D01*
X123338424Y-113730504D01*
X123395780Y-113944559D01*
X123480581Y-114149286D01*
X123480585Y-114149296D01*
X123591384Y-114341206D01*
X123726286Y-114517014D01*
X123726292Y-114517021D01*
X123882978Y-114673707D01*
X123882985Y-114673713D01*
X124058793Y-114808615D01*
X124250703Y-114919414D01*
X124250704Y-114919414D01*
X124250707Y-114919416D01*
X124455441Y-115004220D01*
X124669492Y-115061575D01*
X124889199Y-115090500D01*
X124889206Y-115090500D01*
X125110794Y-115090500D01*
X125110801Y-115090500D01*
X125330508Y-115061575D01*
X125544559Y-115004220D01*
X125749293Y-114919416D01*
X125941207Y-114808615D01*
X126117016Y-114673712D01*
X126273712Y-114517016D01*
X126408615Y-114341207D01*
X126519416Y-114149293D01*
X126604220Y-113944559D01*
X126661575Y-113730508D01*
X126690500Y-113510801D01*
X126690500Y-113289199D01*
X126661575Y-113069492D01*
X126604220Y-112855441D01*
X126519416Y-112650707D01*
X126408615Y-112458793D01*
X126273712Y-112282984D01*
X126273707Y-112282978D01*
X126117021Y-112126292D01*
X126117014Y-112126286D01*
X125941206Y-111991384D01*
X125749296Y-111880585D01*
X125749281Y-111880578D01*
X125589900Y-111814561D01*
X125535496Y-111770720D01*
X125513431Y-111704426D01*
X125530710Y-111636727D01*
X125581847Y-111589116D01*
X125589900Y-111585439D01*
X125749281Y-111519421D01*
X125749281Y-111519420D01*
X125749293Y-111519416D01*
X125941207Y-111408615D01*
X126117016Y-111273712D01*
X126273712Y-111117016D01*
X126408615Y-110941207D01*
X126519416Y-110749293D01*
X126604220Y-110544559D01*
X126661575Y-110330508D01*
X126690500Y-110110801D01*
X126690500Y-109889199D01*
X133229500Y-109889199D01*
X133229500Y-110110801D01*
X133258425Y-110330508D01*
X133264188Y-110352014D01*
X133315780Y-110544559D01*
X133400581Y-110749286D01*
X133400585Y-110749296D01*
X133511384Y-110941206D01*
X133646286Y-111117014D01*
X133646292Y-111117021D01*
X133802978Y-111273707D01*
X133802985Y-111273713D01*
X133978793Y-111408615D01*
X134170703Y-111519414D01*
X134170704Y-111519414D01*
X134170707Y-111519416D01*
X134330100Y-111585439D01*
X134384503Y-111629280D01*
X134406568Y-111695574D01*
X134389289Y-111763273D01*
X134338152Y-111810884D01*
X134330100Y-111814561D01*
X134170713Y-111880581D01*
X134170703Y-111880585D01*
X133978793Y-111991384D01*
X133802985Y-112126286D01*
X133802978Y-112126292D01*
X133646292Y-112282978D01*
X133646286Y-112282985D01*
X133511384Y-112458793D01*
X133400585Y-112650703D01*
X133400581Y-112650713D01*
X133315780Y-112855440D01*
X133258424Y-113069495D01*
X133229501Y-113289189D01*
X133229500Y-113289205D01*
X133229500Y-113510794D01*
X133229501Y-113510810D01*
X133258424Y-113730504D01*
X133315780Y-113944559D01*
X133400581Y-114149286D01*
X133400585Y-114149296D01*
X133511384Y-114341206D01*
X133646286Y-114517014D01*
X133646292Y-114517021D01*
X133802978Y-114673707D01*
X133802985Y-114673713D01*
X133978793Y-114808615D01*
X134170703Y-114919414D01*
X134170704Y-114919414D01*
X134170707Y-114919416D01*
X134375441Y-115004220D01*
X134589492Y-115061575D01*
X134809199Y-115090500D01*
X134809206Y-115090500D01*
X135030794Y-115090500D01*
X135030801Y-115090500D01*
X135250508Y-115061575D01*
X135464559Y-115004220D01*
X135669293Y-114919416D01*
X135861207Y-114808615D01*
X136037016Y-114673712D01*
X136193712Y-114517016D01*
X136328615Y-114341207D01*
X136439416Y-114149293D01*
X136524220Y-113944559D01*
X136581575Y-113730508D01*
X136610500Y-113510801D01*
X136610500Y-113289199D01*
X136581575Y-113069492D01*
X136524220Y-112855441D01*
X136439416Y-112650707D01*
X136328615Y-112458793D01*
X136193712Y-112282984D01*
X136193707Y-112282978D01*
X136037021Y-112126292D01*
X136037014Y-112126286D01*
X135861206Y-111991384D01*
X135669296Y-111880585D01*
X135669281Y-111880578D01*
X135509900Y-111814561D01*
X135455496Y-111770720D01*
X135433431Y-111704426D01*
X135450710Y-111636727D01*
X135501847Y-111589116D01*
X135509900Y-111585439D01*
X135669281Y-111519421D01*
X135669281Y-111519420D01*
X135669293Y-111519416D01*
X135861207Y-111408615D01*
X136037016Y-111273712D01*
X136193712Y-111117016D01*
X136328615Y-110941207D01*
X136439416Y-110749293D01*
X136524220Y-110544559D01*
X136581575Y-110330508D01*
X136610500Y-110110801D01*
X136610500Y-109889199D01*
X136581575Y-109669492D01*
X136524220Y-109455441D01*
X136439416Y-109250707D01*
X136328615Y-109058793D01*
X136193712Y-108882984D01*
X136193707Y-108882978D01*
X136037021Y-108726292D01*
X136037014Y-108726286D01*
X135861206Y-108591384D01*
X135669296Y-108480585D01*
X135669286Y-108480581D01*
X135464559Y-108395780D01*
X135250504Y-108338424D01*
X135030810Y-108309501D01*
X135030807Y-108309500D01*
X135030801Y-108309500D01*
X134809199Y-108309500D01*
X134809193Y-108309500D01*
X134809189Y-108309501D01*
X134589495Y-108338424D01*
X134375440Y-108395780D01*
X134170713Y-108480581D01*
X134170703Y-108480585D01*
X133978793Y-108591384D01*
X133802985Y-108726286D01*
X133802978Y-108726292D01*
X133646292Y-108882978D01*
X133646286Y-108882985D01*
X133511384Y-109058793D01*
X133400585Y-109250703D01*
X133400581Y-109250713D01*
X133315780Y-109455440D01*
X133258424Y-109669495D01*
X133230449Y-109881989D01*
X133229500Y-109889199D01*
X126690500Y-109889199D01*
X126661575Y-109669492D01*
X126604220Y-109455441D01*
X126519416Y-109250707D01*
X126408615Y-109058793D01*
X126273712Y-108882984D01*
X126273707Y-108882978D01*
X126117021Y-108726292D01*
X126117014Y-108726286D01*
X125941206Y-108591384D01*
X125749296Y-108480585D01*
X125749286Y-108480581D01*
X125544559Y-108395780D01*
X125330504Y-108338424D01*
X125110810Y-108309501D01*
X125110807Y-108309500D01*
X125110801Y-108309500D01*
X124889199Y-108309500D01*
X124889193Y-108309500D01*
X124889189Y-108309501D01*
X124669495Y-108338424D01*
X124455440Y-108395780D01*
X124250713Y-108480581D01*
X124250703Y-108480585D01*
X124058793Y-108591384D01*
X123882985Y-108726286D01*
X123882978Y-108726292D01*
X123726292Y-108882978D01*
X123726286Y-108882985D01*
X123591384Y-109058793D01*
X123480585Y-109250703D01*
X123480581Y-109250713D01*
X123395780Y-109455440D01*
X123338424Y-109669495D01*
X123310449Y-109881989D01*
X123309500Y-109889199D01*
X116800500Y-109889199D01*
X116800500Y-109881989D01*
X116769693Y-109647986D01*
X116708606Y-109420007D01*
X116618284Y-109201951D01*
X116618282Y-109201948D01*
X116618280Y-109201943D01*
X116576118Y-109128918D01*
X116500273Y-108997550D01*
X116356592Y-108810301D01*
X116356587Y-108810295D01*
X116189704Y-108643412D01*
X116189697Y-108643406D01*
X116002454Y-108499730D01*
X116002453Y-108499729D01*
X116002450Y-108499727D01*
X115920957Y-108452677D01*
X115798056Y-108381719D01*
X115798045Y-108381714D01*
X115579993Y-108291394D01*
X115352010Y-108230306D01*
X115118020Y-108199501D01*
X115118017Y-108199500D01*
X115118011Y-108199500D01*
X114881989Y-108199500D01*
X114881983Y-108199500D01*
X114881979Y-108199501D01*
X114647989Y-108230306D01*
X114420006Y-108291394D01*
X114201954Y-108381714D01*
X114201943Y-108381719D01*
X113997545Y-108499730D01*
X113810302Y-108643406D01*
X113810295Y-108643412D01*
X113643412Y-108810295D01*
X113643406Y-108810302D01*
X113499730Y-108997545D01*
X113381719Y-109201943D01*
X113381714Y-109201954D01*
X113291394Y-109420006D01*
X113230306Y-109647989D01*
X113199501Y-109881979D01*
X113199500Y-109881995D01*
X100600000Y-109881995D01*
X100600000Y-103374038D01*
X101899500Y-103374038D01*
X101899500Y-103625961D01*
X101938910Y-103874785D01*
X102016760Y-104114383D01*
X102131132Y-104338848D01*
X102279201Y-104542649D01*
X102279205Y-104542654D01*
X102457345Y-104720794D01*
X102457350Y-104720798D01*
X102635117Y-104849952D01*
X102661155Y-104868870D01*
X102804184Y-104941747D01*
X102885616Y-104983239D01*
X102885618Y-104983239D01*
X102885621Y-104983241D01*
X103125215Y-105061090D01*
X103374038Y-105100500D01*
X103374039Y-105100500D01*
X103625961Y-105100500D01*
X103625962Y-105100500D01*
X103874785Y-105061090D01*
X104114379Y-104983241D01*
X104338845Y-104868870D01*
X104542656Y-104720793D01*
X104720793Y-104542656D01*
X104868870Y-104338845D01*
X104983241Y-104114379D01*
X105061090Y-103874785D01*
X105100500Y-103625962D01*
X105100500Y-103374038D01*
X169899500Y-103374038D01*
X169899500Y-103625961D01*
X169938910Y-103874785D01*
X170016760Y-104114383D01*
X170131132Y-104338848D01*
X170279201Y-104542649D01*
X170279205Y-104542654D01*
X170457345Y-104720794D01*
X170457350Y-104720798D01*
X170635117Y-104849952D01*
X170661155Y-104868870D01*
X170804184Y-104941747D01*
X170885616Y-104983239D01*
X170885618Y-104983239D01*
X170885621Y-104983241D01*
X171125215Y-105061090D01*
X171374038Y-105100500D01*
X171374039Y-105100500D01*
X171625961Y-105100500D01*
X171625962Y-105100500D01*
X171874785Y-105061090D01*
X172114379Y-104983241D01*
X172338845Y-104868870D01*
X172542656Y-104720793D01*
X172720793Y-104542656D01*
X172868870Y-104338845D01*
X172983241Y-104114379D01*
X173061090Y-103874785D01*
X173100500Y-103625962D01*
X173100500Y-103374038D01*
X173061090Y-103125215D01*
X172983241Y-102885621D01*
X172983239Y-102885618D01*
X172983239Y-102885616D01*
X172941747Y-102804184D01*
X172868870Y-102661155D01*
X172849952Y-102635117D01*
X172720798Y-102457350D01*
X172720794Y-102457345D01*
X172542654Y-102279205D01*
X172542649Y-102279201D01*
X172338848Y-102131132D01*
X172338847Y-102131131D01*
X172338845Y-102131130D01*
X172268747Y-102095413D01*
X172114383Y-102016760D01*
X171874785Y-101938910D01*
X171625962Y-101899500D01*
X171374038Y-101899500D01*
X171249626Y-101919205D01*
X171125214Y-101938910D01*
X170885616Y-102016760D01*
X170661151Y-102131132D01*
X170457350Y-102279201D01*
X170457345Y-102279205D01*
X170279205Y-102457345D01*
X170279201Y-102457350D01*
X170131132Y-102661151D01*
X170016760Y-102885616D01*
X169938910Y-103125214D01*
X169899500Y-103374038D01*
X105100500Y-103374038D01*
X105061090Y-103125215D01*
X104983241Y-102885621D01*
X104983239Y-102885618D01*
X104983239Y-102885616D01*
X104941747Y-102804184D01*
X104868870Y-102661155D01*
X104849952Y-102635117D01*
X104720798Y-102457350D01*
X104720794Y-102457345D01*
X104542654Y-102279205D01*
X104542649Y-102279201D01*
X104338848Y-102131132D01*
X104338847Y-102131131D01*
X104338845Y-102131130D01*
X104268747Y-102095413D01*
X104114383Y-102016760D01*
X103874785Y-101938910D01*
X103625962Y-101899500D01*
X103374038Y-101899500D01*
X103249626Y-101919205D01*
X103125214Y-101938910D01*
X102885616Y-102016760D01*
X102661151Y-102131132D01*
X102457350Y-102279201D01*
X102457345Y-102279205D01*
X102279205Y-102457345D01*
X102279201Y-102457350D01*
X102131132Y-102661151D01*
X102016760Y-102885616D01*
X101938910Y-103125214D01*
X101899500Y-103374038D01*
X100600000Y-103374038D01*
X100600000Y-100724000D01*
X100619685Y-100656961D01*
X100672489Y-100611206D01*
X100724000Y-100600000D01*
X174276000Y-100600000D01*
X174343039Y-100619685D01*
G37*
%TD.AperFunction*%
%TD*%
M02*
