%TF.GenerationSoftware,KiCad,Pcbnew,10.0.7*%
%TF.CreationDate,2026-10-09T18:04:39+02:00*%
%TF.ProjectId,power-distribution,706f7765-722d-4646-9973-747269627574,C prototype*%
%TF.SameCoordinates,Original*%
%TF.FileFunction,Legend,Top*%
%TF.FilePolarity,Positive*%
%FSLAX46Y46*%
G04 Gerber Fmt 4.6, Leading zero omitted, Abs format (unit mm)*
G04 Created by KiCad (PCBNEW 10.0.7) date 2026-10-09 18:04:39*
%MOMM*%
%LPD*%
G01*
G04 APERTURE LIST*
%ADD10C,0.150000*%
%ADD11C,0.120000*%
G04 APERTURE END LIST*
D10*
X106207143Y-116508557D02*
X106807143Y-117408557D01*
X106807143Y-116508557D02*
X106207143Y-117408557D01*
X107021429Y-116508557D02*
X107535715Y-116508557D01*
X107278572Y-117408557D02*
X107278572Y-116508557D01*
X107750000Y-116508557D02*
X108307143Y-116508557D01*
X108307143Y-116508557D02*
X108007143Y-116851414D01*
X108007143Y-116851414D02*
X108135714Y-116851414D01*
X108135714Y-116851414D02*
X108221429Y-116894271D01*
X108221429Y-116894271D02*
X108264286Y-116937128D01*
X108264286Y-116937128D02*
X108307143Y-117022842D01*
X108307143Y-117022842D02*
X108307143Y-117237128D01*
X108307143Y-117237128D02*
X108264286Y-117322842D01*
X108264286Y-117322842D02*
X108221429Y-117365700D01*
X108221429Y-117365700D02*
X108135714Y-117408557D01*
X108135714Y-117408557D02*
X107878571Y-117408557D01*
X107878571Y-117408557D02*
X107792857Y-117365700D01*
X107792857Y-117365700D02*
X107750000Y-117322842D01*
X108864286Y-116508557D02*
X108950000Y-116508557D01*
X108950000Y-116508557D02*
X109035714Y-116551414D01*
X109035714Y-116551414D02*
X109078572Y-116594271D01*
X109078572Y-116594271D02*
X109121429Y-116679985D01*
X109121429Y-116679985D02*
X109164286Y-116851414D01*
X109164286Y-116851414D02*
X109164286Y-117065700D01*
X109164286Y-117065700D02*
X109121429Y-117237128D01*
X109121429Y-117237128D02*
X109078572Y-117322842D01*
X109078572Y-117322842D02*
X109035714Y-117365700D01*
X109035714Y-117365700D02*
X108950000Y-117408557D01*
X108950000Y-117408557D02*
X108864286Y-117408557D01*
X108864286Y-117408557D02*
X108778572Y-117365700D01*
X108778572Y-117365700D02*
X108735714Y-117322842D01*
X108735714Y-117322842D02*
X108692857Y-117237128D01*
X108692857Y-117237128D02*
X108650000Y-117065700D01*
X108650000Y-117065700D02*
X108650000Y-116851414D01*
X108650000Y-116851414D02*
X108692857Y-116679985D01*
X108692857Y-116679985D02*
X108735714Y-116594271D01*
X108735714Y-116594271D02*
X108778572Y-116551414D01*
X108778572Y-116551414D02*
X108864286Y-116508557D01*
X110235714Y-117408557D02*
X110235714Y-116508557D01*
X110664285Y-117408557D02*
X110664285Y-116508557D01*
X110664285Y-116508557D02*
X111178571Y-117408557D01*
X111178571Y-117408557D02*
X111178571Y-116508557D01*
X111607142Y-117408557D02*
X111607142Y-116508557D01*
X111607142Y-116508557D02*
X111949999Y-116508557D01*
X111949999Y-116508557D02*
X112035714Y-116551414D01*
X112035714Y-116551414D02*
X112078571Y-116594271D01*
X112078571Y-116594271D02*
X112121428Y-116679985D01*
X112121428Y-116679985D02*
X112121428Y-116808557D01*
X112121428Y-116808557D02*
X112078571Y-116894271D01*
X112078571Y-116894271D02*
X112035714Y-116937128D01*
X112035714Y-116937128D02*
X111949999Y-116979985D01*
X111949999Y-116979985D02*
X111607142Y-116979985D01*
X112507142Y-116508557D02*
X112507142Y-117237128D01*
X112507142Y-117237128D02*
X112549999Y-117322842D01*
X112549999Y-117322842D02*
X112592857Y-117365700D01*
X112592857Y-117365700D02*
X112678571Y-117408557D01*
X112678571Y-117408557D02*
X112849999Y-117408557D01*
X112849999Y-117408557D02*
X112935714Y-117365700D01*
X112935714Y-117365700D02*
X112978571Y-117322842D01*
X112978571Y-117322842D02*
X113021428Y-117237128D01*
X113021428Y-117237128D02*
X113021428Y-116508557D01*
X113321428Y-116508557D02*
X113835714Y-116508557D01*
X113578571Y-117408557D02*
X113578571Y-116508557D01*
X125185714Y-119937128D02*
X124885714Y-119937128D01*
X124885714Y-120408557D02*
X124885714Y-119508557D01*
X124885714Y-119508557D02*
X125314286Y-119508557D01*
X126128572Y-120408557D02*
X125614286Y-120408557D01*
X125871429Y-120408557D02*
X125871429Y-119508557D01*
X125871429Y-119508557D02*
X125785715Y-119637128D01*
X125785715Y-119637128D02*
X125700000Y-119722842D01*
X125700000Y-119722842D02*
X125614286Y-119765700D01*
X127200000Y-120408557D02*
X127200000Y-119508557D01*
X127200000Y-119508557D02*
X127500000Y-120151414D01*
X127500000Y-120151414D02*
X127800000Y-119508557D01*
X127800000Y-119508557D02*
X127800000Y-120408557D01*
X128185714Y-120151414D02*
X128614286Y-120151414D01*
X128100000Y-120408557D02*
X128400000Y-119508557D01*
X128400000Y-119508557D02*
X128700000Y-120408557D01*
X129000000Y-120408557D02*
X129000000Y-119508557D01*
X129428571Y-120408557D02*
X129428571Y-119508557D01*
X129428571Y-119508557D02*
X129942857Y-120408557D01*
X129942857Y-120408557D02*
X129942857Y-119508557D01*
X131528571Y-120408557D02*
X131014285Y-120408557D01*
X131271428Y-120408557D02*
X131271428Y-119508557D01*
X131271428Y-119508557D02*
X131185714Y-119637128D01*
X131185714Y-119637128D02*
X131099999Y-119722842D01*
X131099999Y-119722842D02*
X131014285Y-119765700D01*
X132342857Y-119508557D02*
X131914285Y-119508557D01*
X131914285Y-119508557D02*
X131871428Y-119937128D01*
X131871428Y-119937128D02*
X131914285Y-119894271D01*
X131914285Y-119894271D02*
X132000000Y-119851414D01*
X132000000Y-119851414D02*
X132214285Y-119851414D01*
X132214285Y-119851414D02*
X132300000Y-119894271D01*
X132300000Y-119894271D02*
X132342857Y-119937128D01*
X132342857Y-119937128D02*
X132385714Y-120022842D01*
X132385714Y-120022842D02*
X132385714Y-120237128D01*
X132385714Y-120237128D02*
X132342857Y-120322842D01*
X132342857Y-120322842D02*
X132300000Y-120365700D01*
X132300000Y-120365700D02*
X132214285Y-120408557D01*
X132214285Y-120408557D02*
X132000000Y-120408557D01*
X132000000Y-120408557D02*
X131914285Y-120365700D01*
X131914285Y-120365700D02*
X131871428Y-120322842D01*
X132728571Y-120151414D02*
X133157143Y-120151414D01*
X132642857Y-120408557D02*
X132942857Y-119508557D01*
X132942857Y-119508557D02*
X133242857Y-120408557D01*
X145171428Y-139937128D02*
X144871428Y-139937128D01*
X144871428Y-140408557D02*
X144871428Y-139508557D01*
X144871428Y-139508557D02*
X145300000Y-139508557D01*
X145600000Y-139594271D02*
X145642857Y-139551414D01*
X145642857Y-139551414D02*
X145728572Y-139508557D01*
X145728572Y-139508557D02*
X145942857Y-139508557D01*
X145942857Y-139508557D02*
X146028572Y-139551414D01*
X146028572Y-139551414D02*
X146071429Y-139594271D01*
X146071429Y-139594271D02*
X146114286Y-139679985D01*
X146114286Y-139679985D02*
X146114286Y-139765700D01*
X146114286Y-139765700D02*
X146071429Y-139894271D01*
X146071429Y-139894271D02*
X145557143Y-140408557D01*
X145557143Y-140408557D02*
X146114286Y-140408557D01*
X147142857Y-140151414D02*
X147571429Y-140151414D01*
X147057143Y-140408557D02*
X147357143Y-139508557D01*
X147357143Y-139508557D02*
X147657143Y-140408557D01*
X148557143Y-139508557D02*
X149157143Y-139508557D01*
X149157143Y-139508557D02*
X148771429Y-140408557D01*
X149500000Y-140322842D02*
X149542857Y-140365700D01*
X149542857Y-140365700D02*
X149500000Y-140408557D01*
X149500000Y-140408557D02*
X149457143Y-140365700D01*
X149457143Y-140365700D02*
X149500000Y-140322842D01*
X149500000Y-140322842D02*
X149500000Y-140408557D01*
X150357143Y-139508557D02*
X149928571Y-139508557D01*
X149928571Y-139508557D02*
X149885714Y-139937128D01*
X149885714Y-139937128D02*
X149928571Y-139894271D01*
X149928571Y-139894271D02*
X150014286Y-139851414D01*
X150014286Y-139851414D02*
X150228571Y-139851414D01*
X150228571Y-139851414D02*
X150314286Y-139894271D01*
X150314286Y-139894271D02*
X150357143Y-139937128D01*
X150357143Y-139937128D02*
X150400000Y-140022842D01*
X150400000Y-140022842D02*
X150400000Y-140237128D01*
X150400000Y-140237128D02*
X150357143Y-140322842D01*
X150357143Y-140322842D02*
X150314286Y-140365700D01*
X150314286Y-140365700D02*
X150228571Y-140408557D01*
X150228571Y-140408557D02*
X150014286Y-140408557D01*
X150014286Y-140408557D02*
X149928571Y-140365700D01*
X149928571Y-140365700D02*
X149885714Y-140322842D01*
X150742857Y-140151414D02*
X151171429Y-140151414D01*
X150657143Y-140408557D02*
X150957143Y-139508557D01*
X150957143Y-139508557D02*
X151257143Y-140408557D01*
X145107142Y-159937128D02*
X144807142Y-159937128D01*
X144807142Y-160408557D02*
X144807142Y-159508557D01*
X144807142Y-159508557D02*
X145235714Y-159508557D01*
X145492857Y-159508557D02*
X146050000Y-159508557D01*
X146050000Y-159508557D02*
X145750000Y-159851414D01*
X145750000Y-159851414D02*
X145878571Y-159851414D01*
X145878571Y-159851414D02*
X145964286Y-159894271D01*
X145964286Y-159894271D02*
X146007143Y-159937128D01*
X146007143Y-159937128D02*
X146050000Y-160022842D01*
X146050000Y-160022842D02*
X146050000Y-160237128D01*
X146050000Y-160237128D02*
X146007143Y-160322842D01*
X146007143Y-160322842D02*
X145964286Y-160365700D01*
X145964286Y-160365700D02*
X145878571Y-160408557D01*
X145878571Y-160408557D02*
X145621428Y-160408557D01*
X145621428Y-160408557D02*
X145535714Y-160365700D01*
X145535714Y-160365700D02*
X145492857Y-160322842D01*
X147421428Y-159937128D02*
X147550000Y-159979985D01*
X147550000Y-159979985D02*
X147592857Y-160022842D01*
X147592857Y-160022842D02*
X147635714Y-160108557D01*
X147635714Y-160108557D02*
X147635714Y-160237128D01*
X147635714Y-160237128D02*
X147592857Y-160322842D01*
X147592857Y-160322842D02*
X147550000Y-160365700D01*
X147550000Y-160365700D02*
X147464285Y-160408557D01*
X147464285Y-160408557D02*
X147121428Y-160408557D01*
X147121428Y-160408557D02*
X147121428Y-159508557D01*
X147121428Y-159508557D02*
X147421428Y-159508557D01*
X147421428Y-159508557D02*
X147507143Y-159551414D01*
X147507143Y-159551414D02*
X147550000Y-159594271D01*
X147550000Y-159594271D02*
X147592857Y-159679985D01*
X147592857Y-159679985D02*
X147592857Y-159765700D01*
X147592857Y-159765700D02*
X147550000Y-159851414D01*
X147550000Y-159851414D02*
X147507143Y-159894271D01*
X147507143Y-159894271D02*
X147421428Y-159937128D01*
X147421428Y-159937128D02*
X147121428Y-159937128D01*
X148621428Y-159508557D02*
X149221428Y-159508557D01*
X149221428Y-159508557D02*
X148835714Y-160408557D01*
X149564285Y-160322842D02*
X149607142Y-160365700D01*
X149607142Y-160365700D02*
X149564285Y-160408557D01*
X149564285Y-160408557D02*
X149521428Y-160365700D01*
X149521428Y-160365700D02*
X149564285Y-160322842D01*
X149564285Y-160322842D02*
X149564285Y-160408557D01*
X150421428Y-159508557D02*
X149992856Y-159508557D01*
X149992856Y-159508557D02*
X149949999Y-159937128D01*
X149949999Y-159937128D02*
X149992856Y-159894271D01*
X149992856Y-159894271D02*
X150078571Y-159851414D01*
X150078571Y-159851414D02*
X150292856Y-159851414D01*
X150292856Y-159851414D02*
X150378571Y-159894271D01*
X150378571Y-159894271D02*
X150421428Y-159937128D01*
X150421428Y-159937128D02*
X150464285Y-160022842D01*
X150464285Y-160022842D02*
X150464285Y-160237128D01*
X150464285Y-160237128D02*
X150421428Y-160322842D01*
X150421428Y-160322842D02*
X150378571Y-160365700D01*
X150378571Y-160365700D02*
X150292856Y-160408557D01*
X150292856Y-160408557D02*
X150078571Y-160408557D01*
X150078571Y-160408557D02*
X149992856Y-160365700D01*
X149992856Y-160365700D02*
X149949999Y-160322842D01*
X150807142Y-160151414D02*
X151235714Y-160151414D01*
X150721428Y-160408557D02*
X151021428Y-159508557D01*
X151021428Y-159508557D02*
X151321428Y-160408557D01*
X162521428Y-125065700D02*
X163207143Y-125065700D01*
X162864285Y-125408557D02*
X162864285Y-124722842D01*
X165478571Y-124551414D02*
X165392857Y-124508557D01*
X165392857Y-124508557D02*
X165264285Y-124508557D01*
X165264285Y-124508557D02*
X165135714Y-124551414D01*
X165135714Y-124551414D02*
X165049999Y-124637128D01*
X165049999Y-124637128D02*
X165007142Y-124722842D01*
X165007142Y-124722842D02*
X164964285Y-124894271D01*
X164964285Y-124894271D02*
X164964285Y-125022842D01*
X164964285Y-125022842D02*
X165007142Y-125194271D01*
X165007142Y-125194271D02*
X165049999Y-125279985D01*
X165049999Y-125279985D02*
X165135714Y-125365700D01*
X165135714Y-125365700D02*
X165264285Y-125408557D01*
X165264285Y-125408557D02*
X165349999Y-125408557D01*
X165349999Y-125408557D02*
X165478571Y-125365700D01*
X165478571Y-125365700D02*
X165521428Y-125322842D01*
X165521428Y-125322842D02*
X165521428Y-125022842D01*
X165521428Y-125022842D02*
X165349999Y-125022842D01*
X162521428Y-145065700D02*
X163207143Y-145065700D01*
X162864285Y-145408557D02*
X162864285Y-144722842D01*
X165478571Y-144551414D02*
X165392857Y-144508557D01*
X165392857Y-144508557D02*
X165264285Y-144508557D01*
X165264285Y-144508557D02*
X165135714Y-144551414D01*
X165135714Y-144551414D02*
X165049999Y-144637128D01*
X165049999Y-144637128D02*
X165007142Y-144722842D01*
X165007142Y-144722842D02*
X164964285Y-144894271D01*
X164964285Y-144894271D02*
X164964285Y-145022842D01*
X164964285Y-145022842D02*
X165007142Y-145194271D01*
X165007142Y-145194271D02*
X165049999Y-145279985D01*
X165049999Y-145279985D02*
X165135714Y-145365700D01*
X165135714Y-145365700D02*
X165264285Y-145408557D01*
X165264285Y-145408557D02*
X165349999Y-145408557D01*
X165349999Y-145408557D02*
X165478571Y-145365700D01*
X165478571Y-145365700D02*
X165521428Y-145322842D01*
X165521428Y-145322842D02*
X165521428Y-145022842D01*
X165521428Y-145022842D02*
X165349999Y-145022842D01*
X124214284Y-176454819D02*
X123738094Y-176454819D01*
X123738094Y-176454819D02*
X123690475Y-176931009D01*
X123690475Y-176931009D02*
X123738094Y-176883390D01*
X123738094Y-176883390D02*
X123833332Y-176835771D01*
X123833332Y-176835771D02*
X124071427Y-176835771D01*
X124071427Y-176835771D02*
X124166665Y-176883390D01*
X124166665Y-176883390D02*
X124214284Y-176931009D01*
X124214284Y-176931009D02*
X124261903Y-177026247D01*
X124261903Y-177026247D02*
X124261903Y-177264342D01*
X124261903Y-177264342D02*
X124214284Y-177359580D01*
X124214284Y-177359580D02*
X124166665Y-177407200D01*
X124166665Y-177407200D02*
X124071427Y-177454819D01*
X124071427Y-177454819D02*
X123833332Y-177454819D01*
X123833332Y-177454819D02*
X123738094Y-177407200D01*
X123738094Y-177407200D02*
X123690475Y-177359580D01*
X124547618Y-176454819D02*
X124880951Y-177454819D01*
X124880951Y-177454819D02*
X125214284Y-176454819D01*
X126309523Y-177454819D02*
X126309523Y-176454819D01*
X126309523Y-176454819D02*
X126547618Y-176454819D01*
X126547618Y-176454819D02*
X126690475Y-176502438D01*
X126690475Y-176502438D02*
X126785713Y-176597676D01*
X126785713Y-176597676D02*
X126833332Y-176692914D01*
X126833332Y-176692914D02*
X126880951Y-176883390D01*
X126880951Y-176883390D02*
X126880951Y-177026247D01*
X126880951Y-177026247D02*
X126833332Y-177216723D01*
X126833332Y-177216723D02*
X126785713Y-177311961D01*
X126785713Y-177311961D02*
X126690475Y-177407200D01*
X126690475Y-177407200D02*
X126547618Y-177454819D01*
X126547618Y-177454819D02*
X126309523Y-177454819D01*
X127880951Y-177359580D02*
X127833332Y-177407200D01*
X127833332Y-177407200D02*
X127690475Y-177454819D01*
X127690475Y-177454819D02*
X127595237Y-177454819D01*
X127595237Y-177454819D02*
X127452380Y-177407200D01*
X127452380Y-177407200D02*
X127357142Y-177311961D01*
X127357142Y-177311961D02*
X127309523Y-177216723D01*
X127309523Y-177216723D02*
X127261904Y-177026247D01*
X127261904Y-177026247D02*
X127261904Y-176883390D01*
X127261904Y-176883390D02*
X127309523Y-176692914D01*
X127309523Y-176692914D02*
X127357142Y-176597676D01*
X127357142Y-176597676D02*
X127452380Y-176502438D01*
X127452380Y-176502438D02*
X127595237Y-176454819D01*
X127595237Y-176454819D02*
X127690475Y-176454819D01*
X127690475Y-176454819D02*
X127833332Y-176502438D01*
X127833332Y-176502438D02*
X127880951Y-176550057D01*
X129261904Y-176454819D02*
X129452380Y-176454819D01*
X129452380Y-176454819D02*
X129547618Y-176502438D01*
X129547618Y-176502438D02*
X129642856Y-176597676D01*
X129642856Y-176597676D02*
X129690475Y-176788152D01*
X129690475Y-176788152D02*
X129690475Y-177121485D01*
X129690475Y-177121485D02*
X129642856Y-177311961D01*
X129642856Y-177311961D02*
X129547618Y-177407200D01*
X129547618Y-177407200D02*
X129452380Y-177454819D01*
X129452380Y-177454819D02*
X129261904Y-177454819D01*
X129261904Y-177454819D02*
X129166666Y-177407200D01*
X129166666Y-177407200D02*
X129071428Y-177311961D01*
X129071428Y-177311961D02*
X129023809Y-177121485D01*
X129023809Y-177121485D02*
X129023809Y-176788152D01*
X129023809Y-176788152D02*
X129071428Y-176597676D01*
X129071428Y-176597676D02*
X129166666Y-176502438D01*
X129166666Y-176502438D02*
X129261904Y-176454819D01*
X130119047Y-177454819D02*
X130119047Y-176454819D01*
X130119047Y-176454819D02*
X130690475Y-177454819D01*
X130690475Y-177454819D02*
X130690475Y-176454819D01*
X131642856Y-177454819D02*
X131166666Y-177454819D01*
X131166666Y-177454819D02*
X131166666Y-176454819D01*
X132166666Y-176978628D02*
X132166666Y-177454819D01*
X131833333Y-176454819D02*
X132166666Y-176978628D01*
X132166666Y-176978628D02*
X132499999Y-176454819D01*
X134309523Y-176407200D02*
X133452381Y-177692914D01*
X135357143Y-176550057D02*
X135404762Y-176502438D01*
X135404762Y-176502438D02*
X135500000Y-176454819D01*
X135500000Y-176454819D02*
X135738095Y-176454819D01*
X135738095Y-176454819D02*
X135833333Y-176502438D01*
X135833333Y-176502438D02*
X135880952Y-176550057D01*
X135880952Y-176550057D02*
X135928571Y-176645295D01*
X135928571Y-176645295D02*
X135928571Y-176740533D01*
X135928571Y-176740533D02*
X135880952Y-176883390D01*
X135880952Y-176883390D02*
X135309524Y-177454819D01*
X135309524Y-177454819D02*
X135928571Y-177454819D01*
X136500000Y-177454819D02*
X136404762Y-177407200D01*
X136404762Y-177407200D02*
X136357143Y-177359580D01*
X136357143Y-177359580D02*
X136309524Y-177264342D01*
X136309524Y-177264342D02*
X136309524Y-176978628D01*
X136309524Y-176978628D02*
X136357143Y-176883390D01*
X136357143Y-176883390D02*
X136404762Y-176835771D01*
X136404762Y-176835771D02*
X136500000Y-176788152D01*
X136500000Y-176788152D02*
X136642857Y-176788152D01*
X136642857Y-176788152D02*
X136738095Y-176835771D01*
X136738095Y-176835771D02*
X136785714Y-176883390D01*
X136785714Y-176883390D02*
X136833333Y-176978628D01*
X136833333Y-176978628D02*
X136833333Y-177264342D01*
X136833333Y-177264342D02*
X136785714Y-177359580D01*
X136785714Y-177359580D02*
X136738095Y-177407200D01*
X136738095Y-177407200D02*
X136642857Y-177454819D01*
X136642857Y-177454819D02*
X136500000Y-177454819D01*
X137166667Y-176788152D02*
X137690476Y-176788152D01*
X137690476Y-176788152D02*
X137166667Y-177454819D01*
X137166667Y-177454819D02*
X137690476Y-177454819D01*
X139404762Y-177359580D02*
X139357143Y-177407200D01*
X139357143Y-177407200D02*
X139214286Y-177454819D01*
X139214286Y-177454819D02*
X139119048Y-177454819D01*
X139119048Y-177454819D02*
X138976191Y-177407200D01*
X138976191Y-177407200D02*
X138880953Y-177311961D01*
X138880953Y-177311961D02*
X138833334Y-177216723D01*
X138833334Y-177216723D02*
X138785715Y-177026247D01*
X138785715Y-177026247D02*
X138785715Y-176883390D01*
X138785715Y-176883390D02*
X138833334Y-176692914D01*
X138833334Y-176692914D02*
X138880953Y-176597676D01*
X138880953Y-176597676D02*
X138976191Y-176502438D01*
X138976191Y-176502438D02*
X139119048Y-176454819D01*
X139119048Y-176454819D02*
X139214286Y-176454819D01*
X139214286Y-176454819D02*
X139357143Y-176502438D01*
X139357143Y-176502438D02*
X139404762Y-176550057D01*
X140261905Y-176788152D02*
X140261905Y-177454819D01*
X139833334Y-176788152D02*
X139833334Y-177311961D01*
X139833334Y-177311961D02*
X139880953Y-177407200D01*
X139880953Y-177407200D02*
X139976191Y-177454819D01*
X139976191Y-177454819D02*
X140119048Y-177454819D01*
X140119048Y-177454819D02*
X140214286Y-177407200D01*
X140214286Y-177407200D02*
X140261905Y-177359580D01*
X123942857Y-104547342D02*
X123942857Y-103347342D01*
X123942857Y-103347342D02*
X124400000Y-103347342D01*
X124400000Y-103347342D02*
X124514285Y-103404485D01*
X124514285Y-103404485D02*
X124571428Y-103461628D01*
X124571428Y-103461628D02*
X124628571Y-103575914D01*
X124628571Y-103575914D02*
X124628571Y-103747342D01*
X124628571Y-103747342D02*
X124571428Y-103861628D01*
X124571428Y-103861628D02*
X124514285Y-103918771D01*
X124514285Y-103918771D02*
X124400000Y-103975914D01*
X124400000Y-103975914D02*
X123942857Y-103975914D01*
X125828571Y-104547342D02*
X125428571Y-103975914D01*
X125142857Y-104547342D02*
X125142857Y-103347342D01*
X125142857Y-103347342D02*
X125600000Y-103347342D01*
X125600000Y-103347342D02*
X125714285Y-103404485D01*
X125714285Y-103404485D02*
X125771428Y-103461628D01*
X125771428Y-103461628D02*
X125828571Y-103575914D01*
X125828571Y-103575914D02*
X125828571Y-103747342D01*
X125828571Y-103747342D02*
X125771428Y-103861628D01*
X125771428Y-103861628D02*
X125714285Y-103918771D01*
X125714285Y-103918771D02*
X125600000Y-103975914D01*
X125600000Y-103975914D02*
X125142857Y-103975914D01*
X126571428Y-103975914D02*
X126571428Y-104547342D01*
X126171428Y-103347342D02*
X126571428Y-103975914D01*
X126571428Y-103975914D02*
X126971428Y-103347342D01*
X127314285Y-104490200D02*
X127485714Y-104547342D01*
X127485714Y-104547342D02*
X127771428Y-104547342D01*
X127771428Y-104547342D02*
X127885714Y-104490200D01*
X127885714Y-104490200D02*
X127942856Y-104433057D01*
X127942856Y-104433057D02*
X127999999Y-104318771D01*
X127999999Y-104318771D02*
X127999999Y-104204485D01*
X127999999Y-104204485D02*
X127942856Y-104090200D01*
X127942856Y-104090200D02*
X127885714Y-104033057D01*
X127885714Y-104033057D02*
X127771428Y-103975914D01*
X127771428Y-103975914D02*
X127542856Y-103918771D01*
X127542856Y-103918771D02*
X127428571Y-103861628D01*
X127428571Y-103861628D02*
X127371428Y-103804485D01*
X127371428Y-103804485D02*
X127314285Y-103690200D01*
X127314285Y-103690200D02*
X127314285Y-103575914D01*
X127314285Y-103575914D02*
X127371428Y-103461628D01*
X127371428Y-103461628D02*
X127428571Y-103404485D01*
X127428571Y-103404485D02*
X127542856Y-103347342D01*
X127542856Y-103347342D02*
X127828571Y-103347342D01*
X127828571Y-103347342D02*
X127999999Y-103404485D01*
X128514285Y-104547342D02*
X128514285Y-103347342D01*
X128514285Y-103347342D02*
X128914285Y-104204485D01*
X128914285Y-104204485D02*
X129314285Y-103347342D01*
X129314285Y-103347342D02*
X129314285Y-104547342D01*
X130800000Y-104547342D02*
X130800000Y-103347342D01*
X130800000Y-103347342D02*
X131257143Y-103347342D01*
X131257143Y-103347342D02*
X131371428Y-103404485D01*
X131371428Y-103404485D02*
X131428571Y-103461628D01*
X131428571Y-103461628D02*
X131485714Y-103575914D01*
X131485714Y-103575914D02*
X131485714Y-103747342D01*
X131485714Y-103747342D02*
X131428571Y-103861628D01*
X131428571Y-103861628D02*
X131371428Y-103918771D01*
X131371428Y-103918771D02*
X131257143Y-103975914D01*
X131257143Y-103975914D02*
X130800000Y-103975914D01*
X132228571Y-103347342D02*
X132457143Y-103347342D01*
X132457143Y-103347342D02*
X132571428Y-103404485D01*
X132571428Y-103404485D02*
X132685714Y-103518771D01*
X132685714Y-103518771D02*
X132742857Y-103747342D01*
X132742857Y-103747342D02*
X132742857Y-104147342D01*
X132742857Y-104147342D02*
X132685714Y-104375914D01*
X132685714Y-104375914D02*
X132571428Y-104490200D01*
X132571428Y-104490200D02*
X132457143Y-104547342D01*
X132457143Y-104547342D02*
X132228571Y-104547342D01*
X132228571Y-104547342D02*
X132114286Y-104490200D01*
X132114286Y-104490200D02*
X132000000Y-104375914D01*
X132000000Y-104375914D02*
X131942857Y-104147342D01*
X131942857Y-104147342D02*
X131942857Y-103747342D01*
X131942857Y-103747342D02*
X132000000Y-103518771D01*
X132000000Y-103518771D02*
X132114286Y-103404485D01*
X132114286Y-103404485D02*
X132228571Y-103347342D01*
X133142857Y-103347342D02*
X133428571Y-104547342D01*
X133428571Y-104547342D02*
X133657143Y-103690200D01*
X133657143Y-103690200D02*
X133885714Y-104547342D01*
X133885714Y-104547342D02*
X134171429Y-103347342D01*
X134628572Y-103918771D02*
X135028572Y-103918771D01*
X135200000Y-104547342D02*
X134628572Y-104547342D01*
X134628572Y-104547342D02*
X134628572Y-103347342D01*
X134628572Y-103347342D02*
X135200000Y-103347342D01*
X136400000Y-104547342D02*
X136000000Y-103975914D01*
X135714286Y-104547342D02*
X135714286Y-103347342D01*
X135714286Y-103347342D02*
X136171429Y-103347342D01*
X136171429Y-103347342D02*
X136285714Y-103404485D01*
X136285714Y-103404485D02*
X136342857Y-103461628D01*
X136342857Y-103461628D02*
X136400000Y-103575914D01*
X136400000Y-103575914D02*
X136400000Y-103747342D01*
X136400000Y-103747342D02*
X136342857Y-103861628D01*
X136342857Y-103861628D02*
X136285714Y-103918771D01*
X136285714Y-103918771D02*
X136171429Y-103975914D01*
X136171429Y-103975914D02*
X135714286Y-103975914D01*
X137828572Y-104547342D02*
X137828572Y-103747342D01*
X137828572Y-103975914D02*
X137885715Y-103861628D01*
X137885715Y-103861628D02*
X137942858Y-103804485D01*
X137942858Y-103804485D02*
X138057143Y-103747342D01*
X138057143Y-103747342D02*
X138171429Y-103747342D01*
X139028572Y-104490200D02*
X138914286Y-104547342D01*
X138914286Y-104547342D02*
X138685715Y-104547342D01*
X138685715Y-104547342D02*
X138571429Y-104490200D01*
X138571429Y-104490200D02*
X138514286Y-104375914D01*
X138514286Y-104375914D02*
X138514286Y-103918771D01*
X138514286Y-103918771D02*
X138571429Y-103804485D01*
X138571429Y-103804485D02*
X138685715Y-103747342D01*
X138685715Y-103747342D02*
X138914286Y-103747342D01*
X138914286Y-103747342D02*
X139028572Y-103804485D01*
X139028572Y-103804485D02*
X139085715Y-103918771D01*
X139085715Y-103918771D02*
X139085715Y-104033057D01*
X139085715Y-104033057D02*
X138514286Y-104147342D01*
X139485714Y-103747342D02*
X139771428Y-104547342D01*
X139771428Y-104547342D02*
X140057143Y-103747342D01*
X142114286Y-104433057D02*
X142057143Y-104490200D01*
X142057143Y-104490200D02*
X141885715Y-104547342D01*
X141885715Y-104547342D02*
X141771429Y-104547342D01*
X141771429Y-104547342D02*
X141600000Y-104490200D01*
X141600000Y-104490200D02*
X141485715Y-104375914D01*
X141485715Y-104375914D02*
X141428572Y-104261628D01*
X141428572Y-104261628D02*
X141371429Y-104033057D01*
X141371429Y-104033057D02*
X141371429Y-103861628D01*
X141371429Y-103861628D02*
X141428572Y-103633057D01*
X141428572Y-103633057D02*
X141485715Y-103518771D01*
X141485715Y-103518771D02*
X141600000Y-103404485D01*
X141600000Y-103404485D02*
X141771429Y-103347342D01*
X141771429Y-103347342D02*
X141885715Y-103347342D01*
X141885715Y-103347342D02*
X142057143Y-103404485D01*
X142057143Y-103404485D02*
X142114286Y-103461628D01*
X105428571Y-110114700D02*
X106571429Y-110114700D01*
X118428571Y-110114700D02*
X119571429Y-110114700D01*
X119000000Y-110686128D02*
X119000000Y-109543271D01*
%TO.C,F2*%
D11*
X141860000Y-128230000D02*
X141860000Y-135170000D01*
X141860000Y-135170000D02*
X158060000Y-135170000D01*
X148360000Y-129700000D02*
X151560000Y-129700000D01*
X149210000Y-131700000D02*
X150710000Y-131700000D01*
X151560000Y-133700000D02*
X148360000Y-133700000D01*
X158060000Y-128230000D02*
X141860000Y-128230000D01*
X158060000Y-135170000D02*
X158060000Y-128230000D01*
%TO.C,J1*%
X107290000Y-108590000D02*
X107290000Y-111410000D01*
X107290000Y-108590000D02*
X108990000Y-107290000D01*
X107290000Y-111410000D02*
X108990000Y-112710000D01*
X108990000Y-107290000D02*
X117710000Y-107290000D01*
X108990000Y-112710000D02*
X117710000Y-112710000D01*
X117710000Y-107290000D02*
X117710000Y-112710000D01*
%TO.C,J2*%
X159140000Y-129700000D02*
X159740000Y-130000000D01*
X159140000Y-130300000D02*
X159140000Y-129700000D01*
X159740000Y-130000000D02*
X159140000Y-130300000D01*
X159940000Y-127890000D02*
X161140000Y-127890000D01*
X159940000Y-134910000D02*
X159940000Y-127890000D01*
X161140000Y-126190000D02*
X166820000Y-126190000D01*
X161140000Y-127890000D02*
X161140000Y-126190000D01*
X166820000Y-126190000D02*
X166820000Y-127890000D01*
X166820000Y-127890000D02*
X168020000Y-127890000D01*
X168020000Y-127890000D02*
X168020000Y-134910000D01*
X168020000Y-134910000D02*
X159940000Y-134910000D01*
%TO.C,F1*%
X121860000Y-108230000D02*
X121860000Y-115170000D01*
X121860000Y-115170000D02*
X138060000Y-115170000D01*
X128360000Y-109700000D02*
X131560000Y-109700000D01*
X129210000Y-111700000D02*
X130710000Y-111700000D01*
X131560000Y-113700000D02*
X128360000Y-113700000D01*
X138060000Y-108230000D02*
X121860000Y-108230000D01*
X138060000Y-115170000D02*
X138060000Y-108230000D01*
%TO.C,C1*%
X116920000Y-157460000D02*
X127080000Y-157460000D01*
X116920000Y-157500000D02*
X127080000Y-157500000D01*
X116921000Y-157380000D02*
X127079000Y-157380000D01*
X116921000Y-157420000D02*
X127079000Y-157420000D01*
X116923000Y-157340000D02*
X127077000Y-157340000D01*
X116924000Y-157300000D02*
X127076000Y-157300000D01*
X116926000Y-157260000D02*
X127074000Y-157260000D01*
X116928000Y-157220000D02*
X127072000Y-157220000D01*
X116930000Y-157180000D02*
X127070000Y-157180000D01*
X116933000Y-157140000D02*
X127067000Y-157140000D01*
X116936000Y-157100000D02*
X127064000Y-157100000D01*
X116939000Y-157060000D02*
X127061000Y-157060000D01*
X116943000Y-157020000D02*
X127057000Y-157020000D01*
X116946000Y-156980000D02*
X127054000Y-156980000D01*
X116951000Y-156940000D02*
X127049000Y-156940000D01*
X116955000Y-156900000D02*
X127045000Y-156900000D01*
X116960000Y-156860000D02*
X127040000Y-156860000D01*
X116965000Y-156820000D02*
X127035000Y-156820000D01*
X116971000Y-156780000D02*
X127029000Y-156780000D01*
X116977000Y-156740000D02*
X127023000Y-156740000D01*
X116983000Y-156700000D02*
X127017000Y-156700000D01*
X116989000Y-156660000D02*
X127011000Y-156660000D01*
X116996000Y-156620000D02*
X127004000Y-156620000D01*
X117003000Y-156580000D02*
X126997000Y-156580000D01*
X117011000Y-156540000D02*
X126989000Y-156540000D01*
X117019000Y-156500000D02*
X126981000Y-156500000D01*
X117027000Y-156460000D02*
X126973000Y-156460000D01*
X117035000Y-156420000D02*
X126965000Y-156420000D01*
X117044000Y-156380000D02*
X126956000Y-156380000D01*
X117053000Y-156340000D02*
X126947000Y-156340000D01*
X117063000Y-156300000D02*
X126937000Y-156300000D01*
X117072000Y-156260000D02*
X126928000Y-156260000D01*
X117083000Y-156220000D02*
X120760000Y-156220000D01*
X117093000Y-156180000D02*
X120760000Y-156180000D01*
X117104000Y-156140000D02*
X120760000Y-156140000D01*
X117115000Y-156100000D02*
X120760000Y-156100000D01*
X117127000Y-156060000D02*
X120760000Y-156060000D01*
X117139000Y-156020000D02*
X120760000Y-156020000D01*
X117151000Y-155980000D02*
X120760000Y-155980000D01*
X117163000Y-155940000D02*
X120760000Y-155940000D01*
X117176000Y-155900000D02*
X120760000Y-155900000D01*
X117190000Y-155860000D02*
X120760000Y-155860000D01*
X117203000Y-155820000D02*
X120760000Y-155820000D01*
X117218000Y-155780000D02*
X120760000Y-155780000D01*
X117232000Y-155740000D02*
X120760000Y-155740000D01*
X117247000Y-155700000D02*
X120760000Y-155700000D01*
X117262000Y-155660000D02*
X120760000Y-155660000D01*
X117278000Y-155620000D02*
X120760000Y-155620000D01*
X117294000Y-155580000D02*
X120760000Y-155580000D01*
X117310000Y-155540000D02*
X120760000Y-155540000D01*
X117327000Y-155500000D02*
X120760000Y-155500000D01*
X117344000Y-155460000D02*
X120760000Y-155460000D01*
X117362000Y-155420000D02*
X120760000Y-155420000D01*
X117380000Y-155380000D02*
X120760000Y-155380000D01*
X117398000Y-155340000D02*
X120760000Y-155340000D01*
X117417000Y-155300000D02*
X120760000Y-155300000D01*
X117436000Y-155260000D02*
X120760000Y-155260000D01*
X117456000Y-155220000D02*
X120760000Y-155220000D01*
X117476000Y-155180000D02*
X120760000Y-155180000D01*
X117496000Y-155140000D02*
X120760000Y-155140000D01*
X117517000Y-155100000D02*
X120760000Y-155100000D01*
X117539000Y-155060000D02*
X120760000Y-155060000D01*
X117561000Y-155020000D02*
X120760000Y-155020000D01*
X117583000Y-154980000D02*
X120760000Y-154980000D01*
X117606000Y-154940000D02*
X120760000Y-154940000D01*
X117629000Y-154900000D02*
X120760000Y-154900000D01*
X117653000Y-154860000D02*
X120760000Y-154860000D01*
X117677000Y-154820000D02*
X120760000Y-154820000D01*
X117702000Y-154780000D02*
X120760000Y-154780000D01*
X117728000Y-154740000D02*
X120760000Y-154740000D01*
X117753000Y-154700000D02*
X120760000Y-154700000D01*
X117780000Y-154660000D02*
X120760000Y-154660000D01*
X117807000Y-154620000D02*
X120760000Y-154620000D01*
X117834000Y-154580000D02*
X120760000Y-154580000D01*
X117862000Y-154540000D02*
X120760000Y-154540000D01*
X117891000Y-154500000D02*
X120760000Y-154500000D01*
X117920000Y-154460000D02*
X120760000Y-154460000D01*
X117950000Y-154420000D02*
X120760000Y-154420000D01*
X117980000Y-154380000D02*
X120760000Y-154380000D01*
X118012000Y-154340000D02*
X120760000Y-154340000D01*
X118043000Y-154300000D02*
X120760000Y-154300000D01*
X118076000Y-154260000D02*
X120760000Y-154260000D01*
X118109000Y-154220000D02*
X120760000Y-154220000D01*
X118142000Y-154180000D02*
X120760000Y-154180000D01*
X118177000Y-154140000D02*
X120760000Y-154140000D01*
X118212000Y-154100000D02*
X120760000Y-154100000D01*
X118248000Y-154060000D02*
X120760000Y-154060000D01*
X118284000Y-154020000D02*
X120760000Y-154020000D01*
X118322000Y-153980000D02*
X120760000Y-153980000D01*
X118360000Y-153940000D02*
X120760000Y-153940000D01*
X118399000Y-153900000D02*
X120760000Y-153900000D01*
X118439000Y-153860000D02*
X120760000Y-153860000D01*
X118480000Y-153820000D02*
X120760000Y-153820000D01*
X118522000Y-153780000D02*
X120760000Y-153780000D01*
X118565000Y-153740000D02*
X125435000Y-153740000D01*
X118609000Y-153700000D02*
X125391000Y-153700000D01*
X118625000Y-162479646D02*
X119625000Y-162479646D01*
X118653000Y-153660000D02*
X125347000Y-153660000D01*
X118699000Y-153620000D02*
X125301000Y-153620000D01*
X118746000Y-153580000D02*
X125254000Y-153580000D01*
X118795000Y-153540000D02*
X125205000Y-153540000D01*
X118844000Y-153500000D02*
X125156000Y-153500000D01*
X118895000Y-153460000D02*
X125105000Y-153460000D01*
X118947000Y-153420000D02*
X125053000Y-153420000D01*
X119000000Y-153380000D02*
X125000000Y-153380000D01*
X119055000Y-153340000D02*
X124945000Y-153340000D01*
X119112000Y-153300000D02*
X124888000Y-153300000D01*
X119125000Y-162979646D02*
X119125000Y-161979646D01*
X119170000Y-153260000D02*
X124830000Y-153260000D01*
X119230000Y-153220000D02*
X124770000Y-153220000D01*
X119292000Y-153180000D02*
X124708000Y-153180000D01*
X119356000Y-153140000D02*
X124644000Y-153140000D01*
X119422000Y-153100000D02*
X124578000Y-153100000D01*
X119490000Y-153060000D02*
X124510000Y-153060000D01*
X119561000Y-153020000D02*
X124439000Y-153020000D01*
X119635000Y-152980000D02*
X124365000Y-152980000D01*
X119712000Y-152940000D02*
X124288000Y-152940000D01*
X119792000Y-152900000D02*
X124208000Y-152900000D01*
X119876000Y-152860000D02*
X124124000Y-152860000D01*
X119963000Y-152820000D02*
X124037000Y-152820000D01*
X120056000Y-152780000D02*
X123944000Y-152780000D01*
X120154000Y-152740000D02*
X123846000Y-152740000D01*
X120258000Y-152700000D02*
X123742000Y-152700000D01*
X120370000Y-152660000D02*
X123630000Y-152660000D01*
X120491000Y-152620000D02*
X123509000Y-152620000D01*
X120623000Y-152580000D02*
X123377000Y-152580000D01*
X120770000Y-152540000D02*
X123230000Y-152540000D01*
X120938000Y-152500000D02*
X123062000Y-152500000D01*
X121138000Y-152460000D02*
X122862000Y-152460000D01*
X121401000Y-152420000D02*
X122599000Y-152420000D01*
X123240000Y-153780000D02*
X125478000Y-153780000D01*
X123240000Y-153820000D02*
X125520000Y-153820000D01*
X123240000Y-153860000D02*
X125561000Y-153860000D01*
X123240000Y-153900000D02*
X125601000Y-153900000D01*
X123240000Y-153940000D02*
X125640000Y-153940000D01*
X123240000Y-153980000D02*
X125678000Y-153980000D01*
X123240000Y-154020000D02*
X125716000Y-154020000D01*
X123240000Y-154060000D02*
X125752000Y-154060000D01*
X123240000Y-154100000D02*
X125788000Y-154100000D01*
X123240000Y-154140000D02*
X125823000Y-154140000D01*
X123240000Y-154180000D02*
X125858000Y-154180000D01*
X123240000Y-154220000D02*
X125891000Y-154220000D01*
X123240000Y-154260000D02*
X125924000Y-154260000D01*
X123240000Y-154300000D02*
X125957000Y-154300000D01*
X123240000Y-154340000D02*
X125988000Y-154340000D01*
X123240000Y-154380000D02*
X126020000Y-154380000D01*
X123240000Y-154420000D02*
X126050000Y-154420000D01*
X123240000Y-154460000D02*
X126080000Y-154460000D01*
X123240000Y-154500000D02*
X126109000Y-154500000D01*
X123240000Y-154540000D02*
X126138000Y-154540000D01*
X123240000Y-154580000D02*
X126166000Y-154580000D01*
X123240000Y-154620000D02*
X126193000Y-154620000D01*
X123240000Y-154660000D02*
X126220000Y-154660000D01*
X123240000Y-154700000D02*
X126247000Y-154700000D01*
X123240000Y-154740000D02*
X126272000Y-154740000D01*
X123240000Y-154780000D02*
X126298000Y-154780000D01*
X123240000Y-154820000D02*
X126323000Y-154820000D01*
X123240000Y-154860000D02*
X126347000Y-154860000D01*
X123240000Y-154900000D02*
X126371000Y-154900000D01*
X123240000Y-154940000D02*
X126394000Y-154940000D01*
X123240000Y-154980000D02*
X126417000Y-154980000D01*
X123240000Y-155020000D02*
X126439000Y-155020000D01*
X123240000Y-155060000D02*
X126461000Y-155060000D01*
X123240000Y-155100000D02*
X126483000Y-155100000D01*
X123240000Y-155140000D02*
X126504000Y-155140000D01*
X123240000Y-155180000D02*
X126524000Y-155180000D01*
X123240000Y-155220000D02*
X126544000Y-155220000D01*
X123240000Y-155260000D02*
X126564000Y-155260000D01*
X123240000Y-155300000D02*
X126583000Y-155300000D01*
X123240000Y-155340000D02*
X126602000Y-155340000D01*
X123240000Y-155380000D02*
X126620000Y-155380000D01*
X123240000Y-155420000D02*
X126638000Y-155420000D01*
X123240000Y-155460000D02*
X126656000Y-155460000D01*
X123240000Y-155500000D02*
X126673000Y-155500000D01*
X123240000Y-155540000D02*
X126690000Y-155540000D01*
X123240000Y-155580000D02*
X126706000Y-155580000D01*
X123240000Y-155620000D02*
X126722000Y-155620000D01*
X123240000Y-155660000D02*
X126738000Y-155660000D01*
X123240000Y-155700000D02*
X126753000Y-155700000D01*
X123240000Y-155740000D02*
X126768000Y-155740000D01*
X123240000Y-155780000D02*
X126782000Y-155780000D01*
X123240000Y-155820000D02*
X126797000Y-155820000D01*
X123240000Y-155860000D02*
X126810000Y-155860000D01*
X123240000Y-155900000D02*
X126824000Y-155900000D01*
X123240000Y-155940000D02*
X126837000Y-155940000D01*
X123240000Y-155980000D02*
X126849000Y-155980000D01*
X123240000Y-156020000D02*
X126861000Y-156020000D01*
X123240000Y-156060000D02*
X126873000Y-156060000D01*
X123240000Y-156100000D02*
X126885000Y-156100000D01*
X123240000Y-156140000D02*
X126896000Y-156140000D01*
X123240000Y-156180000D02*
X126907000Y-156180000D01*
X123240000Y-156220000D02*
X126917000Y-156220000D01*
X127120000Y-157500000D02*
G75*
G02*
X116880000Y-157500000I-5120000J0D01*
G01*
X116880000Y-157500000D02*
G75*
G02*
X127120000Y-157500000I5120000J0D01*
G01*
%TO.C,F3*%
X141860000Y-148230000D02*
X141860000Y-155170000D01*
X141860000Y-155170000D02*
X158060000Y-155170000D01*
X148360000Y-149700000D02*
X151560000Y-149700000D01*
X149210000Y-151700000D02*
X150710000Y-151700000D01*
X151560000Y-153700000D02*
X148360000Y-153700000D01*
X158060000Y-148230000D02*
X141860000Y-148230000D01*
X158060000Y-155170000D02*
X158060000Y-148230000D01*
%TO.C,J3*%
X159140000Y-149700000D02*
X159740000Y-150000000D01*
X159140000Y-150300000D02*
X159140000Y-149700000D01*
X159740000Y-150000000D02*
X159140000Y-150300000D01*
X159940000Y-147890000D02*
X161140000Y-147890000D01*
X159940000Y-154910000D02*
X159940000Y-147890000D01*
X161140000Y-146190000D02*
X166820000Y-146190000D01*
X161140000Y-147890000D02*
X161140000Y-146190000D01*
X166820000Y-146190000D02*
X166820000Y-147890000D01*
X166820000Y-147890000D02*
X168020000Y-147890000D01*
X168020000Y-147890000D02*
X168020000Y-154910000D01*
X168020000Y-154910000D02*
X159940000Y-154910000D01*
%TD*%
M02*
